WladiSans-Italic[wght].glyphspackage
{
glyphname = exclam;
layers = (
{
layerId = "84C8819D-02E3-4D9D-80EE-F3CA29327F71";
shapes = (
{
closed = 1;
nodes = (
(84,248,l),
(145,700,l),
(328,700,l),
(229,248,l)
);
},
{
closed = 1;
nodes = (
(78,-8,o),
(37,33,o),
(37,84,cs),
(37,137,o),
(78,178,o),
(139,178,cs),
(199,178,o),
(240,137,o),
(240,84,cs),
(240,33,o),
(199,-8,o),
(139,-8,cs)
);
}
);
width = 334;
},
{
layerId = "44586365-17B2-4B09-91E8-CEE5E00BC966";
shapes = (
{
closed = 1;
nodes = (
(65,197,l),
(144,700,l),
(239,700,l),
(139,197,l)
);
},
{
closed = 1;
nodes = (
(51,-6,o),
(26,20,o),
(26,54,cs),
(26,87,o),
(51,112,o),
(86,112,cs),
(120,112,o),
(145,87,o),
(145,54,cs),
(145,20,o),
(120,-6,o),
(86,-6,cs)
);
}
);
width = 239;
},
{
layerId = "EC825F25-5E21-4444-B100-FC828A5BE381";
shapes = (
{
closed = 1;
nodes = (
(57,176,l),
(143,700,l),
(203,700,l),
(103,176,l)
);
},
{
closed = 1;
nodes = (
(40,-5,o),
(21,15,o),
(21,42,cs),
(21,67,o),
(40,86,o),
(64,86,cs),
(88,86,o),
(107,67,o),
(107,42,cs),
(107,15,o),
(88,-5,o),
(64,-5,cs)
);
}
);
width = 201;
}
);
unicode = 33;
}
{
glyphname = quotedbl;
layers = (
{
layerId = "006414F6-AB32-4F37-AE27-2ADC4DCE78FB";
shapes = (
{
closed = 1;
nodes = (
(289,534,l),
(314,755,l),
(456,755,l),
(404,534,l)
);
},
{
closed = 1;
nodes = (
(99,534,l),
(124,755,l),
(265,755,l),
(214,534,l)
);
}
);
width = 400;
},
{
layerId = "797178CA-EA28-4B78-93E8-321876F1BDF3";
shapes = (
{
closed = 1;
nodes = (
(230,557,l),
(253,755,l),
(336,755,l),
(290,557,l)
);
},
{
closed = 1;
nodes = (
(97,557,l),
(120,755,l),
(203,755,l),
(158,557,l)
);
}
);
width = 277;
},
{
layerId = "9F3B9F63-BB4B-4875-904D-0FA4124C677C";
shapes = (
{
closed = 1;
nodes = (
(206,566,l),
(228,755,l),
(288,755,l),
(245,566,l)
);
},
{
closed = 1;
nodes = (
(96,566,l),
(119,755,l),
(178,755,l),
(135,566,l)
);
}
);
width = 228;
}
);
leftKerningGroup = quotedbl2;
rightKerningGroup = quotedbl;
unicode = 34;
}
{
glyphname = numbersign;
layers = (
{
layerId = "006414F6-AB32-4F37-AE27-2ADC4DCE78FB";
shapes = (
{
closed = 1;
nodes = (
(404,0,l),
(464,153,l),
(298,153,l),
(238,0,l),
(78,0,l),
(138,153,l),
(-10,153,l),
(18,307,l),
(198,307,l),
(249,438,l),
(105,438,l),
(132,592,l),
(309,592,l),
(367,740,l),
(527,740,l),
(469,592,l),
(635,592,l),
(693,740,l),
(853,740,l),
(795,592,l),
(919,592,l),
(892,438,l),
(735,438,l),
(684,307,l),
(805,307,l),
(777,153,l),
(624,153,l),
(564,0,l)
);
},
{
closed = 1;
nodes = (
(524,307,l),
(575,438,l),
(409,438,l),
(358,307,l)
);
}
);
width = 892;
},
{
layerId = "797178CA-EA28-4B78-93E8-321876F1BDF3";
shapes = (
{
closed = 1;
nodes = (
(388,0,l),
(464,195,l),
(252,195,l),
(176,0,l),
(92,0,l),
(168,195,l),
(26,195,l),
(40,273,l),
(199,273,l),
(262,434,l),
(113,434,l),
(126,513,l),
(293,513,l),
(368,707,l),
(452,707,l),
(376,513,l),
(588,513,l),
(664,707,l),
(747,707,l),
(671,513,l),
(809,513,l),
(796,434,l),
(641,434,l),
(578,273,l),
(723,273,l),
(709,195,l),
(548,195,l),
(472,0,l)
);
},
{
closed = 1;
nodes = (
(495,273,l),
(557,434,l),
(345,434,l),
(282,273,l)
);
}
);
width = 804;
},
{
layerId = "9F3B9F63-BB4B-4875-904D-0FA4124C677C";
shapes = (
{
closed = 1;
nodes = (
(381,0,l),
(464,212,l),
(233,212,l),
(151,0,l),
(98,0,l),
(180,212,l),
(41,212,l),
(49,260,l),
(199,260,l),
(267,433,l),
(116,433,l),
(123,482,l),
(286,482,l),
(368,694,l),
(422,694,l),
(339,482,l),
(569,482,l),
(652,694,l),
(705,694,l),
(622,482,l),
(765,482,l),
(758,433,l),
(603,433,l),
(536,260,l),
(690,260,l),
(682,212,l),
(517,212,l),
(435,0,l)
);
},
{
closed = 1;
nodes = (
(483,260,l),
(550,433,l),
(320,433,l),
(252,260,l)
);
}
);
width = 769;
}
);
unicode = 35;
}
{
glyphname = dollar;
layers = (
{
layerId = "006414F6-AB32-4F37-AE27-2ADC4DCE78FB";
shapes = (
{
closed = 1;
nodes = (
(203,-87,l),
(217,-9,l),
(104,4,o),
(25,66,o),
(25,175,cs),
(25,187,o),
(26,199,o),
(28,212,c),
(211,212,l),
(210,204,o),
(210,203,o),
(210,199,cs),
(210,172,o),
(221,152,o),
(243,141,c),
(269,290,l),
(256,295,o),
(242,300,o),
(227,305,cs),
(139,336,o),
(86,393,o),
(86,474,cs),
(86,607,o),
(193,700,o),
(344,711,c),
(358,792,l),
(421,792,l),
(407,711,l),
(524,702,o),
(598,640,o),
(598,533,cs),
(598,522,o),
(597,513,o),
(596,502,c),
(411,502,l),
(412,509,o),
(412,510,o),
(412,518,cs),
(412,537,o),
(401,554,o),
(381,562,c),
(357,430,l),
(455,396,o),
(560,349,o),
(560,227,cs),
(560,85,o),
(439,-7,o),
(279,-12,c),
(266,-87,l)
);
},
{
closed = 1;
nodes = (
(318,565,l),
(287,557,o),
(271,535,o),
(271,507,cs),
(271,487,o),
(282,471,o),
(299,459,c)
);
},
{
closed = 1;
nodes = (
(305,132,l),
(345,139,o),
(373,165,o),
(373,204,cs),
(373,231,o),
(355,249,o),
(328,264,c)
);
}
);
width = 605;
},
{
layerId = "797178CA-EA28-4B78-93E8-321876F1BDF3";
shapes = (
{
closed = 1;
nodes = (
(192,-87,l),
(206,-8,l),
(99,10,o),
(31,75,o),
(31,170,cs),
(31,183,o),
(32,196,o),
(35,211,c),
(127,211,l),
(126,200,o),
(125,192,o),
(125,183,cs),
(125,127,o),
(159,85,o),
(219,70,c),
(265,331,l),
(205,351,o),
(154,386,o),
(150,453,c),
(125,502,o),
(123,552,o),
(150,600,c),
(177,663,o),
(244,704,o),
(333,711,c),
(347,791,l),
(415,791,l),
(401,709,l),
(498,695,o),
(561,634,o),
(561,549,cs),
(561,538,o),
(560,527,o),
(557,517,c),
(465,517,l),
(466,524,o),
(467,530,o),
(467,536,cs),
(467,578,o),
(442,619,o),
(387,632,c),
(346,397,l),
(437,365,o),
(526,326,o),
(526,212,cs),
(526,81,o),
(424,-8,o),
(274,-12,c),
(260,-87,l)
);
},
{
closed = 1;
nodes = (
(319,635,l),
(248,625,o),
(203,579,o),
(203,514,cs),
(203,468,o),
(234,443,o),
(282,423,c)
);
},
{
closed = 1;
nodes = (
(287,63,l),
(382,68,o),
(432,121,o),
(432,200,cs),
(432,260,o),
(387,286,o),
(330,308,c)
);
}
);
width = 578;
},
{
layerId = "9F3B9F63-BB4B-4875-904D-0FA4124C677C";
shapes = (
{
closed = 1;
nodes = (
(187,-87,l),
(201,-7,l),
(97,12,o),
(33,79,o),
(33,168,cs),
(33,181,o),
(35,195,o),
(38,210,c),
(94,210,l),
(92,199,o),
(91,188,o),
(91,177,cs),
(91,109,o),
(134,58,o),
(210,41,c),
(264,348,l),
(185,374,o),
(119,421,o),
(119,512,c),
(120,569,o),
(138,615,o),
(176,651,cs),
(213,686,o),
(264,706,o),
(328,711,c),
(342,791,l),
(413,791,l),
(399,708,l),
(487,692,o),
(546,632,o),
(546,555,cs),
(546,544,o),
(545,533,o),
(542,523,c),
(487,523,l),
(488,530,o),
(489,538,o),
(489,543,cs),
(489,594,o),
(458,645,o),
(390,660,c),
(342,384,l),
(430,352,o),
(512,317,o),
(512,206,cs),
(512,79,o),
(418,-9,o),
(272,-12,c),
(258,-87,l)
);
},
{
closed = 1;
nodes = (
(320,663,l),
(232,652,o),
(176,596,o),
(176,517,cs),
(176,460,o),
(215,432,o),
(275,409,c)
);
},
{
closed = 1;
nodes = (
(280,35,l),
(397,40,o),
(455,103,o),
(455,199,cs),
(455,272,o),
(400,301,o),
(331,325,c)
);
}
);
width = 567;
}
);
leftKerningGroup = S2;
rightKerningGroup = S;
unicode = 36;
}
{
glyphname = percent;
layers = (
{
layerId = "2916D4A4-8684-4E16-97E6-1E1555060A99";
shapes = (
{
closed = 1;
nodes = (
(207,338,o),
(148,359,o),
(105,399,o),
(80,455,o),
(80,489,qs),
(80,537,o),
(113,618,o),
(170,678,o),
(249,712,o),
(295,712,qs),
(329,712,o),
(387,691,o),
(430,652,o),
(454,596,o),
(454,561,qs),
(454,513,o),
(422,432,o),
(365,372,o),
(287,338,o),
(241,338,qs)
);
},
{
closed = 1;
nodes = (
(160,0,l),
(667,700,l),
(832,700,l),
(325,0,l)
);
},
{
closed = 1;
nodes = (
(268,450,o),
(293,465,o),
(312,492,o),
(323,528,o),
(323,549,qs),
(323,575,o),
(302,601,o),
(280,601,qs),
(265,601,o),
(240,586,o),
(222,559,o),
(211,522,o),
(211,501,qs),
(211,476,o),
(233,450,o),
(253,450,qs)
);
},
{
closed = 1;
nodes = (
(666,-12,o),
(608,9,o),
(564,48,o),
(539,104,o),
(539,139,qs),
(539,186,o),
(572,268,o),
(629,328,o),
(708,362,o),
(754,362,qs),
(788,362,o),
(846,341,o),
(889,302,o),
(914,246,o),
(914,211,qs),
(914,164,o),
(882,82,o),
(825,22,o),
(747,-12,o),
(700,-12,qs)
);
},
{
closed = 1;
nodes = (
(728,100,o),
(753,115,o),
(771,142,o),
(782,178,o),
(782,199,qs),
(782,225,o),
(761,251,o),
(739,251,qs),
(724,251,o),
(699,236,o),
(681,209,o),
(671,172,o),
(671,151,qs),
(671,125,o),
(692,100,o),
(713,100,qs)
);
}
);
width = 958;
},
{
layerId = "C58D79E9-5C27-47CF-BCFD-A6E10D98D405";
shapes = (
{
closed = 1;
nodes = (
(190,373,o),
(139,392,o),
(102,428,o),
(81,480,o),
(81,513,qs),
(81,553,o),
(111,625,o),
(163,679,o),
(232,711,o),
(272,711,qs),
(302,711,o),
(353,692,o),
(389,656,o),
(410,605,o),
(410,572,qs),
(410,531,o),
(380,459,o),
(329,405,o),
(260,373,o),
(220,373,qs)
);
},
{
closed = 1;
nodes = (
(91,0,l),
(620,700,l),
(707,700,l),
(179,0,l)
);
},
{
closed = 1;
nodes = (
(250,439,o),
(290,459,o),
(320,493,o),
(337,539,o),
(337,565,qs),
(337,607,o),
(295,647,o),
(264,647,qs),
(242,647,o),
(202,627,o),
(172,592,o),
(155,546,o),
(155,520,qs),
(155,478,o),
(197,439,o),
(228,439,qs)
);
},
{
closed = 1;
nodes = (
(502,-12,o),
(451,7,o),
(415,43,o),
(394,95,o),
(394,128,qs),
(394,169,o),
(424,241,o),
(476,295,o),
(545,326,o),
(585,326,qs),
(615,326,o),
(666,307,o),
(702,271,o),
(723,220,o),
(723,187,qs),
(723,147,o),
(693,74,o),
(642,20,o),
(572,-12,o),
(532,-12,qs)
);
},
{
closed = 1;
nodes = (
(564,54,o),
(603,74,o),
(632,108,o),
(649,154,o),
(649,180,qs),
(649,222,o),
(609,262,o),
(578,262,qs),
(555,262,o),
(515,242,o),
(485,207,o),
(468,161,o),
(468,135,qs),
(468,93,o),
(509,54,o),
(541,54,qs)
);
}
);
width = 768;
},
{
layerId = "13CE2B3A-5842-4154-B805-A41E50C98059";
shapes = (
{
closed = 1;
nodes = (
(182,387,o),
(134,406,o),
(100,440,o),
(81,491,o),
(81,522,qs),
(81,560,o),
(110,628,o),
(159,680,o),
(226,711,o),
(263,711,qs),
(292,711,o),
(339,693,o),
(373,658,o),
(392,608,o),
(392,576,qs),
(392,538,o),
(364,469,o),
(314,417,o),
(249,387,o),
(211,387,qs)
);
},
{
closed = 1;
nodes = (
(63,0,l),
(601,700,l),
(657,700,l),
(120,0,l)
);
},
{
closed = 1;
nodes = (
(243,434,o),
(288,456,o),
(322,493,o),
(342,544,o),
(342,572,qs),
(342,620,o),
(292,665,o),
(257,665,qs),
(232,665,o),
(186,643,o),
(152,605,o),
(132,555,o),
(132,527,qs),
(132,479,o),
(183,434,o),
(218,434,qs)
);
},
{
closed = 1;
nodes = (
(437,-12,o),
(389,6,o),
(355,41,o),
(336,91,o),
(336,123,qs),
(336,161,o),
(365,230,o),
(414,282,o),
(481,312,o),
(518,312,qs),
(547,312,o),
(594,294,o),
(627,259,o),
(646,210,o),
(646,178,qs),
(646,140,o),
(618,71,o),
(568,19,o),
(503,-12,o),
(465,-12,qs)
);
},
{
closed = 1;
nodes = (
(498,35,o),
(543,57,o),
(576,95,o),
(596,145,o),
(596,173,qs),
(596,221,o),
(547,266,o),
(512,266,qs),
(487,266,o),
(441,244,o),
(407,206,o),
(387,156,o),
(387,128,qs),
(387,80,o),
(437,35,o),
(472,35,qs)
);
}
);
width = 692;
}
);
leftKerningGroup = percent;
unicode = 37;
}
{
glyphname = ampersand;
layers = (
{
layerId = "2916D4A4-8684-4E16-97E6-1E1555060A99";
shapes = (
{
closed = 1;
nodes = (
(555,0,l),
(500,65,l),
(443,26,o),
(325,-11,o),
(256,-11,qs),
(145,-11,o),
(19,84,o),
(19,169,qs),
(19,210,o),
(47,282,o),
(97,342,o),
(167,391,o),
(208,409,q),
(191,435,o),
(177,480,o),
(177,504,qs),
(177,551,o),
(214,628,o),
(281,682,o),
(373,712,o),
(427,712,qs),
(474,712,o),
(544,689,o),
(591,650,o),
(614,597,o),
(614,567,qs),
(614,560,o),
(613,545,o),
(611,537,q),
(451,537,l),
(452,539,o),
(452,545,o),
(452,549,qs),
(452,569,o),
(424,589,o),
(404,589,qs),
(391,589,o),
(367,580,o),
(351,563,o),
(341,541,o),
(341,527,qs),
(341,509,o),
(361,466,o),
(381,441,q),
(521,276,l),
(533,293,o),
(557,328,o),
(568,347,qs),
(579,365,l),
(751,365,l),
(727,326,ls),
(698,278,o),
(641,200,o),
(612,168,q),
(754,0,l)
);
},
{
closed = 1;
nodes = (
(285,315,l),
(243,295,o),
(194,236,o),
(194,201,qs),
(194,169,o),
(242,127,o),
(290,127,qs),
(323,127,o),
(384,146,o),
(413,166,q)
);
}
);
width = 808;
},
{
layerId = "C58D79E9-5C27-47CF-BCFD-A6E10D98D405";
shapes = (
{
closed = 1;
nodes = (
(562,0,l),
(489,91,l),
(429,37,o),
(305,-12,o),
(233,-12,qs),
(135,-12,o),
(21,85,o),
(21,167,qs),
(21,210,o),
(50,285,o),
(103,348,o),
(178,397,o),
(224,414,q),
(203,445,o),
(182,497,o),
(182,526,qs),
(182,567,o),
(213,636,o),
(269,685,o),
(347,712,o),
(393,712,qs),
(429,712,o),
(486,693,o),
(526,659,o),
(548,613,o),
(548,585,qs),
(548,579,o),
(547,566,o),
(545,558,q),
(459,558,l),
(460,563,o),
(460,570,o),
(460,575,qs),
(460,608,o),
(416,643,o),
(381,643,qs),
(357,643,o),
(316,627,o),
(287,600,o),
(270,562,o),
(270,540,qs),
(270,514,o),
(295,461,o),
(320,430,qs),
(500,209,l),
(512,223,o),
(536,255,o),
(549,273,qs),
(615,363,l),
(707,363,l),
(626,248,ls),
(606,219,o),
(569,171,o),
(549,149,q),
(671,0,l)
);
},
{
closed = 1;
nodes = (
(268,361,l),
(198,334,o),
(111,244,o),
(111,180,qs),
(111,129,o),
(183,63,o),
(246,63,qs),
(301,63,o),
(393,103,o),
(441,147,q)
);
}
);
width = 724;
},
{
layerId = "13CE2B3A-5842-4154-B805-A41E50C98059";
shapes = (
{
closed = 1;
nodes = (
(565,0,l),
(484,101,l),
(423,41,o),
(297,-12,o),
(224,-12,qs),
(131,-12,o),
(22,85,o),
(22,166,qs),
(22,210,o),
(52,286,o),
(106,350,o),
(183,399,o),
(231,416,q),
(208,448,o),
(184,504,o),
(184,535,qs),
(184,574,o),
(213,639,o),
(265,686,o),
(337,712,o),
(380,712,qs),
(411,712,o),
(463,695,o),
(500,663,o),
(521,619,o),
(521,592,qs),
(521,587,o),
(520,574,o),
(518,567,q),
(462,567,l),
(463,572,o),
(463,580,o),
(463,585,qs),
(463,623,o),
(412,664,o),
(372,664,qs),
(344,664,o),
(296,646,o),
(261,614,o),
(241,571,o),
(241,545,qs),
(241,516,o),
(269,459,o),
(295,426,qs),
(492,182,l),
(503,195,o),
(528,226,o),
(541,243,qs),
(630,362,l),
(690,362,l),
(585,217,ls),
(569,196,o),
(539,159,o),
(524,142,q),
(638,0,l)
);
},
{
closed = 1;
nodes = (
(261,379,l),
(180,350,o),
(78,247,o),
(78,172,qs),
(78,112,o),
(160,37,o),
(229,37,qs),
(292,37,o),
(398,86,o),
(452,140,q)
);
}
);
width = 690;
}
);
unicode = 38;
}
{
glyphname = quotesingle;
layers = (
{
layerId = "79854D6D-25E7-4737-919A-271E0ABD7EDC";
shapes = (
{
closed = 1;
nodes = (
(53,534,l),
(40,755,l),
(181,755,l),
(168,534,l)
);
}
);
width = 221;
},
{
layerId = "B1C61474-62B7-484B-9764-E73F45C0DC6D";
shapes = (
{
closed = 1;
nodes = (
(49,557,l),
(38,755,l),
(123,755,l),
(111,557,l)
);
}
);
width = 160;
},
{
layerId = "617CD1A0-F923-462F-B4E4-BD0161ABA38E";
shapes = (
{
closed = 1;
nodes = (
(48,566,l),
(37,755,l),
(100,755,l),
(88,566,l)
);
}
);
width = 136;
}
);
leftKerningGroup = quotedbl2;
rightKerningGroup = quotedbl;
unicode = 39;
}
{
glyphname = parenleft;
layers = (
{
layerId = "84C8819D-02E3-4D9D-80EE-F3CA29327F71";
shapes = (
{
closed = 1;
nodes = (
(156,-145,l),
(84,-53,o),
(42,80,o),
(42,219,cs),
(42,435,o),
(149,657,o),
(324,811,c),
(493,811,l),
(491,795,l),
(312,627,o),
(211,434,o),
(211,239,cs),
(211,110,o),
(252,-24,o),
(328,-129,c),
(325,-145,l)
);
}
);
width = 415;
},
{
layerId = "44586365-17B2-4B09-91E8-CEE5E00BC966";
shapes = (
{
closed = 1;
nodes = (
(170,-145,l),
(98,-62,o),
(44,63,o),
(44,215,cs),
(44,436,o),
(160,666,o),
(339,811,c),
(429,811,l),
(427,802,l),
(241,646,o),
(132,433,o),
(132,227,cs),
(132,86,o),
(183,-40,o),
(262,-136,c),
(261,-145,l)
);
}
);
width = 361;
},
{
layerId = "EC825F25-5E21-4444-B100-FC828A5BE381";
shapes = (
{
closed = 1;
nodes = (
(176,-145,l),
(104,-65,o),
(45,56,o),
(45,213,cs),
(45,437,o),
(164,670,o),
(345,811,c),
(403,811,l),
(402,805,l),
(213,653,o),
(101,433,o),
(101,222,cs),
(101,77,o),
(155,-47,o),
(236,-139,c),
(235,-145,l)
);
}
);
width = 339;
}
);
unicode = 40;
}
{
glyphname = asterisk;
layers = (
{
layerId = "84C8819D-02E3-4D9D-80EE-F3CA29327F71";
shapes = (
{
closed = 1;
nodes = (
(218,360,l),
(264,490,l),
(150,401,l),
(107,509,l),
(237,552,l),
(123,592,l),
(198,695,l),
(286,608,l),
(284,740,l),
(403,740,l),
(354,608,l),
(472,695,l),
(511,593,l),
(381,550,l),
(497,508,l),
(418,402,l),
(333,490,l),
(335,360,l)
);
}
);
width = 522;
},
{
layerId = "44586365-17B2-4B09-91E8-CEE5E00BC966";
shapes = (
{
closed = 1;
nodes = (
(214,360,l),
(253,512,l),
(115,425,l),
(90,488,l),
(239,548,l),
(112,608,l),
(157,668,l),
(267,581,l),
(280,734,l),
(349,734,l),
(308,581,l),
(446,667,l),
(470,608,l),
(320,548,l),
(448,487,l),
(404,426,l),
(294,512,l),
(283,360,l)
);
}
);
width = 466;
},
{
layerId = "EC825F25-5E21-4444-B100-FC828A5BE381";
shapes = (
{
closed = 1;
nodes = (
(213,360,l),
(249,521,l),
(101,434,l),
(83,479,l),
(240,546,l),
(108,614,l),
(140,657,l),
(259,570,l),
(279,731,l),
(328,731,l),
(289,570,l),
(436,656,l),
(453,614,l),
(296,547,l),
(428,478,l),
(399,435,l),
(279,521,l),
(262,360,l)
);
}
);
width = 443;
}
);
unicode = 42;
}
{
glyphname = plus;
layers = (
{
layerId = "84C8819D-02E3-4D9D-80EE-F3CA29327F71";
shapes = (
{
closed = 1;
nodes = (
(194,54,l),
(223,218,l),
(39,218,l),
(64,360,l),
(248,360,l),
(277,524,l),
(419,524,l),
(390,360,l),
(574,360,l),
(549,218,l),
(365,218,l),
(336,54,l)
);
}
);
width = 598;
},
{
layerId = "44586365-17B2-4B09-91E8-CEE5E00BC966";
shapes = (
{
closed = 1;
nodes = (
(215,71,l),
(247,253,l),
(56,253,l),
(69,327,l),
(260,327,l),
(292,508,l),
(371,508,l),
(339,327,l),
(529,327,l),
(516,253,l),
(326,253,l),
(294,71,l)
);
}
);
width = 571;
},
{
layerId = "EC825F25-5E21-4444-B100-FC828A5BE381";
shapes = (
{
closed = 1;
nodes = (
(223,78,l),
(256,267,l),
(63,267,l),
(71,314,l),
(265,314,l),
(298,502,l),
(352,502,l),
(318,314,l),
(511,314,l),
(503,267,l),
(310,267,l),
(277,78,l)
);
}
);
width = 560;
}
);
unicode = 43;
}
{
glyphname = comma;
layers = (
{
layerId = "6381F42F-F1FF-4F15-8745-0EB25D66EBC4";
name = "#instance";
shapes = (
{
closed = 1;
nodes = (
(-70,-119,l),
(28,105,l),
(118,105,l),
(-9,-119,l)
);
}
);
width = 168;
},
{
layerId = "84C8819D-02E3-4D9D-80EE-F3CA29327F71";
shapes = (
{
closed = 1;
nodes = (
(-46,-113,l),
(59,164,l),
(219,164,l),
(63,-113,l)
);
}
);
width = 272;
},
{
layerId = "44586365-17B2-4B09-91E8-CEE5E00BC966";
shapes = (
{
closed = 1;
nodes = (
(-70,-119,l),
(28,105,l),
(118,105,l),
(-9,-119,l)
);
}
);
width = 168;
},
{
layerId = "EC825F25-5E21-4444-B100-FC828A5BE381";
shapes = (
{
closed = 1;
nodes = (
(-80,-121,l),
(15,81,l),
(77,81,l),
(-39,-121,l)
);
}
);
width = 127;
}
);
unicode = 44;
}
{
glyphname = hyphen;
layers = (
{
layerId = "006414F6-AB32-4F37-AE27-2ADC4DCE78FB";
shapes = (
{
closed = 1;
nodes = (
(39,218,l),
(64,360,l),
(504,360,l),
(479,218,l)
);
}
);
width = 528;
},
{
layerId = "797178CA-EA28-4B78-93E8-321876F1BDF3";
shapes = (
{
closed = 1;
nodes = (
(53,253,l),
(65,328,l),
(463,328,l),
(450,253,l)
);
}
);
width = 501;
},
{
layerId = "9F3B9F63-BB4B-4875-904D-0FA4124C677C";
shapes = (
{
closed = 1;
nodes = (
(58,267,l),
(65,315,l),
(447,315,l),
(439,267,l)
);
}
);
width = 490;
}
);
leftKerningGroup = minus2;
rightKerningGroup = minus;
unicode = 45;
}
{
glyphname = period;
layers = (
{
layerId = "006414F6-AB32-4F37-AE27-2ADC4DCE78FB";
shapes = (
{
closed = 1;
nodes = (
(48,-8,o),
(7,33,o),
(7,84,cs),
(7,137,o),
(48,178,o),
(109,178,cs),
(169,178,o),
(210,137,o),
(210,84,cs),
(210,33,o),
(169,-8,o),
(109,-8,cs)
);
}
);
width = 274;
},
{
layerId = "797178CA-EA28-4B78-93E8-321876F1BDF3";
shapes = (
{
closed = 1;
nodes = (
(25,-6,o),
(0,20,o),
(0,54,cs),
(0,87,o),
(25,112,o),
(59,112,cs),
(94,112,o),
(119,87,o),
(119,54,cs),
(119,20,o),
(94,-6,o),
(59,-6,cs)
);
}
);
width = 186;
},
{
layerId = "9F3B9F63-BB4B-4875-904D-0FA4124C677C";
shapes = (
{
closed = 1;
nodes = (
(15,-5,o),
(-4,15,o),
(-4,42,cs),
(-4,67,o),
(15,86,o),
(39,86,cs),
(63,86,o),
(82,67,o),
(82,42,cs),
(82,15,o),
(63,-5,o),
(39,-5,cs)
);
}
);
width = 151;
}
);
leftKerningGroup = period2;
rightKerningGroup = period;
unicode = 46;
}
{
glyphname = slash;
layers = (
{
layerId = "79854D6D-25E7-4737-919A-271E0ABD7EDC";
shapes = (
{
closed = 1;
nodes = (
(18,-127,l),
(267,790,l),
(432,790,l),
(183,-127,l)
);
}
);
width = 450;
},
{
layerId = "B1C61474-62B7-484B-9764-E73F45C0DC6D";
shapes = (
{
closed = 1;
nodes = (
(28,-97,l),
(278,766,l),
(366,766,l),
(114,-97,l)
);
}
);
width = 394;
},
{
layerId = "617CD1A0-F923-462F-B4E4-BD0161ABA38E";
shapes = (
{
closed = 1;
nodes = (
(32,-85,l),
(283,756,l),
(339,756,l),
(87,-85,l)
);
}
);
width = 371;
}
);
unicode = 47;
}
{
glyphname = zero;
layers = (
{
layerId = "006414F6-AB32-4F37-AE27-2ADC4DCE78FB";
shapes = (
{
closed = 1;
nodes = (
(146,-12,o),
(48,96,o),
(48,263,cs),
(48,515,o),
(215,712,o),
(436,712,cs),
(607,712,o),
(704,603,o),
(704,437,cs),
(704,185,o),
(537,-12,o),
(316,-12,cs)
);
},
{
closed = 1;
nodes = (
(445,143,o),
(528,265,o),
(528,413,cs),
(528,502,o),
(486,557,o),
(413,557,cs),
(309,557,o),
(224,436,o),
(224,287,cs),
(224,196,o),
(267,143,o),
(340,143,cs)
);
}
);
width = 716;
},
{
layerId = "797178CA-EA28-4B78-93E8-321876F1BDF3";
shapes = (
{
closed = 1;
nodes = (
(141,-12,o),
(51,96,o),
(51,259,cs),
(51,514,o),
(212,712,o),
(422,712,cs),
(579,712,o),
(669,603,o),
(669,441,cs),
(669,184,o),
(508,-12,o),
(298,-12,cs)
);
},
{
closed = 1;
nodes = (
(456,66,o),
(577,231,o),
(577,430,cs),
(577,559,o),
(512,633,o),
(410,633,cs),
(263,633,o),
(142,470,o),
(142,270,cs),
(142,141,o),
(208,66,o),
(310,66,cs)
);
}
);
width = 684;
},
{
layerId = "9F3B9F63-BB4B-4875-904D-0FA4124C677C";
shapes = (
{
closed = 1;
nodes = (
(139,-12,o),
(52,96,o),
(52,257,cs),
(52,514,o),
(211,712,o),
(416,712,cs),
(568,712,o),
(655,603,o),
(655,443,cs),
(655,183,o),
(496,-12,o),
(291,-12,cs)
);
},
{
closed = 1;
nodes = (
(460,35,o),
(597,217,o),
(597,437,cs),
(597,582,o),
(522,664,o),
(409,664,cs),
(245,664,o),
(109,483,o),
(109,263,cs),
(109,119,o),
(185,35,o),
(298,35,cs)
);
}
);
width = 671;
}
);
unicode = 48;
}
{
glyphname = one;
layers = (
{
layerId = "006414F6-AB32-4F37-AE27-2ADC4DCE78FB";
shapes = (
{
closed = 1;
nodes = (
(96,0,l),
(184,502,l),
(60,470,l),
(85,612,l),
(297,700,l),
(397,700,l),
(274,0,l)
);
}
);
width = 374;
},
{
layerId = "797178CA-EA28-4B78-93E8-321876F1BDF3";
shapes = (
{
closed = 1;
nodes = (
(92,0,l),
(198,601,l),
(80,571,l),
(92,638,l),
(247,700,l),
(306,700,l),
(183,0,l)
);
}
);
width = 293;
},
{
layerId = "9F3B9F63-BB4B-4875-904D-0FA4124C677C";
shapes = (
{
closed = 1;
nodes = (
(91,0,l),
(204,641,l),
(88,611,l),
(95,648,l),
(227,700,l),
(270,700,l),
(146,0,l)
);
}
);
width = 260;
}
);
unicode = 49;
}
{
glyphname = two;
layers = (
{
layerId = "2916D4A4-8684-4E16-97E6-1E1555060A99";
shapes = (
{
closed = 1;
nodes = (
(-1,0,l),
(21,127,l),
(90,177,o),
(225,276,o),
(331,372,o),
(397,465,o),
(397,508,qs),
(397,520,o),
(390,542,o),
(375,559,o),
(351,568,o),
(335,568,qs),
(316,568,o),
(282,554,o),
(257,528,o),
(239,492,o),
(235,471,q),
(70,471,l),
(83,531,o),
(137,622,o),
(212,682,o),
(304,712,o),
(355,712,qs),
(408,712,o),
(489,684,o),
(544,635,o),
(572,569,o),
(572,531,qs),
(572,468,o),
(505,352,o),
(408,252,o),
(298,169,o),
(256,139,q),
(526,139,l),
(501,0,l)
);
}
);
width = 569;
},
{
layerId = "C58D79E9-5C27-47CF-BCFD-A6E10D98D405";
shapes = (
{
closed = 1;
nodes = (
(13,0,l),
(24,62,l),
(133,138,o),
(289,266,o),
(390,379,o),
(438,480,o),
(438,528,qs),
(438,549,o),
(426,588,o),
(401,618,o),
(359,637,o),
(329,637,qs),
(296,637,o),
(242,613,o),
(201,573,o),
(176,520,o),
(171,491,q),
(86,491,l),
(96,544,o),
(143,626,o),
(209,682,o),
(292,712,o),
(339,712,qs),
(381,712,o),
(451,687,o),
(500,642,o),
(528,577,o),
(528,537,qs),
(528,482,o),
(484,376,o),
(393,264,o),
(252,143,o),
(155,73,q),
(490,73,l),
(477,0,l)
);
}
);
width = 560;
},
{
layerId = "13CE2B3A-5842-4154-B805-A41E50C98059";
shapes = (
{
closed = 1;
nodes = (
(19,0,l),
(25,36,l),
(150,122,o),
(315,263,o),
(414,382,o),
(455,486,o),
(455,536,qs),
(455,560,o),
(442,606,o),
(411,643,o),
(362,665,o),
(326,665,qs),
(287,665,o),
(225,637,o),
(179,591,o),
(151,531,o),
(146,499,q),
(92,499,l),
(101,548,o),
(145,627,o),
(208,682,o),
(287,712,o),
(332,712,qs),
(370,712,o),
(435,689,o),
(483,645,o),
(510,581,o),
(510,540,qs),
(510,488,o),
(476,385,o),
(387,269,o),
(234,133,o),
(115,47,q),
(475,47,l),
(467,0,l)
);
}
);
width = 556;
}
);
unicode = 50;
}
{
glyphname = three;
layers = (
{
layerId = "006414F6-AB32-4F37-AE27-2ADC4DCE78FB";
shapes = (
{
closed = 1;
nodes = (
(120,-6,o),
(34,52,o),
(34,185,cs),
(34,200,o),
(35,215,o),
(37,231,c),
(201,231,l),
(198,223,o),
(199,215,o),
(199,208,cs),
(199,164,o),
(229,136,o),
(280,136,cs),
(347,136,o),
(387,182,o),
(387,250,cs),
(387,301,o),
(354,334,o),
(294,334,cs),
(196,334,l),
(215,444,l),
(368,553,l),
(129,553,l),
(155,700,l),
(609,700,l),
(587,574,l),
(395,435,l),
(395,435,l),
(481,415,o),
(547,350,o),
(547,264,cs),
(547,104,o),
(423,-6,o),
(255,-6,cs)
);
}
);
width = 599;
},
{
layerId = "797178CA-EA28-4B78-93E8-321876F1BDF3";
shapes = (
{
closed = 1;
nodes = (
(114,-5,o),
(36,57,o),
(36,178,cs),
(36,188,o),
(36,198,o),
(37,209,c),
(121,209,l),
(119,200,o),
(119,189,o),
(119,182,cs),
(119,115,o),
(169,69,o),
(254,69,cs),
(363,69,o),
(436,147,o),
(436,252,cs),
(436,329,o),
(392,369,o),
(305,369,cs),
(201,369,l),
(212,430,l),
(447,624,l),
(149,624,l),
(163,700,l),
(575,700,l),
(563,635,l),
(318,431,l),
(338,431,l),
(451,426,o),
(519,360,o),
(519,258,cs),
(519,102,o),
(404,-5,o),
(241,-5,cs)
);
}
);
width = 574;
},
{
layerId = "9F3B9F63-BB4B-4875-904D-0FA4124C677C";
shapes = (
{
closed = 1;
nodes = (
(111,-5,o),
(37,59,o),
(37,175,cs),
(37,183,o),
(36,191,o),
(37,200,c),
(89,200,l),
(88,191,o),
(87,179,o),
(87,171,cs),
(87,95,o),
(145,42,o),
(244,42,cs),
(370,42,o),
(455,133,o),
(455,253,cs),
(455,340,o),
(407,383,o),
(310,383,cs),
(203,383,l),
(211,425,l),
(478,652,l),
(157,652,l),
(166,700,l),
(561,700,l),
(553,659,l),
(287,430,l),
(315,430,ls),
(439,430,o),
(508,364,o),
(508,256,cs),
(508,101,o),
(396,-5,o),
(236,-5,cs)
);
}
);
width = 564;
}
);
unicode = 51;
}
{
glyphname = four;
layers = (
{
layerId = "79854D6D-25E7-4737-919A-271E0ABD7EDC";
shapes = (
{
closed = 1;
nodes = (
(555,0,l),
(555,110,l),
(637,110,l),
(637,258,l),
(555,258,l),
(555,423,l),
(396,423,l),
(396,258,l),
(228,258,l),
(513,700,l),
(334,700,l),
(48,248,l),
(48,110,l),
(384,110,l),
(384,0,l)
);
}
);
width = 684;
},
{
layerId = "B1C61474-62B7-484B-9764-E73F45C0DC6D";
shapes = (
{
closed = 1;
nodes = (
(489,0,l),
(489,144,l),
(586,144,l),
(586,220,l),
(489,220,l),
(489,423,l),
(407,423,l),
(407,220,l),
(143,220,l),
(451,700,l),
(356,700,l),
(48,213,l),
(48,144,l),
(402,144,l),
(402,0,l)
);
}
);
width = 634;
},
{
layerId = "617CD1A0-F923-462F-B4E4-BD0161ABA38E";
shapes = (
{
closed = 1;
nodes = (
(462,0,l),
(462,157,l),
(565,157,l),
(565,205,l),
(462,205,l),
(462,423,l),
(411,423,l),
(411,205,l),
(109,205,l),
(426,700,l),
(365,700,l),
(48,199,l),
(48,157,l),
(409,157,l),
(409,0,l)
);
}
);
width = 614;
}
);
unicode = 52;
}
{
glyphname = five;
layers = (
{
layerId = "006414F6-AB32-4F37-AE27-2ADC4DCE78FB";
shapes = (
{
closed = 1;
nodes = (
(125,-12,o),
(46,64,o),
(46,174,cs),
(46,185,o),
(47,194,o),
(48,205,c),
(215,205,l),
(215,162,o),
(249,133,o),
(296,133,cs),
(365,133,o),
(413,191,o),
(413,261,cs),
(413,312,o),
(384,344,o),
(337,344,cs),
(292,344,o),
(251,316,o),
(235,284,c),
(70,284,l),
(203,700,l),
(610,700,l),
(584,550,l),
(302,550,l),
(259,438,l),
(291,463,o),
(339,481,o),
(394,481,cs),
(530,481,o),
(581,385,o),
(581,289,cs),
(581,114,o),
(447,-12,o),
(273,-12,cs)
);
}
);
width = 617;
},
{
layerId = "797178CA-EA28-4B78-93E8-321876F1BDF3";
shapes = (
{
closed = 1;
nodes = (
(133,-12,o),
(50,60,o),
(45,165,c),
(45,174,o),
(45,181,o),
(46,189,c),
(132,189,l),
(134,113,o),
(192,63,o),
(273,63,cs),
(381,63,o),
(466,149,o),
(466,266,cs),
(466,346,o),
(414,407,o),
(335,407,cs),
(259,407,o),
(199,370,o),
(165,314,c),
(81,314,l),
(209,700,l),
(579,700,l),
(565,623,l),
(263,623,l),
(186,415,l),
(226,453,o),
(282,481,o),
(355,481,cs),
(475,481,o),
(552,391,o),
(552,280,cs),
(552,113,o),
(424,-12,o),
(262,-12,cs)
);
}
);
width = 599;
},
{
layerId = "9F3B9F63-BB4B-4875-904D-0FA4124C677C";
shapes = (
{
closed = 1;
nodes = (
(136,-12,o),
(52,58,o),
(45,162,c),
(45,169,o),
(44,176,o),
(45,183,c),
(99,183,l),
(102,94,o),
(169,35,o),
(264,35,cs),
(387,35,o),
(487,132,o),
(487,268,cs),
(487,360,o),
(426,432,o),
(334,432,cs),
(246,432,o),
(178,391,o),
(137,326,c),
(85,326,l),
(211,700,l),
(566,700,l),
(557,652,l),
(247,652,l),
(157,406,l),
(200,449,o),
(259,481,o),
(339,481,cs),
(453,481,o),
(540,393,o),
(540,276,cs),
(540,112,o),
(415,-12,o),
(258,-12,cs)
);
}
);
width = 592;
}
);
unicode = 53;
}
{
glyphname = six;
layers = (
{
layerId = "84C8819D-02E3-4D9D-80EE-F3CA29327F71";
shapes = (
{
closed = 1;
nodes = (
(414,-12,o),
(545,92,o),
(565,247,c),
(585,384,o),
(508,464,o),
(386,464,cs),
(352,464,o),
(319,454,o),
(284,445,c),
(281,394,l),
(552,700,l),
(364,700,l),
(166,467,ls),
(93,383,o),
(52,307,o),
(43,226,c),
(23,86,o),
(111,-12,o),
(262,-12,cs)
);
},
{
closed = 1;
nodes = (
(227,131,o),
(196,169,o),
(205,228,c),
(213,293,o),
(259,337,o),
(323,337,cs),
(382,337,o),
(413,299,o),
(405,240,cs),
(396,174,o),
(350,131,o),
(287,131,cs)
);
}
);
width = 616;
},
{
layerId = "44586365-17B2-4B09-91E8-CEE5E00BC966";
shapes = (
{
closed = 1;
nodes = (
(395,-11,o),
(513,93,o),
(534,241,cs),
(554,377,o),
(476,467,o),
(342,467,cs),
(298,467,o),
(250,452,o),
(214,433,c),
(210,405,l),
(466,701,l),
(366,701,l),
(147,444,ls),
(88,375,o),
(47,304,o),
(37,225,c),
(17,92,o),
(94,-11,o),
(243,-11,cs)
);
},
{
closed = 1;
nodes = (
(161,67,o),
(108,129,o),
(123,226,cs),
(137,327,o),
(213,397,o),
(317,397,cs),
(412,397,o),
(462,333,o),
(448,237,cs),
(432,133,o),
(358,67,o),
(257,67,cs)
);
}
);
width = 580;
},
{
layerId = "EC825F25-5E21-4444-B100-FC828A5BE381";
shapes = (
{
closed = 1;
nodes = (
(388,-10,o),
(500,94,o),
(521,238,cs),
(541,374,o),
(463,468,o),
(325,468,cs),
(277,468,o),
(223,451,o),
(186,428,c),
(181,409,l),
(432,702,l),
(367,702,l),
(140,435,ls),
(86,372,o),
(45,303,o),
(35,224,c),
(15,94,o),
(87,-10,o),
(236,-10,cs)
);
},
{
closed = 1;
nodes = (
(134,41,o),
(73,113,o),
(90,225,cs),
(107,340,o),
(195,421,o),
(314,421,cs),
(424,421,o),
(482,346,o),
(465,236,cs),
(447,117,o),
(361,41,o),
(245,41,cs)
);
}
);
width = 566;
}
);
unicode = 54;
}
{
glyphname = seven;
layers = (
{
layerId = "79854D6D-25E7-4737-919A-271E0ABD7EDC";
shapes = (
{
closed = 1;
nodes = (
(85,0,l),
(335,554,l),
(28,554,l),
(28,700,l),
(511,700,l),
(511,582,l),
(260,0,l)
);
}
);
width = 535;
},
{
layerId = "B1C61474-62B7-484B-9764-E73F45C0DC6D";
shapes = (
{
closed = 1;
nodes = (
(130,0,l),
(406,625,l),
(27,625,l),
(27,700,l),
(497,700,l),
(497,635,l),
(223,0,l)
);
}
);
width = 534;
},
{
layerId = "617CD1A0-F923-462F-B4E4-BD0161ABA38E";
shapes = (
{
closed = 1;
nodes = (
(148,0,l),
(435,653,l),
(26,653,l),
(26,700,l),
(492,700,l),
(492,656,l),
(208,0,l)
);
}
);
width = 533;
}
);
unicode = 55;
}
{
glyphname = eight;
layers = (
{
layerId = "2916D4A4-8684-4E16-97E6-1E1555060A99";
shapes = (
{
closed = 1;
nodes = (
(221,-12,o),
(135,12,o),
(73,59,o),
(38,129,o),
(38,175,qs),
(38,208,o),
(57,269,o),
(94,321,o),
(148,364,o),
(182,379,q),
(148,399,o),
(110,456,o),
(110,498,qs),
(110,545,o),
(155,623,o),
(233,680,o),
(340,712,o),
(401,712,qs),
(510,712,o),
(614,622,o),
(614,550,qs),
(614,517,o),
(591,462,o),
(555,419,o),
(513,388,o),
(493,379,q),
(535,358,o),
(577,285,o),
(577,234,qs),
(577,178,o),
(528,87,o),
(445,23,o),
(334,-12,o),
(272,-12,qs)
);
},
{
closed = 1;
nodes = (
(367,425,o),
(401,439,o),
(428,463,o),
(443,495,o),
(443,513,qs),
(443,528,o),
(433,551,o),
(414,567,o),
(388,576,o),
(372,576,qs),
(353,576,o),
(317,563,o),
(291,540,o),
(275,509,o),
(275,491,qs),
(275,476,o),
(285,452,o),
(304,435,o),
(331,425,o),
(347,425,qs)
);
},
{
closed = 1;
nodes = (
(318,128,o),
(360,144,o),
(392,173,o),
(410,211,o),
(410,232,qs),
(410,264,o),
(363,305,o),
(323,305,qs),
(300,305,o),
(258,289,o),
(227,262,o),
(208,225,o),
(208,204,qs),
(208,172,o),
(252,128,o),
(294,128,qs)
);
}
);
width = 630;
},
{
layerId = "C58D79E9-5C27-47CF-BCFD-A6E10D98D405";
shapes = (
{
closed = 1;
nodes = (
(209,-12,o),
(131,12,o),
(74,58,o),
(43,125,o),
(43,167,qs),
(43,205,o),
(69,271,o),
(116,325,o),
(180,363,o),
(218,373,q),
(171,390,o),
(121,461,o),
(121,504,qs),
(121,549,o),
(161,626,o),
(230,681,o),
(323,712,o),
(376,712,qs),
(468,712,o),
(568,623,o),
(568,550,qs),
(568,516,o),
(545,460,o),
(504,415,o),
(451,383,o),
(421,373,q),
(478,356,o),
(529,276,o),
(529,222,qs),
(529,168,o),
(485,82,o),
(411,21,o),
(312,-12,o),
(257,-12,qs)
);
},
{
closed = 1;
nodes = (
(357,404,o),
(410,420,o),
(452,454,o),
(478,505,o),
(478,539,qs),
(478,567,o),
(459,605,o),
(428,627,o),
(386,637,o),
(363,637,qs),
(330,637,o),
(275,618,o),
(234,583,o),
(211,534,o),
(211,504,qs),
(211,479,o),
(229,441,o),
(261,416,o),
(305,404,o),
(330,404,qs)
);
},
{
closed = 1;
nodes = (
(305,65,o),
(368,87,o),
(415,127,o),
(441,184,o),
(441,219,qs),
(441,276,o),
(368,331,o),
(310,331,qs),
(274,331,o),
(209,309,o),
(161,269,o),
(133,212,o),
(133,177,qs),
(133,124,o),
(204,65,o),
(268,65,qs)
);
}
);
width = 591;
},
{
layerId = "13CE2B3A-5842-4154-B805-A41E50C98059";
shapes = (
{
closed = 1;
nodes = (
(205,-12,o),
(129,12,o),
(75,58,o),
(45,123,o),
(45,164,qs),
(45,203,o),
(74,272,o),
(124,326,o),
(192,363,o),
(232,371,q),
(181,387,o),
(125,463,o),
(125,506,qs),
(125,551,o),
(163,627,o),
(229,681,o),
(317,712,o),
(366,712,qs),
(451,712,o),
(550,623,o),
(550,550,qs),
(550,516,o),
(526,459,o),
(484,414,o),
(426,381,o),
(392,371,q),
(455,356,o),
(510,272,o),
(510,217,qs),
(510,165,o),
(468,80,o),
(398,20,o),
(304,-12,o),
(251,-12,qs)
);
},
{
closed = 1;
nodes = (
(353,395,o),
(413,412,o),
(461,450,o),
(492,508,o),
(492,549,qs),
(492,583,o),
(470,626,o),
(433,651,o),
(386,661,o),
(360,661,qs),
(322,661,o),
(258,640,o),
(211,600,o),
(185,544,o),
(185,509,qs),
(185,479,o),
(206,436,o),
(244,408,o),
(294,395,o),
(323,395,qs)
);
},
{
closed = 1;
nodes = (
(300,40,o),
(372,64,o),
(424,109,o),
(453,174,o),
(453,214,qs),
(453,280,o),
(371,342,o),
(305,342,qs),
(263,342,o),
(190,318,o),
(135,272,o),
(103,207,o),
(103,166,qs),
(103,106,o),
(185,40,o),
(258,40,qs)
);
}
);
width = 575;
}
);
unicode = 56;
}
{
glyphname = nine;
layers = (
{
layerId = "84C8819D-02E3-4D9D-80EE-F3CA29327F71";
shapes = (
{
closed = 1;
nodes = (
(283,0,l),
(482,233,ls),
(554,318,o),
(595,393,o),
(605,474,c),
(624,615,o),
(536,712,o),
(385,712,cs),
(233,712,o),
(102,608,o),
(82,453,c),
(63,317,o),
(140,236,o),
(261,236,cs),
(296,236,o),
(329,246,o),
(363,255,c),
(367,306,l),
(96,0,l)
);
},
{
closed = 1;
nodes = (
(265,364,o),
(234,401,o),
(242,461,cs),
(251,526,o),
(297,569,o),
(361,569,cs),
(421,569,o),
(452,532,o),
(443,472,c),
(434,407,o),
(388,364,o),
(324,364,cs)
);
}
);
width = 615;
},
{
layerId = "44586365-17B2-4B09-91E8-CEE5E00BC966";
shapes = (
{
closed = 1;
nodes = (
(245,0,l),
(465,258,ls),
(524,327,o),
(566,398,o),
(575,476,c),
(595,609,o),
(518,712,o),
(368,712,cs),
(217,712,o),
(99,608,o),
(78,461,cs),
(59,325,o),
(136,235,o),
(269,235,cs),
(314,235,o),
(362,250,o),
(397,268,c),
(401,297,l),
(146,0,l)
);
},
{
closed = 1;
nodes = (
(199,305,o),
(149,369,o),
(163,465,cs),
(179,569,o),
(253,635,o),
(354,635,cs),
(452,635,o),
(504,573,o),
(489,476,cs),
(475,375,o),
(397,305,o),
(296,305,cs)
);
}
);
width = 580;
},
{
layerId = "EC825F25-5E21-4444-B100-FC828A5BE381";
shapes = (
{
closed = 1;
nodes = (
(230,0,l),
(458,268,ls),
(512,331,o),
(554,400,o),
(563,477,c),
(583,607,o),
(511,712,o),
(361,712,cs),
(210,712,o),
(98,608,o),
(77,464,cs),
(57,328,o),
(135,234,o),
(272,234,cs),
(321,234,o),
(375,251,o),
(411,273,c),
(415,294,l),
(166,0,l)
);
},
{
closed = 1;
nodes = (
(173,281,o),
(115,356,o),
(132,466,cs),
(150,586,o),
(235,661,o),
(351,661,cs),
(464,661,o),
(525,589,o),
(508,477,cs),
(491,362,o),
(401,281,o),
(285,281,cs)
);
}
);
width = 566;
}
);
unicode = 57;
}
{
glyphname = colon;
layers = (
{
layerId = "006414F6-AB32-4F37-AE27-2ADC4DCE78FB";
shapes = (
{
alignment = -1;
ref = period;
},
{
alignment = -1;
pos = (58,330);
ref = period;
}
);
width = 272;
},
{
layerId = "797178CA-EA28-4B78-93E8-321876F1BDF3";
shapes = (
{
closed = 1;
nodes = (
(25,-6,o),
(0,20,o),
(0,54,cs),
(0,87,o),
(25,112,o),
(59,112,cs),
(94,112,o),
(119,87,o),
(119,54,cs),
(119,20,o),
(94,-6,o),
(59,-6,cs)
);
},
{
closed = 1;
nodes = (
(94,390,o),
(69,416,o),
(69,450,cs),
(69,483,o),
(94,508,o),
(128,508,cs),
(163,508,o),
(188,483,o),
(188,450,cs),
(188,416,o),
(163,390,o),
(128,390,cs)
);
}
);
width = 188;
},
{
layerId = "9F3B9F63-BB4B-4875-904D-0FA4124C677C";
shapes = (
{
alignment = -1;
ref = period;
},
{
alignment = -1;
pos = (74,422);
ref = period;
}
);
width = 154;
}
);
unicode = 58;
}
{
glyphname = less;
layers = (
{
layerId = "006414F6-AB32-4F37-AE27-2ADC4DCE78FB";
shapes = (
{
closed = 1;
nodes = (
(244,129,l),
(80,350,l),
(322,571,l),
(537,571,l),
(294,350,l),
(459,129,l)
);
}
);
width = 530;
},
{
layerId = "797178CA-EA28-4B78-93E8-321876F1BDF3";
shapes = (
{
closed = 1;
nodes = (
(294,136,l),
(91,366,l),
(376,597,l),
(486,597,l),
(203,366,l),
(405,136,l)
);
}
);
width = 487;
},
{
layerId = "9F3B9F63-BB4B-4875-904D-0FA4124C677C";
shapes = (
{
closed = 1;
nodes = (
(314,139,l),
(96,373,l),
(397,607,l),
(466,607,l),
(166,373,l),
(384,139,l)
);
}
);
width = 470;
}
);
unicode = 60;
}
{
glyphname = equal;
layers = (
{
layerId = "006414F6-AB32-4F37-AE27-2ADC4DCE78FB";
shapes = (
{
closed = 1;
nodes = (
(63,331,l),
(90,482,l),
(540,482,l),
(513,331,l)
);
},
{
closed = 1;
nodes = (
(22,96,l),
(49,247,l),
(499,247,l),
(472,96,l)
);
}
);
width = 547;
},
{
layerId = "797178CA-EA28-4B78-93E8-321876F1BDF3";
shapes = (
{
closed = 1;
nodes = (
(76,357,l),
(89,433,l),
(489,433,l),
(477,357,l)
);
},
{
closed = 1;
nodes = (
(38,149,l),
(52,224,l),
(453,224,l),
(439,149,l)
);
}
);
width = 513;
},
{
layerId = "9F3B9F63-BB4B-4875-904D-0FA4124C677C";
shapes = (
{
closed = 1;
nodes = (
(81,368,l),
(88,414,l),
(469,414,l),
(462,368,l)
);
},
{
closed = 1;
nodes = (
(45,170,l),
(53,215,l),
(434,215,l),
(426,170,l)
);
}
);
width = 499;
}
);
unicode = 61;
}
{
glyphname = greater;
layers = (
{
layerId = "2916D4A4-8684-4E16-97E6-1E1555060A99";
shapes = (
{
closed = 1;
nodes = (
(29,129,l),
(272,350,l),
(107,571,l),
(322,571,l),
(486,350,l),
(244,129,l)
);
}
);
width = 530;
},
{
layerId = "C58D79E9-5C27-47CF-BCFD-A6E10D98D405";
shapes = (
{
closed = 1;
nodes = (
(43,136,l),
(326,366,l),
(123,597,l),
(234,597,l),
(436,366,l),
(153,136,l)
);
}
);
width = 485;
},
{
layerId = "13CE2B3A-5842-4154-B805-A41E50C98059";
shapes = (
{
closed = 1;
nodes = (
(48,139,l),
(348,373,l),
(130,607,l),
(199,607,l),
(416,373,l),
(117,139,l)
);
}
);
width = 467;
}
);
unicode = 62;
}
{
glyphname = question;
layers = (
{
layerId = "2916D4A4-8684-4E16-97E6-1E1555060A99";
shapes = (
{
closed = 1;
nodes = (
(116,239,l),
(140,409,l),
(200,409,ls),
(235,409,o),
(299,417,o),
(347,440,o),
(376,481,o),
(376,514,qs),
(376,541,o),
(344,572,o),
(315,572,qs),
(278,572,o),
(232,531,o),
(226,496,q),
(65,496,l),
(72,541,o),
(116,620,o),
(187,678,o),
(283,712,o),
(343,712,qs),
(436,712,o),
(545,619,o),
(545,535,qs),
(545,479,o),
(505,391,o),
(435,330,o),
(338,298,o),
(281,298,q),
(267,239,l)
);
},
{
closed = 1;
nodes = (
(122,-8,o),
(66,46,o),
(66,84,qs),
(66,124,o),
(122,178,o),
(168,178,qs),
(213,178,o),
(269,124,o),
(269,84,qs),
(269,46,o),
(213,-8,o),
(168,-8,qs)
);
}
);
width = 526;
},
{
layerId = "C58D79E9-5C27-47CF-BCFD-A6E10D98D405";
shapes = (
{
closed = 1;
nodes = (
(129,198,l),
(154,360,l),
(185,360,ls),
(237,360,o),
(325,377,o),
(388,416,o),
(424,481,o),
(424,530,qs),
(424,578,o),
(362,638,o),
(308,638,qs),
(245,638,o),
(161,571,o),
(149,511,q),
(66,511,l),
(75,556,o),
(119,631,o),
(186,683,o),
(272,712,o),
(321,712,qs),
(408,712,o),
(510,619,o),
(510,539,qs),
(510,481,o),
(468,392,o),
(393,331,o),
(289,299,o),
(226,299,q),
(205,198,l)
);
},
{
closed = 1;
nodes = (
(121,-6,o),
(87,28,o),
(87,54,qs),
(87,79,o),
(121,112,o),
(147,112,qs),
(173,112,o),
(207,79,o),
(207,54,qs),
(207,28,o),
(173,-6,o),
(147,-6,qs)
);
}
);
width = 502;
},
{
layerId = "13CE2B3A-5842-4154-B805-A41E50C98059";
shapes = (
{
closed = 1;
nodes = (
(134,182,l),
(159,340,l),
(179,340,ls),
(238,340,o),
(335,360,o),
(405,406,o),
(443,481,o),
(443,536,qs),
(443,593,o),
(369,664,o),
(305,664,qs),
(232,664,o),
(132,586,o),
(118,517,q),
(66,517,l),
(75,562,o),
(120,635,o),
(185,685,o),
(267,712,o),
(312,712,qs),
(397,712,o),
(496,619,o),
(496,540,qs),
(496,482,o),
(453,392,o),
(376,330,o),
(269,299,o),
(204,299,q),
(180,182,l)
);
},
{
closed = 1;
nodes = (
(120,-5,o),
(95,22,o),
(95,42,qs),
(95,61,o),
(120,86,o),
(138,86,qs),
(156,86,o),
(181,61,o),
(181,42,qs),
(181,22,o),
(156,-5,o),
(138,-5,qs)
);
}
);
width = 492;
}
);
unicode = 63;
}
{
glyphname = at;
layers = (
{
layerId = "2916D4A4-8684-4E16-97E6-1E1555060A99";
shapes = (
{
closed = 1;
nodes = (
(353,-225,o),
(213,-174,o),
(113,-81,o),
(59,51,o),
(59,133,qs),
(59,248,o),
(141,444,o),
(287,587,o),
(487,668,o),
(604,668,qs),
(694,668,o),
(837,616,o),
(938,522,o),
(992,392,o),
(992,313,qs),
(992,250,o),
(959,135,o),
(895,47,o),
(801,-5,o),
(739,-5,qs),
(685,-5,o),
(618,37,o),
(605,75,q),
(578,36,o),
(492,-7,o),
(438,-7,qs),
(363,-7,o),
(279,81,o),
(279,159,qs),
(279,214,o),
(313,315,o),
(374,393,o),
(459,439,o),
(511,439,qs),
(554,439,o),
(611,408,o),
(625,379,q),
(634,432,l),
(772,432,l),
(727,181,l),
(722,146,o),
(734,105,o),
(764,105,qs),
(790,105,o),
(827,142,o),
(851,201,o),
(863,273,o),
(863,308,qs),
(863,365,o),
(826,456,o),
(755,519,o),
(652,553,o),
(587,553,qs),
(502,553,o),
(355,490,o),
(248,380,o),
(187,232,o),
(187,146,qs),
(187,86,o),
(223,-9,o),
(292,-75,o),
(392,-109,o),
(456,-109,qs),
(504,-109,o),
(594,-90,o),
(632,-73,q),
(660,-182,l),
(609,-204,o),
(500,-225,o),
(440,-225,qs)
);
},
{
closed = 1;
nodes = (
(515,116,o),
(553,136,o),
(582,169,o),
(599,215,o),
(599,240,qs),
(599,257,o),
(590,285,o),
(572,306,o),
(546,317,o),
(529,317,qs),
(506,317,o),
(468,296,o),
(441,261,o),
(426,215,o),
(426,189,qs),
(426,157,o),
(460,116,o),
(493,116,qs)
);
}
);
width = 1060;
},
{
layerId = "C58D79E9-5C27-47CF-BCFD-A6E10D98D405";
shapes = (
{
closed = 1;
nodes = (
(338,-201,o),
(206,-154,o),
(112,-66,o),
(60,58,o),
(60,135,qs),
(60,242,o),
(135,427,o),
(269,564,o),
(453,642,o),
(562,642,qs),
(646,642,o),
(781,593,o),
(875,504,o),
(926,380,o),
(926,305,qs),
(926,247,o),
(898,135,o),
(843,48,o),
(763,-6,o),
(711,-6,qs),
(660,-6,o),
(609,46,o),
(605,91,q),
(574,45,o),
(480,-6,o),
(425,-6,qs),
(348,-6,o),
(265,86,o),
(265,164,qs),
(265,220,o),
(300,321,o),
(363,399,o),
(451,445,o),
(505,445,qs),
(554,445,o),
(620,405,o),
(636,365,q),
(648,433,l),
(723,433,l),
(673,150,ls),
(666,107,o),
(687,54,o),
(725,54,qs),
(757,54,o),
(806,100,o),
(839,172,o),
(856,260,o),
(856,301,qs),
(856,366,o),
(814,469,o),
(736,541,o),
(623,579,o),
(552,579,qs),
(461,579,o),
(307,511,o),
(195,393,o),
(131,235,o),
(131,144,qs),
(131,77,o),
(173,-29,o),
(251,-101,o),
(364,-138,o),
(434,-138,qs),
(478,-138,o),
(563,-121,o),
(601,-104,q),
(614,-163,l),
(569,-182,o),
(472,-201,o),
(419,-201,qs)
);
},
{
closed = 1;
nodes = (
(483,61,o),
(540,87,o),
(584,134,o),
(612,200,o),
(615,239,qs),
(618,268,o),
(608,319,o),
(581,356,o),
(538,378,o),
(508,378,qs),
(471,378,o),
(410,344,o),
(368,288,o),
(345,216,o),
(345,178,qs),
(345,124,o),
(399,61,o),
(452,61,qs)
);
}
);
width = 996;
},
{
layerId = "13CE2B3A-5842-4154-B805-A41E50C98059";
shapes = (
{
closed = 1;
nodes = (
(332,-191,o),
(203,-145,o),
(111,-60,o),
(60,61,o),
(60,136,qs),
(60,240,o),
(133,420,o),
(262,554,o),
(440,631,o),
(545,631,qs),
(627,631,o),
(758,583,o),
(850,496,o),
(900,375,o),
(900,302,qs),
(900,246,o),
(874,135,o),
(823,48,o),
(748,-6,o),
(700,-6,qs),
(649,-6,o),
(605,50,o),
(605,98,q),
(573,49,o),
(475,-6,o),
(420,-6,qs),
(342,-6,o),
(259,88,o),
(259,166,qs),
(259,222,o),
(294,323,o),
(358,401,o),
(448,447,o),
(503,447,qs),
(554,447,o),
(624,404,o),
(640,359,q),
(653,434,l),
(703,434,l),
(652,137,ls),
(644,91,o),
(667,34,o),
(709,34,qs),
(744,34,o),
(798,84,o),
(834,161,o),
(853,255,o),
(853,298,qs),
(853,366,o),
(810,475,o),
(728,550,o),
(612,590,o),
(538,590,qs),
(445,590,o),
(288,520,o),
(174,399,o),
(109,236,o),
(109,143,qs),
(109,73,o),
(153,-36,o),
(235,-111,o),
(352,-149,o),
(425,-149,qs),
(467,-149,o),
(551,-133,o),
(589,-116,q),
(596,-156,l),
(552,-173,o),
(460,-191,o),
(410,-191,qs)
);
},
{
closed = 1;
nodes = (
(471,39,o),
(534,68,o),
(584,120,o),
(617,193,o),
(621,238,q),
(626,272,o),
(615,331,o),
(585,376,o),
(534,402,o),
(499,402,qs),
(456,402,o),
(387,363,o),
(339,298,o),
(313,216,o),
(313,173,qs),
(313,112,o),
(375,39,o),
(436,39,qs)
);
}
);
width = 970;
}
);
unicode = 64;
}
{
glyphname = A;
layers = (
{
layerId = "006414F6-AB32-4F37-AE27-2ADC4DCE78FB";
shapes = (
{
closed = 1;
nodes = (
(-34,0,l),
(342,700,l),
(543,700,l),
(672,0,l),
(491,0,l),
(468,144,l),
(219,144,l),
(145,0,l)
);
},
{
closed = 1;
nodes = (
(448,274,l),
(410,513,l),
(286,274,l)
);
}
);
width = 726;
},
{
layerId = "797178CA-EA28-4B78-93E8-321876F1BDF3";
shapes = (
{
closed = 1;
nodes = (
(-22,0,l),
(360,700,l),
(454,700,l),
(587,0,l),
(496,0,l),
(463,178,l),
(167,178,l),
(73,0,l)
);
},
{
closed = 1;
nodes = (
(452,248,l),
(388,595,l),
(204,248,l)
);
}
);
width = 652;
},
{
layerId = "9F3B9F63-BB4B-4875-904D-0FA4124C677C";
shapes = (
{
closed = 1;
nodes = (
(-18,0,l),
(366,700,l),
(418,700,l),
(553,0,l),
(497,0,l),
(461,192,l),
(146,192,l),
(43,0,l)
);
},
{
closed = 1;
nodes = (
(453,237,l),
(379,628,l),
(170,237,l)
);
}
);
width = 623;
}
);
leftKerningGroup = A2;
rightKerningGroup = A;
unicode = 65;
}
{
glyphname = B;
layers = (
{
layerId = "2916D4A4-8684-4E16-97E6-1E1555060A99";
shapes = (
{
closed = 1;
nodes = (
(12,0,l),
(136,700,l),
(452,700,ls),
(500,700,o),
(574,680,o),
(625,640,o),
(651,583,o),
(651,545,qs),
(651,512,o),
(629,453,o),
(589,404,o),
(534,369,o),
(501,360,q),
(552,349,o),
(609,273,o),
(609,222,qs),
(609,171,o),
(567,88,o),
(494,31,o),
(395,0,o),
(339,0,qs)
);
},
{
closed = 1;
nodes = (
(257,417,l),
(368,417,ls),
(392,417,o),
(430,429,o),
(456,453,o),
(470,486,o),
(470,507,qs),
(470,538,o),
(433,567,o),
(395,566,qs),
(283,565,l)
);
},
{
closed = 1;
nodes = (
(207,136,l),
(333,136,ls),
(359,136,o),
(398,150,o),
(424,175,o),
(438,211,o),
(438,232,qs),
(438,261,o),
(397,294,o),
(359,294,qs),
(235,294,l)
);
}
);
width = 654;
},
{
layerId = "C58D79E9-5C27-47CF-BCFD-A6E10D98D405";
shapes = (
{
closed = 1;
nodes = (
(23,0,l),
(146,700,l),
(397,700,ls),
(445,700,o),
(517,677,o),
(564,637,o),
(587,583,o),
(587,551,qs),
(587,515,o),
(564,453,o),
(524,404,o),
(467,370,o),
(433,361,q),
(483,351,o),
(544,276,o),
(544,222,qs),
(544,173,o),
(503,91,o),
(431,32,o),
(335,0,o),
(281,0,qs)
);
},
{
closed = 1;
nodes = (
(182,394,l),
(335,394,ls),
(371,394,o),
(430,414,o),
(472,451,o),
(495,504,o),
(495,536,qs),
(495,581,o),
(436,630,o),
(373,630,qs),
(222,630,l)
);
},
{
closed = 1;
nodes = (
(124,71,l),
(283,71,ls),
(322,71,o),
(386,93,o),
(432,133,o),
(457,189,o),
(457,224,qs),
(457,272,o),
(388,325,o),
(325,325,qs),
(168,325,l)
);
}
);
width = 597;
},
{
layerId = "13CE2B3A-5842-4154-B805-A41E50C98059";
shapes = (
{
closed = 1;
nodes = (
(27,0,l),
(150,700,l),
(374,700,ls),
(423,700,o),
(493,676,o),
(539,636,o),
(561,583,o),
(561,553,qs),
(561,516,o),
(538,453,o),
(497,404,o),
(440,370,o),
(405,361,q),
(454,352,o),
(517,277,o),
(517,222,qs),
(517,173,o),
(476,92,o),
(405,33,o),
(311,0,o),
(257,0,qs)
);
},
{
closed = 1;
nodes = (
(151,385,l),
(321,385,ls),
(362,385,o),
(429,408,o),
(477,451,o),
(504,511,o),
(504,547,qs),
(504,598,o),
(436,655,o),
(364,656,q),
(197,656,l)
);
},
{
closed = 1;
nodes = (
(90,45,l),
(263,45,ls),
(307,45,o),
(381,70,o),
(434,116,o),
(464,181,o),
(464,221,qs),
(464,275,o),
(383,338,o),
(311,338,qs),
(141,338,l)
);
}
);
width = 574;
}
);
unicode = 66;
}
{
glyphname = C;
layers = (
{
layerId = "2916D4A4-8684-4E16-97E6-1E1555060A99";
shapes = (
{
closed = 1;
nodes = (
(268,-12,o),
(161,29,o),
(87,103,o),
(49,206,o),
(49,269,qs),
(49,364,o),
(112,526,o),
(224,645,o),
(376,712,o),
(464,712,qs),
(598,712,o),
(745,579,o),
(743,454,q),
(555,454,l),
(553,505,o),
(493,556,o),
(436,556,qs),
(390,556,o),
(313,516,o),
(257,445,o),
(225,348,o),
(225,291,qs),
(225,219,o),
(298,143,o),
(367,143,qs),
(424,143,o),
(497,188,o),
(516,233,q),
(704,233,l),
(684,175,o),
(613,83,o),
(518,21,o),
(403,-12,o),
(338,-12,qs)
);
}
);
width = 744;
},
{
layerId = "C58D79E9-5C27-47CF-BCFD-A6E10D98D405";
shapes = (
{
closed = 1;
nodes = (
(266,-12,o),
(162,29,o),
(90,102,o),
(52,205,o),
(52,268,qs),
(52,363,o),
(114,525,o),
(223,644,o),
(371,712,o),
(457,712,qs),
(578,712,o),
(710,597,o),
(713,492,q),
(613,492,l),
(611,558,o),
(528,634,o),
(444,634,qs),
(380,634,o),
(270,579,o),
(189,483,o),
(143,352,o),
(143,275,qs),
(143,175,o),
(249,66,o),
(345,66,qs),
(428,66,o),
(537,140,o),
(563,204,q),
(662,204,l),
(643,153,o),
(580,73,o),
(496,17,o),
(392,-12,o),
(332,-12,qs)
);
}
);
width = 709;
},
{
layerId = "13CE2B3A-5842-4154-B805-A41E50C98059";
shapes = (
{
closed = 1;
nodes = (
(264,-12,o),
(161,28,o),
(90,102,o),
(53,205,o),
(53,268,qs),
(53,362,o),
(114,524,o),
(222,644,o),
(368,712,o),
(453,712,qs),
(570,712,o),
(695,604,o),
(700,507,q),
(636,507,l),
(634,580,o),
(541,665,o),
(447,665,qs),
(375,665,o),
(252,605,o),
(162,498,o),
(110,353,o),
(110,269,qs),
(110,157,o),
(229,35,o),
(335,35,qs),
(429,35,o),
(552,121,o),
(581,193,q),
(645,193,l),
(626,145,o),
(566,68,o),
(486,16,o),
(388,-12,o),
(329,-12,qs)
);
}
);
width = 695;
}
);
leftKerningGroup = C2;
rightKerningGroup = C;
unicode = 67;
}
{
glyphname = D;
layers = (
{
layerId = "84C8819D-02E3-4D9D-80EE-F3CA29327F71";
shapes = (
{
closed = 1;
nodes = (
(13,0,l),
(136,700,l),
(399,700,ls),
(607,700,o),
(704,582,o),
(704,413,cs),
(704,170,o),
(531,0,o),
(276,0,cs)
);
},
{
closed = 1;
nodes = (
(210,148,l),
(291,148,ls),
(444,148,o),
(528,243,o),
(528,398,cs),
(528,506,o),
(471,554,o),
(363,554,cs),
(282,554,l)
);
}
);
width = 719;
},
{
layerId = "44586365-17B2-4B09-91E8-CEE5E00BC966";
shapes = (
{
closed = 1;
nodes = (
(23,0,l),
(146,700,l),
(364,700,ls),
(575,700,o),
(670,599,o),
(670,417,cs),
(670,170,o),
(503,0,o),
(241,0,cs)
);
},
{
closed = 1;
nodes = (
(125,74,l),
(251,74,ls),
(458,74,o),
(580,205,o),
(580,410,cs),
(580,552,o),
(512,626,o),
(349,626,cs),
(222,626,l)
);
}
);
width = 688;
},
{
layerId = "EC825F25-5E21-4444-B100-FC828A5BE381";
shapes = (
{
closed = 1;
nodes = (
(27,0,l),
(150,700,l),
(349,700,ls),
(561,700,o),
(656,606,o),
(656,419,cs),
(656,170,o),
(491,0,o),
(226,0,cs)
);
},
{
closed = 1;
nodes = (
(90,45,l),
(235,45,ls),
(463,45,o),
(600,190,o),
(600,415,cs),
(600,571,o),
(528,655,o),
(343,655,cs),
(197,655,l)
);
}
);
width = 675;
}
);
rightKerningGroup = D;
unicode = 68;
}
{
glyphname = E;
layers = (
{
layerId = "006414F6-AB32-4F37-AE27-2ADC4DCE78FB";
shapes = (
{
closed = 1;
nodes = (
(12,0,l),
(136,700,l),
(596,700,l),
(572,565,l),
(283,565,l),
(258,421,l),
(517,421,l),
(494,292,l),
(235,292,l),
(207,135,l),
(496,135,l),
(472,0,l)
);
}
);
width = 566;
},
{
layerId = "797178CA-EA28-4B78-93E8-321876F1BDF3";
shapes = (
{
closed = 1;
nodes = (
(23,0,l),
(146,700,l),
(554,700,l),
(541,630,l),
(222,630,l),
(180,387,l),
(468,387,l),
(457,318,l),
(168,318,l),
(124,70,l),
(443,70,l),
(430,0,l)
);
}
);
width = 529;
},
{
layerId = "9F3B9F63-BB4B-4875-904D-0FA4124C677C";
shapes = (
{
closed = 1;
nodes = (
(27,0,l),
(150,700,l),
(537,700,l),
(528,656,l),
(197,656,l),
(148,374,l),
(448,374,l),
(442,329,l),
(140,329,l),
(90,44,l),
(421,44,l),
(413,0,l)
);
}
);
width = 514;
}
);
unicode = 69;
}
{
glyphname = F;
layers = (
{
layerId = "79854D6D-25E7-4737-919A-271E0ABD7EDC";
shapes = (
{
closed = 1;
nodes = (
(62,0,l),
(62,700,l),
(539,700,l),
(539,563,l),
(233,563,l),
(233,417,l),
(467,417,l),
(467,284,l),
(233,284,l),
(233,0,l)
);
}
);
width = 567;
},
{
layerId = "B1C61474-62B7-484B-9764-E73F45C0DC6D";
shapes = (
{
closed = 1;
nodes = (
(73,0,l),
(73,700,l),
(502,700,l),
(502,628,l),
(162,628,l),
(162,387,l),
(450,387,l),
(450,315,l),
(162,315,l),
(162,0,l)
);
}
);
width = 536;
},
{
layerId = "617CD1A0-F923-462F-B4E4-BD0161ABA38E";
shapes = (
{
closed = 1;
nodes = (
(78,0,l),
(78,700,l),
(487,700,l),
(487,654,l),
(133,654,l),
(133,375,l),
(443,375,l),
(443,328,l),
(133,328,l),
(133,0,l)
);
}
);
width = 523;
}
);
unicode = 70;
}
{
glyphname = G;
layers = (
{
layerId = "2916D4A4-8684-4E16-97E6-1E1555060A99";
shapes = (
{
closed = 1;
nodes = (
(263,-12,o),
(160,33,o),
(89,113,o),
(51,220,o),
(51,283,qs),
(51,379,o),
(116,537,o),
(231,650,o),
(389,712,o),
(481,712,qs),
(545,712,o),
(647,681,o),
(719,622,o),
(760,536,o),
(763,482,q),
(574,482,l),
(563,517,o),
(506,554,o),
(455,554,qs),
(405,554,o),
(321,517,o),
(261,450,o),
(227,356,o),
(227,298,qs),
(227,261,o),
(246,201,o),
(284,161,o),
(339,139,o),
(375,139,qs),
(414,139,o),
(476,160,o),
(523,195,o),
(557,243,o),
(567,270,q),
(416,270,l),
(438,396,l),
(760,396,l),
(690,0,l),
(535,0,l),
(531,70,l),
(494,30,o),
(396,-12,o),
(327,-12,qs)
);
}
);
width = 781;
},
{
layerId = "C58D79E9-5C27-47CF-BCFD-A6E10D98D405";
shapes = (
{
closed = 1;
nodes = (
(263,-12,o),
(162,32,o),
(91,109,o),
(54,216,o),
(54,279,qs),
(54,374,o),
(114,533,o),
(222,648,o),
(371,712,o),
(460,712,qs),
(520,712,o),
(617,683,o),
(686,628,o),
(726,548,o),
(728,497,q),
(627,497,l),
(622,559,o),
(534,631,o),
(450,631,qs),
(382,631,o),
(270,580,o),
(189,488,o),
(145,361,o),
(145,285,qs),
(145,235,o),
(173,155,o),
(225,98,o),
(298,67,o),
(344,67,qs),
(399,67,o),
(488,100,o),
(556,162,o),
(603,251,o),
(617,306,q),
(416,306,l),
(429,375,l),
(719,375,l),
(653,0,l),
(572,0,l),
(584,113,l),
(537,53,o),
(417,-12,o),
(326,-12,qs)
);
}
);
width = 748;
},
{
layerId = "13CE2B3A-5842-4154-B805-A41E50C98059";
shapes = (
{
closed = 1;
nodes = (
(262,-12,o),
(162,31,o),
(92,108,o),
(55,214,o),
(55,277,qs),
(55,372,o),
(113,531,o),
(218,647,o),
(363,712,o),
(451,712,qs),
(509,712,o),
(604,684,o),
(672,630,o),
(711,553,o),
(713,503,q),
(647,503,l),
(645,575,o),
(544,662,o),
(447,662,qs),
(372,662,o),
(249,605,o),
(160,503,o),
(112,363,o),
(112,280,qs),
(112,225,o),
(143,136,o),
(200,73,o),
(281,38,o),
(331,38,qs),
(393,38,o),
(492,77,o),
(568,150,o),
(621,255,o),
(636,321,q),
(416,321,l),
(425,367,l),
(702,367,l),
(638,0,l),
(586,0,l),
(605,130,l),
(553,62,o),
(424,-12,o),
(325,-12,qs)
);
}
);
width = 735;
}
);
leftKerningGroup = C2;
rightKerningGroup = G;
unicode = 71;
}
{
glyphname = H;
layers = (
{
layerId = "006414F6-AB32-4F37-AE27-2ADC4DCE78FB";
shapes = (
{
closed = 1;
nodes = (
(449,0,l),
(501,291,l),
(235,291,l),
(183,0,l),
(12,0,l),
(136,700,l),
(307,700,l),
(258,426,l),
(524,426,l),
(573,700,l),
(744,700,l),
(620,0,l)
);
}
);
width = 720;
},
{
layerId = "797178CA-EA28-4B78-93E8-321876F1BDF3";
shapes = (
{
closed = 1;
nodes = (
(470,0,l),
(527,322,l),
(168,322,l),
(111,0,l),
(23,0,l),
(146,700,l),
(235,700,l),
(181,392,l),
(539,392,l),
(594,700,l),
(682,700,l),
(558,0,l)
);
}
);
width = 668;
},
{
layerId = "9F3B9F63-BB4B-4875-904D-0FA4124C677C";
shapes = (
{
closed = 1;
nodes = (
(478,0,l),
(537,335,l),
(141,335,l),
(82,0,l),
(27,0,l),
(150,700,l),
(205,700,l),
(149,378,l),
(545,378,l),
(602,700,l),
(657,700,l),
(533,0,l)
);
}
);
width = 647;
}
);
unicode = 72;
}
{
glyphname = I;
layers = (
{
layerId = "006414F6-AB32-4F37-AE27-2ADC4DCE78FB";
shapes = (
{
closed = 1;
nodes = (
(12,0,l),
(136,700,l),
(307,700,l),
(183,0,l)
);
}
);
width = 283;
},
{
layerId = "797178CA-EA28-4B78-93E8-321876F1BDF3";
shapes = (
{
closed = 1;
nodes = (
(23,0,l),
(146,700,l),
(235,700,l),
(111,0,l)
);
}
);
width = 221;
},
{
layerId = "9F3B9F63-BB4B-4875-904D-0FA4124C677C";
shapes = (
{
closed = 1;
nodes = (
(27,0,l),
(150,700,l),
(205,700,l),
(82,0,l)
);
}
);
width = 196;
}
);
unicode = 73;
}
{
glyphname = J;
layers = (
{
layerId = "79854D6D-25E7-4737-919A-271E0ABD7EDC";
shapes = (
{
closed = 1;
nodes = (
(127,-12,o),
(26,72,o),
(26,230,c),
(196,230,l),
(196,170,o),
(222,141,o),
(266,141,cs),
(307,141,o),
(331,167,o),
(331,219,cs),
(331,700,l),
(502,700,l),
(502,219,ls),
(502,68,o),
(410,-12,o),
(271,-12,cs)
);
}
);
width = 564;
},
{
layerId = "B1C61474-62B7-484B-9764-E73F45C0DC6D";
shapes = (
{
closed = 1;
nodes = (
(104,-12,o),
(27,62,o),
(27,190,c),
(115,190,l),
(117,120,o),
(146,67,o),
(231,67,cs),
(313,67,o),
(341,118,o),
(341,187,cs),
(341,700,l),
(429,700,l),
(429,187,ls),
(429,60,o),
(355,-12,o),
(232,-12,cs)
);
}
);
width = 503;
},
{
layerId = "617CD1A0-F923-462F-B4E4-BD0161ABA38E";
shapes = (
{
closed = 1;
nodes = (
(95,-12,o),
(27,58,o),
(27,174,c),
(83,174,l),
(86,100,o),
(115,37,o),
(217,37,cs),
(316,37,o),
(345,98,o),
(345,174,cs),
(345,700,l),
(400,700,l),
(400,174,ls),
(400,57,o),
(333,-12,o),
(216,-12,cs)
);
}
);
width = 478;
}
);
unicode = 74;
}
{
glyphname = K;
layers = (
{
layerId = "006414F6-AB32-4F37-AE27-2ADC4DCE78FB";
shapes = (
{
closed = 1;
nodes = (
(13,0,l),
(136,700,l),
(307,700,l),
(264,451,l),
(533,700,l),
(742,700,l),
(438,424,l),
(629,0,l),
(424,0,l),
(295,295,l),
(225,230,l),
(184,0,l)
);
}
);
width = 692;
},
{
layerId = "797178CA-EA28-4B78-93E8-321876F1BDF3";
shapes = (
{
closed = 1;
nodes = (
(23,0,l),
(146,700,l),
(235,700,l),
(180,386,l),
(524,700,l),
(635,700,l),
(326,420,l),
(516,0,l),
(413,0,l),
(254,356,l),
(159,271,l),
(112,0,l)
);
}
);
width = 580;
},
{
layerId = "9F3B9F63-BB4B-4875-904D-0FA4124C677C";
shapes = (
{
closed = 1;
nodes = (
(27,0,l),
(150,700,l),
(205,700,l),
(146,360,l),
(520,700,l),
(591,700,l),
(280,419,l),
(470,0,l),
(408,0,l),
(237,381,l),
(132,287,l),
(82,0,l)
);
}
);
width = 535;
}
);
rightKerningGroup = K;
unicode = 75;
}
{
glyphname = L;
layers = (
{
layerId = "79854D6D-25E7-4737-919A-271E0ABD7EDC";
shapes = (
{
closed = 1;
nodes = (
(62,0,l),
(62,700,l),
(233,700,l),
(233,132,l),
(527,132,l),
(527,0,l)
);
}
);
width = 577;
},
{
layerId = "B1C61474-62B7-484B-9764-E73F45C0DC6D";
shapes = (
{
closed = 1;
nodes = (
(73,0,l),
(73,700,l),
(162,700,l),
(162,71,l),
(486,71,l),
(486,0,l)
);
}
);
width = 528;
},
{
layerId = "617CD1A0-F923-462F-B4E4-BD0161ABA38E";
shapes = (
{
closed = 1;
nodes = (
(78,0,l),
(78,700,l),
(133,700,l),
(133,46,l),
(470,46,l),
(470,0,l)
);
}
);
width = 508;
}
);
rightKerningGroup = L;
unicode = 76;
}
{
glyphname = M;
layers = (
{
layerId = "79854D6D-25E7-4737-919A-271E0ABD7EDC";
shapes = (
{
closed = 1;
nodes = (
(62,0,l),
(62,700,l),
(268,700,l),
(462,301,l),
(652,700,l),
(857,700,l),
(857,0,l),
(686,0,l),
(686,416,l),
(529,100,l),
(391,100,l),
(233,417,l),
(233,0,l)
);
}
);
width = 919;
},
{
layerId = "B1C61474-62B7-484B-9764-E73F45C0DC6D";
shapes = (
{
closed = 1;
nodes = (
(73,0,l),
(73,700,l),
(176,700,l),
(426,217,l),
(673,700,l),
(776,700,l),
(776,0,l),
(688,0,l),
(688,543,l),
(458,100,l),
(392,100,l),
(162,542,l),
(162,0,l)
);
}
);
width = 850;
},
{
layerId = "617CD1A0-F923-462F-B4E4-BD0161ABA38E";
shapes = (
{
closed = 1;
nodes = (
(78,0,l),
(78,700,l),
(139,700,l),
(411,183,l),
(682,700,l),
(744,700,l),
(744,0,l),
(689,0,l),
(689,594,l),
(430,100,l),
(392,100,l),
(133,592,l),
(133,0,l)
);
}
);
width = 823;
}
);
unicode = 77;
}
{
glyphname = N;
layers = (
{
layerId = "84C8819D-02E3-4D9D-80EE-F3CA29327F71";
shapes = (
{
closed = 1;
nodes = (
(12,0,l),
(136,700,l),
(309,700,l),
(516,267,l),
(593,700,l),
(764,700,l),
(640,0,l),
(469,0,l),
(260,433,l),
(183,0,l)
);
}
);
width = 740;
},
{
layerId = "44586365-17B2-4B09-91E8-CEE5E00BC966";
shapes = (
{
closed = 1;
nodes = (
(23,0,l),
(146,700,l),
(234,700,l),
(505,140,l),
(603,700,l),
(692,700,l),
(568,0,l),
(480,0,l),
(210,561,l),
(111,0,l)
);
}
);
width = 678;
},
{
layerId = "EC825F25-5E21-4444-B100-FC828A5BE381";
shapes = (
{
closed = 1;
nodes = (
(27,0,l),
(150,700,l),
(204,700,l),
(500,89,l),
(607,700,l),
(662,700,l),
(539,0,l),
(484,0,l),
(190,612,l),
(82,0,l)
);
}
);
width = 653;
}
);
unicode = 78;
}
{
glyphname = O;
layers = (
{
layerId = "84C8819D-02E3-4D9D-80EE-F3CA29327F71";
shapes = (
{
closed = 1;
nodes = (
(182,-12,o),
(52,118,o),
(52,294,cs),
(52,527,o),
(237,712,o),
(474,712,cs),
(655,712,o),
(785,582,o),
(785,406,cs),
(785,173,o),
(600,-12,o),
(363,-12,cs)
);
},
{
closed = 1;
nodes = (
(507,143,o),
(609,250,o),
(609,390,cs),
(609,490,o),
(562,557,o),
(455,557,cs),
(330,557,o),
(228,450,o),
(228,310,cs),
(228,210,o),
(282,143,o),
(382,143,cs)
);
}
);
width = 801;
},
{
layerId = "44586365-17B2-4B09-91E8-CEE5E00BC966";
shapes = (
{
closed = 1;
nodes = (
(173,-12,o),
(53,113,o),
(53,287,cs),
(53,523,o),
(242,712,o),
(472,712,cs),
(645,712,o),
(764,588,o),
(764,415,cs),
(764,177,o),
(576,-12,o),
(346,-12,cs)
);
},
{
closed = 1;
nodes = (
(532,66,o),
(673,218,o),
(673,410,cs),
(673,549,o),
(587,633,o),
(459,633,cs),
(285,633,o),
(145,483,o),
(145,292,cs),
(145,154,o),
(232,66,o),
(359,66,cs)
);
}
);
width = 781;
},
{
layerId = "EC825F25-5E21-4444-B100-FC828A5BE381";
shapes = (
{
closed = 1;
nodes = (
(169,-12,o),
(53,111,o),
(53,284,cs),
(53,521,o),
(244,712,o),
(470,712,cs),
(641,712,o),
(755,591,o),
(755,419,cs),
(755,179,o),
(566,-12,o),
(339,-12,cs)
);
},
{
closed = 1;
nodes = (
(541,35,o),
(698,205,o),
(698,418,cs),
(698,572,o),
(596,664,o),
(460,664,cs),
(267,664,o),
(111,496,o),
(111,285,cs),
(111,132,o),
(212,35,o),
(349,35,cs)
);
}
);
width = 773;
}
);
leftKerningGroup = C2;
rightKerningGroup = D;
unicode = 79;
}
{
glyphname = P;
layers = (
{
layerId = "006414F6-AB32-4F37-AE27-2ADC4DCE78FB";
shapes = (
{
closed = 1;
nodes = (
(13,0,l),
(136,700,l),
(423,700,ls),
(574,700,o),
(646,610,o),
(646,505,cs),
(646,349,o),
(519,250,o),
(344,250,cs),
(228,250,l),
(184,0,l)
);
},
{
closed = 1;
nodes = (
(252,386,l),
(355,386,ls),
(427,386,o),
(470,428,o),
(470,491,cs),
(470,538,o),
(445,562,o),
(386,562,cs),
(283,562,l)
);
}
);
width = 626;
},
{
layerId = "797178CA-EA28-4B78-93E8-321876F1BDF3";
shapes = (
{
closed = 1;
nodes = (
(23,0,l),
(146,700,l),
(379,700,ls),
(523,700,o),
(588,619,o),
(588,524,cs),
(588,377,o),
(474,290,o),
(308,290,cs),
(163,290,l),
(112,0,l)
);
},
{
closed = 1;
nodes = (
(175,364,l),
(318,364,ls),
(431,364,o),
(496,413,o),
(496,517,cs),
(496,581,o),
(458,627,o),
(364,627,cs),
(222,627,l)
);
}
);
width = 570;
},
{
layerId = "9F3B9F63-BB4B-4875-904D-0FA4124C677C";
shapes = (
{
closed = 1;
nodes = (
(27,0,l),
(150,700,l),
(361,700,ls),
(502,700,o),
(564,623,o),
(564,531,cs),
(564,388,o),
(456,306,o),
(293,306,cs),
(136,306,l),
(82,0,l)
);
},
{
closed = 1;
nodes = (
(144,355,l),
(303,355,ls),
(432,355,o),
(506,407,o),
(506,528,cs),
(506,598,o),
(462,653,o),
(355,653,cs),
(197,653,l)
);
}
);
width = 548;
}
);
unicode = 80;
}
{
glyphname = Q;
layers = (
{
layerId = "2916D4A4-8684-4E16-97E6-1E1555060A99";
shapes = (
{
closed = 1;
nodes = (
(295,-12,o),
(181,34,o),
(98,116,o),
(52,228,o),
(52,294,qs),
(52,381,o),
(117,534,o),
(231,647,o),
(385,712,o),
(474,712,qs),
(542,712,o),
(656,666,o),
(739,584,o),
(785,472,o),
(785,406,qs),
(785,348,o),
(756,242,o),
(702,150,o),
(627,74,o),
(581,47,q),
(691,-120,l),
(484,-120,l),
(421,-8,l),
(407,-10,o),
(378,-12,o),
(363,-12,qs)
);
},
{
closed = 1;
nodes = (
(429,143,o),
(512,181,o),
(573,247,o),
(609,338,o),
(609,390,qs),
(609,428,o),
(591,489,o),
(553,533,o),
(495,557,o),
(455,557,qs),
(408,557,o),
(325,519,o),
(264,453,o),
(228,363,o),
(228,310,qs),
(228,273,o),
(248,211,o),
(287,167,o),
(345,143,o),
(382,143,qs)
);
}
);
width = 776;
},
{
layerId = "C58D79E9-5C27-47CF-BCFD-A6E10D98D405";
shapes = (
{
closed = 1;
nodes = (
(281,-12,o),
(173,33,o),
(96,112,o),
(53,222,o),
(53,287,qs),
(53,376,o),
(119,530,o),
(233,646,o),
(385,712,o),
(471,712,qs),
(536,712,o),
(644,668,o),
(721,589,o),
(764,480,o),
(764,415,qs),
(764,352,o),
(730,235,o),
(668,136,o),
(582,58,o),
(530,32,q),
(673,-134,l),
(559,-134,l),
(442,1,l),
(419,-6,o),
(371,-12,o),
(346,-12,qs)
);
},
{
closed = 1;
nodes = (
(423,66,o),
(538,120,o),
(623,213,o),
(673,338,o),
(673,410,qs),
(673,462,o),
(642,545,o),
(585,602,o),
(507,633,o),
(459,633,qs),
(394,633,o),
(279,580,o),
(194,488,o),
(144,364,o),
(144,292,qs),
(144,240,o),
(175,157,o),
(232,98,o),
(311,66,o),
(358,66,qs)
);
}
);
width = 774;
},
{
layerId = "13CE2B3A-5842-4154-B805-A41E50C98059";
shapes = (
{
closed = 1;
nodes = (
(275,-12,o),
(170,32,o),
(95,110,o),
(53,219,o),
(53,284,qs),
(53,373,o),
(120,529,o),
(234,645,o),
(385,712,o),
(470,712,qs),
(534,712,o),
(639,669,o),
(714,591,o),
(755,484,o),
(755,419,qs),
(755,353,o),
(719,233,o),
(653,131,o),
(563,51,o),
(509,26,q),
(666,-140,l),
(589,-140,l),
(451,4,l),
(424,-4,o),
(368,-12,o),
(339,-12,qs)
);
},
{
closed = 1;
nodes = (
(421,35,o),
(548,95,o),
(643,198,o),
(698,338,o),
(698,418,qs),
(698,476,o),
(662,567,o),
(598,630,o),
(511,664,o),
(460,664,qs),
(388,664,o),
(260,605,o),
(166,502,o),
(111,364,o),
(111,285,qs),
(111,228,o),
(147,135,o),
(210,70,o),
(298,35,o),
(349,35,qs)
);
}
);
width = 773;
}
);
leftKerningGroup = C2;
unicode = 81;
}
{
glyphname = R;
layers = (
{
layerId = "006414F6-AB32-4F37-AE27-2ADC4DCE78FB";
shapes = (
{
closed = 1;
nodes = (
(13,0,l),
(136,700,l),
(417,700,ls),
(569,700,o),
(646,610,o),
(646,508,cs),
(646,399,o),
(581,319,o),
(477,284,c),
(564,0,l),
(377,0,l),
(305,263,l),
(230,263,l),
(184,0,l)
);
},
{
closed = 1;
nodes = (
(252,384,l),
(358,384,ls),
(426,384,o),
(469,425,o),
(469,489,cs),
(469,532,o),
(444,558,o),
(388,558,cs),
(282,558,l)
);
}
);
width = 641;
},
{
layerId = "797178CA-EA28-4B78-93E8-321876F1BDF3";
shapes = (
{
closed = 1;
nodes = (
(23,0,l),
(146,700,l),
(374,700,ls),
(517,700,o),
(579,619,o),
(579,523,cs),
(579,408,o),
(509,330,o),
(398,300,c),
(497,0,l),
(401,0,l),
(310,289,l),
(163,288,l),
(112,0,l)
);
},
{
closed = 1;
nodes = (
(175,356,l),
(309,356,ls),
(418,356,o),
(489,413,o),
(489,515,cs),
(489,577,o),
(449,626,o),
(356,626,cs),
(222,626,l)
);
}
);
width = 582;
},
{
layerId = "9F3B9F63-BB4B-4875-904D-0FA4124C677C";
shapes = (
{
closed = 1;
nodes = (
(27,0,l),
(150,700,l),
(356,700,ls),
(496,700,o),
(552,622,o),
(552,529,cs),
(552,412,o),
(479,334,o),
(366,307,c),
(469,0,l),
(410,0,l),
(312,299,l),
(135,298,l),
(82,0,l)
);
},
{
closed = 1;
nodes = (
(143,345,l),
(289,345,ls),
(414,345,o),
(496,408,o),
(496,525,cs),
(496,595,o),
(451,653,o),
(342,653,cs),
(197,653,l)
);
}
);
width = 558;
}
);
rightKerningGroup = R;
unicode = 82;
}
{
glyphname = S;
layers = (
{
layerId = "006414F6-AB32-4F37-AE27-2ADC4DCE78FB";
shapes = (
{
closed = 1;
nodes = (
(126,-12,o),
(25,51,o),
(25,175,cs),
(25,187,o),
(26,199,o),
(28,212,c),
(211,212,l),
(210,204,o),
(210,203,o),
(210,199,cs),
(210,156,o),
(240,131,o),
(287,131,cs),
(338,131,o),
(373,161,o),
(373,204,cs),
(373,257,o),
(301,279,o),
(227,305,cs),
(139,336,o),
(86,393,o),
(86,474,cs),
(86,617,o),
(209,712,o),
(376,712,cs),
(509,712,o),
(598,648,o),
(598,533,cs),
(598,522,o),
(597,513,o),
(596,502,c),
(411,502,l),
(412,509,o),
(412,510,o),
(412,518,cs),
(412,547,o),
(388,569,o),
(345,569,cs),
(298,569,o),
(271,542,o),
(271,507,cs),
(271,460,o),
(325,442,o),
(390,418,cs),
(480,386,o),
(560,329,o),
(560,227,cs),
(560,81,o),
(433,-12,o),
(265,-12,cs)
);
}
);
width = 605;
},
{
layerId = "797178CA-EA28-4B78-93E8-321876F1BDF3";
shapes = (
{
closed = 1;
nodes = (
(124,-12,o),
(31,60,o),
(31,170,cs),
(31,183,o),
(33,196,o),
(36,211,c),
(128,211,l),
(126,200,o),
(125,192,o),
(125,183,cs),
(125,112,o),
(182,62,o),
(272,62,cs),
(376,62,o),
(432,117,o),
(432,200,cs),
(432,288,o),
(334,306,o),
(241,340,cs),
(153,372,o),
(110,429,o),
(110,501,cs),
(110,627,o),
(212,712,o),
(359,712,cs),
(480,712,o),
(561,646,o),
(561,549,cs),
(561,538,o),
(560,527,o),
(558,517,c),
(466,517,l),
(467,524,o),
(467,530,o),
(467,536,cs),
(467,587,o),
(428,637,o),
(348,637,cs),
(261,637,o),
(204,585,o),
(204,514,cs),
(204,440,o),
(283,421,o),
(381,385,cs),
(463,356,o),
(526,302,o),
(526,212,cs),
(526,76,o),
(420,-12,o),
(263,-12,cs)
);
}
);
width = 578;
},
{
layerId = "9F3B9F63-BB4B-4875-904D-0FA4124C677C";
shapes = (
{
closed = 1;
nodes = (
(122,-12,o),
(33,64,o),
(33,168,cs),
(33,181,o),
(35,195,o),
(38,210,c),
(94,210,l),
(92,199,o),
(91,188,o),
(91,177,cs),
(91,94,o),
(158,35,o),
(266,35,cs),
(391,35,o),
(455,99,o),
(455,199,cs),
(455,301,o),
(347,317,o),
(246,354,cs),
(158,387,o),
(119,444,o),
(119,512,cs),
(119,631,o),
(212,712,o),
(352,712,cs),
(468,712,o),
(546,645,o),
(546,555,cs),
(546,544,o),
(545,533,o),
(542,523,c),
(487,523,l),
(488,530,o),
(489,538,o),
(489,543,cs),
(489,603,o),
(444,664,o),
(348,664,cs),
(245,664,o),
(176,602,o),
(176,517,cs),
(176,432,o),
(266,412,o),
(377,372,cs),
(456,344,o),
(512,291,o),
(512,206,cs),
(512,74,o),
(414,-12,o),
(261,-12,cs)
);
}
);
width = 567;
}
);
leftKerningGroup = S2;
rightKerningGroup = S;
unicode = 83;
}
{
glyphname = T;
layers = (
{
layerId = "2916D4A4-8684-4E16-97E6-1E1555060A99";
shapes = (
{
closed = 1;
nodes = (
(176,0,l),
(276,566,l),
(74,566,l),
(98,700,l),
(672,700,l),
(649,566,l),
(447,566,l),
(347,0,l)
);
}
);
width = 611;
},
{
layerId = "C58D79E9-5C27-47CF-BCFD-A6E10D98D405";
shapes = (
{
closed = 1;
nodes = (
(186,0,l),
(297,630,l),
(89,630,l),
(102,700,l),
(606,700,l),
(594,630,l),
(385,630,l),
(275,0,l)
);
}
);
width = 547;
},
{
layerId = "13CE2B3A-5842-4154-B805-A41E50C98059";
shapes = (
{
closed = 1;
nodes = (
(190,0,l),
(305,656,l),
(95,656,l),
(103,700,l),
(579,700,l),
(571,656,l),
(360,656,l),
(245,0,l)
);
}
);
width = 522;
}
);
leftKerningGroup = T2;
rightKerningGroup = T;
unicode = 84;
}
{
glyphname = U;
layers = (
{
layerId = "84C8819D-02E3-4D9D-80EE-F3CA29327F71";
shapes = (
{
closed = 1;
nodes = (
(151,-12,o),
(47,62,o),
(47,211,cs),
(47,232,o),
(49,254,o),
(53,278,cs),
(126,700,l),
(297,700,l),
(223,278,l),
(220,265,o),
(219,253,o),
(219,242,cs),
(219,181,o),
(254,147,o),
(322,147,cs),
(403,147,o),
(454,194,o),
(469,278,cs),
(543,700,l),
(714,700,l),
(640,278,ls),
(605,81,o),
(456,-12,o),
(292,-12,cs)
);
}
);
width = 693;
},
{
layerId = "44586365-17B2-4B09-91E8-CEE5E00BC966";
shapes = (
{
closed = 1;
nodes = (
(149,-12,o),
(56,52,o),
(56,191,cs),
(56,213,o),
(58,235,o),
(62,259,cs),
(141,700,l),
(229,700,l),
(150,259,ls),
(146,239,o),
(144,222,o),
(144,205,cs),
(144,110,o),
(202,68,o),
(290,68,cs),
(393,68,o),
(472,125,o),
(496,259,cs),
(575,700,l),
(663,700,l),
(585,259,ls),
(552,72,o),
(421,-12,o),
(275,-12,cs)
);
}
);
width = 654;
},
{
layerId = "EC825F25-5E21-4444-B100-FC828A5BE381";
shapes = (
{
closed = 1;
nodes = (
(147,-12,o),
(59,48,o),
(59,183,cs),
(59,205,o),
(61,228,o),
(65,252,cs),
(146,700,l),
(201,700,l),
(120,252,ls),
(116,229,o),
(114,209,o),
(114,190,cs),
(114,81,o),
(180,37,o),
(276,37,cs),
(388,37,o),
(479,97,o),
(506,252,c),
(587,700,l),
(642,700,l),
(562,252,l),
(530,68,o),
(406,-12,o),
(267,-12,cs)
);
}
);
width = 638;
}
);
leftKerningGroup = U2;
rightKerningGroup = U;
unicode = 85;
}
{
glyphname = V;
layers = (
{
layerId = "2916D4A4-8684-4E16-97E6-1E1555060A99";
shapes = (
{
closed = 1;
nodes = (
(208,0,l),
(83,700,l),
(265,700,l),
(346,172,l),
(612,700,l),
(794,700,l),
(422,0,l)
);
}
);
width = 717;
},
{
layerId = "C58D79E9-5C27-47CF-BCFD-A6E10D98D405";
shapes = (
{
closed = 1;
nodes = (
(232,0,l),
(94,700,l),
(189,700,l),
(301,96,l),
(628,700,l),
(723,700,l),
(336,0,l)
);
}
);
width = 657;
},
{
layerId = "13CE2B3A-5842-4154-B805-A41E50C98059";
shapes = (
{
closed = 1;
nodes = (
(242,0,l),
(98,700,l),
(159,700,l),
(283,65,l),
(634,700,l),
(694,700,l),
(302,0,l)
);
}
);
width = 633;
}
);
unicode = 86;
}
{
glyphname = W;
layers = (
{
layerId = "006414F6-AB32-4F37-AE27-2ADC4DCE78FB";
shapes = (
{
closed = 1;
nodes = (
(146,0,l),
(93,700,l),
(275,700,l),
(286,191,l),
(500,700,l),
(690,700,l),
(720,194,l),
(910,700,l),
(1094,700,l),
(788,0,l),
(581,0,l),
(550,461,l),
(353,0,l)
);
}
);
width = 1040;
},
{
layerId = "797178CA-EA28-4B78-93E8-321876F1BDF3";
shapes = (
{
closed = 1;
nodes = (
(160,-1,l),
(93,700,l),
(188,700,l),
(231,108,l),
(505,700,l),
(605,700,l),
(663,107,l),
(918,700,l),
(1014,700,l),
(693,0,l),
(592,0,l),
(529,570,l),
(260,0,l)
);
}
);
width = 958;
},
{
layerId = "9F3B9F63-BB4B-4875-904D-0FA4124C677C";
shapes = (
{
closed = 1;
nodes = (
(165,-1,l),
(92,700,l),
(152,700,l),
(209,75,l),
(507,700,l),
(570,700,l),
(640,72,l),
(920,700,l),
(981,700,l),
(655,0,l),
(596,0,l),
(520,614,l),
(222,0,l)
);
}
);
width = 925;
}
);
leftKerningGroup = W2;
rightKerningGroup = W;
unicode = 87;
}
{
glyphname = X;
layers = (
{
layerId = "006414F6-AB32-4F37-AE27-2ADC4DCE78FB";
shapes = (
{
closed = 1;
nodes = (
(435,0,l),
(330,215,l),
(166,0,l),
(-28,0,l),
(260,357,l),
(92,700,l),
(291,700,l),
(394,490,l),
(553,700,l),
(747,700,l),
(463,348,l),
(634,0,l)
);
}
);
width = 703;
},
{
layerId = "797178CA-EA28-4B78-93E8-321876F1BDF3";
shapes = (
{
closed = 1;
nodes = (
(405,0,l),
(283,279,l),
(72,0,l),
(-27,0,l),
(249,352,l),
(95,700,l),
(196,700,l),
(317,423,l),
(528,700,l),
(629,700,l),
(351,349,l),
(505,0,l)
);
}
);
width = 585;
},
{
layerId = "9F3B9F63-BB4B-4875-904D-0FA4124C677C";
shapes = (
{
closed = 1;
nodes = (
(392,0,l),
(263,304,l),
(34,0,l),
(-27,0,l),
(244,350,l),
(96,700,l),
(157,700,l),
(285,396,l),
(518,700,l),
(581,700,l),
(305,349,l),
(453,0,l)
);
}
);
width = 538;
}
);
unicode = 88;
}
{
glyphname = Y;
layers = (
{
layerId = "84C8819D-02E3-4D9D-80EE-F3CA29327F71";
shapes = (
{
closed = 1;
nodes = (
(193,0,l),
(235,232,l),
(74,700,l),
(269,700,l),
(352,409,l),
(537,700,l),
(730,700,l),
(406,232,l),
(364,0,l)
);
}
);
width = 659;
},
{
layerId = "44586365-17B2-4B09-91E8-CEE5E00BC966";
shapes = (
{
closed = 1;
nodes = (
(191,0,l),
(238,265,l),
(85,700,l),
(186,700,l),
(297,349,l),
(532,700,l),
(631,700,l),
(326,265,l),
(279,0,l)
);
}
);
width = 568;
},
{
layerId = "EC825F25-5E21-4444-B100-FC828A5BE381";
shapes = (
{
closed = 1;
nodes = (
(190,0,l),
(239,278,l),
(89,700,l),
(152,700,l),
(274,325,l),
(529,700,l),
(591,700,l),
(294,278,l),
(245,0,l)
);
}
);
width = 532;
}
);
leftKerningGroup = Y2;
rightKerningGroup = Y;
unicode = 89;
}
{
glyphname = Z;
layers = (
{
layerId = "2916D4A4-8684-4E16-97E6-1E1555060A99";
shapes = (
{
closed = 1;
nodes = (
(-7,0,l),
(16,130,l),
(392,560,l),
(92,560,l),
(117,700,l),
(613,700,l),
(590,570,l),
(212,140,l),
(514,140,l),
(489,0,l)
);
}
);
width = 584;
},
{
layerId = "C58D79E9-5C27-47CF-BCFD-A6E10D98D405";
shapes = (
{
closed = 1;
nodes = (
(-13,0,l),
(-1,69,l),
(440,624,l),
(102,624,l),
(116,700,l),
(556,700,l),
(544,631,l),
(102,76,l),
(450,76,l),
(437,0,l)
);
}
);
width = 523;
},
{
layerId = "13CE2B3A-5842-4154-B805-A41E50C98059";
shapes = (
{
closed = 1;
nodes = (
(-16,0,l),
(-8,45,l),
(458,650,l),
(105,650,l),
(115,700,l),
(533,700,l),
(525,655,l),
(58,50,l),
(424,50,l),
(415,0,l)
);
}
);
width = 498;
}
);
rightKerningGroup = Z;
unicode = 90;
}
{
glyphname = bracketleft;
layers = (
{
layerId = "006414F6-AB32-4F37-AE27-2ADC4DCE78FB";
shapes = (
{
closed = 1;
nodes = (
(-21,-190,l),
(155,810,l),
(455,810,l),
(431,672,l),
(291,672,l),
(164,-51,l),
(304,-51,l),
(279,-190,l)
);
}
);
width = 401;
},
{
layerId = "797178CA-EA28-4B78-93E8-321876F1BDF3";
shapes = (
{
closed = 1;
nodes = (
(-4,-153,l),
(166,811,l),
(347,811,l),
(334,738,l),
(236,738,l),
(92,-80,l),
(189,-80,l),
(177,-153,l)
);
}
);
width = 298;
},
{
layerId = "9F3B9F63-BB4B-4875-904D-0FA4124C677C";
shapes = (
{
closed = 1;
nodes = (
(2,-138,l),
(170,811,l),
(303,811,l),
(294,765,l),
(213,765,l),
(62,-91,l),
(142,-91,l),
(135,-138,l)
);
}
);
width = 257;
}
);
unicode = 91;
}
{
glyphname = backslash;
layers = (
{
layerId = "2916D4A4-8684-4E16-97E6-1E1555060A99";
shapes = (
{
closed = 1;
nodes = (
(195,-127,l),
(108,790,l),
(273,790,l),
(360,-127,l)
);
}
);
width = 438;
},
{
layerId = "C58D79E9-5C27-47CF-BCFD-A6E10D98D405";
shapes = (
{
closed = 1;
nodes = (
(211,-97,l),
(112,766,l),
(199,766,l),
(297,-97,l)
);
}
);
width = 379;
},
{
layerId = "13CE2B3A-5842-4154-B805-A41E50C98059";
shapes = (
{
closed = 1;
nodes = (
(217,-85,l),
(113,756,l),
(169,756,l),
(272,-85,l)
);
}
);
width = 355;
}
);
unicode = 92;
}
{
glyphname = asciicircum;
layers = (
{
layerId = "79854D6D-25E7-4737-919A-271E0ABD7EDC";
shapes = (
{
closed = 1;
nodes = (
(30,161,l),
(272,700,l),
(438,700,l),
(679,161,l),
(507,161,l),
(355,502,l),
(202,161,l)
);
}
);
width = 709;
},
{
layerId = "B1C61474-62B7-484B-9764-E73F45C0DC6D";
shapes = (
{
closed = 1;
nodes = (
(36,177,l),
(272,700,l),
(354,700,l),
(589,177,l),
(498,177,l),
(313,592,l),
(126,177,l)
);
}
);
width = 625;
},
{
layerId = "617CD1A0-F923-462F-B4E4-BD0161ABA38E";
shapes = (
{
closed = 1;
nodes = (
(39,184,l),
(272,700,l),
(320,700,l),
(553,184,l),
(494,184,l),
(296,628,l),
(96,184,l)
);
}
);
width = 591;
}
);
unicode = 94;
}
{
glyphname = underscore;
layers = (
{
layerId = "006414F6-AB32-4F37-AE27-2ADC4DCE78FB";
shapes = (
{
closed = 1;
nodes = (
(-35,-205,l),
(-7,-41,l),
(613,-41,l),
(585,-205,l)
);
}
);
width = 709;
},
{
layerId = "797178CA-EA28-4B78-93E8-321876F1BDF3";
shapes = (
{
closed = 1;
nodes = (
(-14,-119,l),
(1,-36,l),
(529,-36,l),
(515,-119,l)
);
}
);
width = 630;
},
{
layerId = "9F3B9F63-BB4B-4875-904D-0FA4124C677C";
shapes = (
{
closed = 1;
nodes = (
(-5,-84,l),
(4,-34,l),
(495,-34,l),
(487,-84,l)
);
}
);
width = 598;
}
);
unicode = 95;
}
{
glyphname = grave;
layers = (
{
layerId = "84C8819D-02E3-4D9D-80EE-F3CA29327F71";
shapes = (
{
closed = 1;
nodes = (
(295,534,l),
(73,635,l),
(96,768,l),
(317,652,l)
);
}
);
width = 250;
},
{
layerId = "44586365-17B2-4B09-91E8-CEE5E00BC966";
shapes = (
{
closed = 1;
nodes = (
(277,538,l),
(86,653,l),
(99,729,l),
(288,603,l)
);
}
);
width = 240;
},
{
layerId = "EC825F25-5E21-4444-B100-FC828A5BE381";
shapes = (
{
closed = 1;
nodes = (
(269,539,l),
(91,660,l),
(100,713,l),
(276,583,l)
);
}
);
width = 236;
}
);
unicode = 96;
}
{
glyphname = a;
layers = (
{
layerId = "6381F42F-F1FF-4F15-8745-0EB25D66EBC4";
name = "#instance";
shapes = (
{
closed = 1;
nodes = (
(114,-12,o),
(37,87,o),
(37,209,cs),
(37,385,o),
(162,512,o),
(323,512,cs),
(410,512,o),
(465,475,o),
(491,418,c),
(513,500,l),
(595,500,l),
(507,0,l),
(425,0,l),
(432,82,l),
(392,34,o),
(334,-12,o),
(242,-12,cs)
);
},
{
closed = 1;
nodes = (
(381,65,o),
(464,168,o),
(464,292,cs),
(464,379,o),
(412,435,o),
(326,435,cs),
(213,435,o),
(129,341,o),
(129,217,cs),
(129,131,o),
(182,65,o),
(268,65,cs)
);
}
);
width = 612;
},
{
layerId = "84C8819D-02E3-4D9D-80EE-F3CA29327F71";
shapes = (
{
closed = 1;
nodes = (
(116,-12,o),
(39,83,o),
(39,210,cs),
(39,380,o),
(164,512,o),
(320,512,cs),
(399,512,o),
(443,482,o),
(466,447,c),
(497,500,l),
(647,500,l),
(560,0,l),
(409,0,l),
(397,60,l),
(362,20,o),
(311,-12,o),
(234,-12,cs)
);
},
{
closed = 1;
nodes = (
(382,138,o),
(441,202,o),
(441,271,cs),
(441,324,o),
(404,362,o),
(345,362,cs),
(272,362,o),
(218,303,o),
(218,233,cs),
(218,180,o),
(250,138,o),
(310,138,cs)
);
}
);
width = 660;
},
{
layerId = "44586365-17B2-4B09-91E8-CEE5E00BC966";
shapes = (
{
closed = 1;
nodes = (
(114,-12,o),
(37,87,o),
(37,209,cs),
(37,385,o),
(162,512,o),
(323,512,cs),
(410,512,o),
(465,475,o),
(491,418,c),
(513,500,l),
(595,500,l),
(507,0,l),
(425,0,l),
(432,82,l),
(392,34,o),
(334,-12,o),
(242,-12,cs)
);
},
{
closed = 1;
nodes = (
(381,65,o),
(464,168,o),
(464,292,cs),
(464,379,o),
(412,435,o),
(326,435,cs),
(213,435,o),
(129,341,o),
(129,217,cs),
(129,131,o),
(182,65,o),
(268,65,cs)
);
}
);
width = 612;
},
{
layerId = "EC825F25-5E21-4444-B100-FC828A5BE381";
shapes = (
{
closed = 1;
nodes = (
(112,-12,o),
(36,89,o),
(36,209,cs),
(36,387,o),
(161,512,o),
(323,512,cs),
(414,512,o),
(473,472,o),
(501,406,c),
(519,500,l),
(574,500,l),
(485,0,l),
(431,0,l),
(445,91,l),
(404,39,o),
(343,-12,o),
(245,-12,cs)
);
},
{
closed = 1;
nodes = (
(380,36,o),
(472,154,o),
(472,300,cs),
(472,401,o),
(414,464,o),
(318,464,cs),
(189,464,o),
(93,356,o),
(93,211,cs),
(93,111,o),
(154,36,o),
(251,36,cs)
);
}
);
width = 593;
}
);
leftKerningGroup = a2;
rightKerningGroup = a;
unicode = 97;
}
{
glyphname = b;
layers = (
{
layerId = "88E046F8-FFD6-404C-A200-1EAAA281430D";
name = "#instance";
shapes = (
{
closed = 1;
nodes = (
(236,-12,o),
(179,7,o),
(133,37,o),
(100,76,o),
(92,95,q),
(71,0,l),
(19,0,l),
(147,726,l),
(203,726,l),
(147,412,l),
(180,453,o),
(276,512,o),
(349,512,qs),
(399,512,o),
(476,479,o),
(529,422,o),
(557,344,o),
(557,299,qs),
(557,232,o),
(513,118,o),
(436,35,o),
(330,-12,o),
(268,-12,qs)
);
},
{
closed = 1;
nodes = (
(328,36,o),
(408,74,o),
(467,143,o),
(499,237,o),
(499,292,qs),
(499,330,o),
(478,393,o),
(438,439,o),
(381,464,o),
(345,464,qs),
(297,464,o),
(215,424,o),
(155,353,o),
(121,258,o),
(121,203,qs),
(121,127,o),
(208,36,o),
(280,36,qs)
);
}
);
width = 591;
},
{
layerId = "2916D4A4-8684-4E16-97E6-1E1555060A99";
shapes = (
{
closed = 1;
nodes = (
(309,-12,o),
(267,-3,o),
(232,13,o),
(204,38,o),
(194,53,q),
(163,0,l),
(12,0,l),
(140,726,l),
(313,726,l),
(264,451,l),
(291,477,o),
(370,512,o),
(422,512,qs),
(466,512,o),
(540,479,o),
(594,420,o),
(624,341,o),
(624,294,qs),
(624,232,o),
(580,121,o),
(502,37,o),
(396,-12,o),
(334,-12,qs)
);
},
{
closed = 1;
nodes = (
(344,138,o),
(391,158,o),
(426,192,o),
(446,238,o),
(446,264,qs),
(446,284,o),
(432,319,o),
(406,346,o),
(369,362,o),
(346,362,qs),
(319,362,o),
(272,342,o),
(238,308,o),
(219,260,o),
(219,233,qs),
(219,193,o),
(272,138,o),
(317,138,qs)
);
}
);
width = 662;
},
{
layerId = "C58D79E9-5C27-47CF-BCFD-A6E10D98D405";
shapes = (
{
closed = 1;
nodes = (
(257,-12,o),
(204,4,o),
(161,30,o),
(130,65,o),
(121,83,q),
(97,0,l),
(17,0,l),
(145,726,l),
(234,726,l),
(180,423,l),
(212,460,o),
(303,512,o),
(370,512,qs),
(418,512,o),
(494,479,o),
(548,422,o),
(576,343,o),
(576,298,qs),
(576,232,o),
(532,119,o),
(455,36,o),
(349,-12,o),
(287,-12,qs)
);
},
{
closed = 1;
nodes = (
(333,65,o),
(404,98,o),
(455,157,o),
(484,237,o),
(484,284,qs),
(484,317,o),
(465,372,o),
(429,412,o),
(377,435,o),
(345,435,qs),
(303,435,o),
(231,400,o),
(178,340,o),
(149,259,o),
(149,212,qs),
(149,146,o),
(226,65,o),
(291,65,qs)
);
}
);
width = 611;
},
{
layerId = "13CE2B3A-5842-4154-B805-A41E50C98059";
shapes = (
{
closed = 1;
nodes = (
(236,-12,o),
(179,7,o),
(133,37,o),
(100,76,o),
(92,95,q),
(71,0,l),
(19,0,l),
(147,726,l),
(203,726,l),
(147,412,l),
(180,453,o),
(276,512,o),
(349,512,qs),
(399,512,o),
(476,479,o),
(529,422,o),
(557,344,o),
(557,299,qs),
(557,232,o),
(513,118,o),
(436,35,o),
(330,-12,o),
(268,-12,qs)
);
},
{
closed = 1;
nodes = (
(328,36,o),
(408,74,o),
(467,143,o),
(499,237,o),
(499,292,qs),
(499,330,o),
(478,393,o),
(438,439,o),
(381,464,o),
(345,464,qs),
(297,464,o),
(215,424,o),
(155,353,o),
(121,258,o),
(121,203,qs),
(121,127,o),
(208,36,o),
(280,36,qs)
);
}
);
width = 591;
}
);
rightKerningGroup = b;
unicode = 98;
}
{
glyphname = c;
layers = (
{
layerId = "6381F42F-F1FF-4F15-8745-0EB25D66EBC4";
name = "#instance";
shapes = (
{
closed = 1;
nodes = (
(121,-12,o),
(36,74,o),
(36,201,cs),
(36,380,o),
(169,512,o),
(338,512,cs),
(461,512,o),
(536,445,o),
(538,335,c),
(447,335,l),
(446,401,o),
(391,436,o),
(326,436,cs),
(217,436,o),
(129,342,o),
(129,210,cs),
(129,118,o),
(186,63,o),
(260,63,cs),
(327,63,o),
(390,97,o),
(418,165,c),
(508,165,l),
(470,60,o),
(368,-12,o),
(246,-12,cs)
);
}
);
width = 561;
},
{
layerId = "84C8819D-02E3-4D9D-80EE-F3CA29327F71";
shapes = (
{
closed = 1;
nodes = (
(127,-12,o),
(38,75,o),
(38,205,cs),
(38,371,o),
(171,512,o),
(360,512,cs),
(498,512,o),
(586,434,o),
(586,300,c),
(402,300,l),
(401,340,o),
(375,365,o),
(334,365,cs),
(268,365,o),
(216,298,o),
(216,221,cs),
(216,169,o),
(243,135,o),
(292,135,cs),
(337,135,o),
(370,160,o),
(385,200,c),
(569,200,l),
(522,70,o),
(403,-12,o),
(268,-12,cs)
);
}
);
width = 619;
},
{
layerId = "44586365-17B2-4B09-91E8-CEE5E00BC966";
shapes = (
{
closed = 1;
nodes = (
(121,-12,o),
(36,74,o),
(36,201,cs),
(36,380,o),
(169,512,o),
(338,512,cs),
(461,512,o),
(536,445,o),
(538,335,c),
(447,335,l),
(446,401,o),
(391,436,o),
(326,436,cs),
(217,436,o),
(129,342,o),
(129,210,cs),
(129,118,o),
(186,63,o),
(260,63,cs),
(327,63,o),
(390,97,o),
(418,165,c),
(508,165,l),
(470,60,o),
(368,-12,o),
(246,-12,cs)
);
}
);
width = 561;
},
{
layerId = "EC825F25-5E21-4444-B100-FC828A5BE381";
shapes = (
{
closed = 1;
nodes = (
(118,-12,o),
(35,74,o),
(35,199,cs),
(35,383,o),
(168,512,o),
(328,512,cs),
(446,512,o),
(515,449,o),
(518,349,c),
(464,349,l),
(464,426,o),
(397,465,o),
(322,465,cs),
(196,465,o),
(94,359,o),
(94,206,cs),
(94,97,o),
(162,34,o),
(246,34,cs),
(323,34,o),
(398,72,o),
(430,151,c),
(483,151,l),
(448,56,o),
(354,-12,o),
(237,-12,cs)
);
}
);
width = 538;
}
);
leftKerningGroup = a2;
unicode = 99;
}
{
glyphname = d;
layers = (
{
layerId = "2916D4A4-8684-4E16-97E6-1E1555060A99";
shapes = (
{
closed = 1;
nodes = (
(190,-12,o),
(118,22,o),
(67,81,o),
(39,162,o),
(39,210,qs),
(39,274,o),
(83,384,o),
(159,465,o),
(262,512,o),
(320,512,qs),
(380,512,o),
(449,473,o),
(466,447,q),
(514,726,l),
(687,726,l),
(560,0,l),
(407,0,l),
(397,60,l),
(384,45,o),
(351,19,o),
(311,-1,o),
(263,-12,o),
(234,-12,qs)
);
},
{
closed = 1;
nodes = (
(337,138,o),
(385,160,o),
(420,197,o),
(441,245,o),
(441,271,qs),
(441,311,o),
(390,362,o),
(345,362,qs),
(318,362,o),
(271,341,o),
(237,306,o),
(218,259,o),
(218,233,qs),
(218,213,o),
(230,178,o),
(253,153,o),
(288,138,o),
(310,138,qs)
);
}
);
width = 660;
},
{
layerId = "C58D79E9-5C27-47CF-BCFD-A6E10D98D405";
shapes = (
{
closed = 1;
nodes = (
(194,-12,o),
(117,23,o),
(65,83,o),
(37,163,o),
(37,209,qs),
(37,275,o),
(81,386,o),
(158,467,o),
(262,512,o),
(322,512,qs),
(388,512,o),
(471,461,o),
(491,418,q),
(546,726,l),
(635,726,l),
(506,0,l),
(425,0,l),
(431,82,l),
(416,64,o),
(380,30,o),
(333,4,o),
(277,-12,o),
(242,-12,qs)
);
},
{
closed = 1;
nodes = (
(310,65,o),
(382,101,o),
(434,163,o),
(463,246,o),
(463,292,qs),
(463,358,o),
(390,435,o),
(326,435,qs),
(284,435,o),
(211,402,o),
(159,343,o),
(129,264,o),
(129,217,qs),
(129,185,o),
(148,129,o),
(184,88,o),
(235,65,o),
(268,65,qs)
);
}
);
width = 613;
},
{
layerId = "13CE2B3A-5842-4154-B805-A41E50C98059";
shapes = (
{
closed = 1;
nodes = (
(195,-12,o),
(117,23,o),
(64,84,o),
(36,164,o),
(36,209,qs),
(36,276,o),
(80,387,o),
(157,467,o),
(262,512,o),
(323,512,qs),
(392,512,o),
(480,456,o),
(501,406,q),
(559,726,l),
(614,726,l),
(485,0,l),
(432,0,l),
(445,91,l),
(430,72,o),
(391,34,o),
(342,6,o),
(282,-12,o),
(245,-12,qs)
);
},
{
closed = 1;
nodes = (
(299,36,o),
(381,77,o),
(439,149,o),
(472,245,o),
(472,300,qs),
(472,376,o),
(390,464,o),
(318,464,qs),
(270,464,o),
(187,426,o),
(127,358,o),
(93,265,o),
(93,211,qs),
(93,174,o),
(115,109,o),
(156,63,o),
(215,36,o),
(251,36,qs)
);
}
);
width = 594;
}
);
leftKerningGroup = a2;
unicode = 100;
}
{
glyphname = e;
layers = (
{
layerId = "006414F6-AB32-4F37-AE27-2ADC4DCE78FB";
shapes = (
{
closed = 1;
nodes = (
(126,-12,o),
(38,70,o),
(38,203,cs),
(38,367,o),
(166,512,o),
(362,512,cs),
(495,512,o),
(586,430,o),
(586,305,cs),
(586,268,o),
(578,234,o),
(570,207,c),
(209,207,l),
(209,154,o),
(241,127,o),
(292,127,cs),
(328,127,o),
(354,144,o),
(373,165,c),
(550,165,l),
(501,65,o),
(390,-12,o),
(270,-12,cs)
);
},
{
closed = 1;
nodes = (
(413,302,l),
(416,344,o),
(387,375,o),
(340,375,cs),
(292,375,o),
(253,352,o),
(230,302,c)
);
}
);
width = 616;
},
{
layerId = "797178CA-EA28-4B78-93E8-321876F1BDF3";
shapes = (
{
closed = 1;
nodes = (
(116,-12,o),
(36,71,o),
(36,199,cs),
(36,373,o),
(161,512,o),
(335,512,cs),
(465,512,o),
(536,427,o),
(536,321,cs),
(536,293,o),
(528,255,o),
(523,230,c),
(126,230,l),
(115,141,o),
(157,62,o),
(256,62,cs),
(325,62,o),
(376,98,o),
(406,150,c),
(495,150,l),
(452,57,o),
(361,-12,o),
(243,-12,cs)
);
},
{
closed = 1;
nodes = (
(447,296,l),
(454,380,o),
(415,438,o),
(323,438,cs),
(243,438,o),
(165,388,o),
(140,296,c)
);
}
);
width = 560;
},
{
layerId = "9F3B9F63-BB4B-4875-904D-0FA4124C677C";
shapes = (
{
closed = 1;
nodes = (
(112,-12,o),
(35,72,o),
(35,198,cs),
(35,375,o),
(158,512,o),
(323,512,cs),
(453,512,o),
(515,426,o),
(515,328,cs),
(515,303,o),
(508,264,o),
(503,239,c),
(92,239,l),
(77,136,o),
(123,36,o),
(241,36,cs),
(323,36,o),
(384,79,o),
(419,144,c),
(472,144,l),
(432,54,o),
(349,-12,o),
(231,-12,cs)
);
},
{
closed = 1;
nodes = (
(460,294,l),
(469,395,o),
(425,463,o),
(315,463,cs),
(223,463,o),
(129,403,o),
(103,294,c)
);
}
);
width = 537;
}
);
leftKerningGroup = a2;
rightKerningGroup = e;
unicode = 101;
}
{
glyphname = f;
layers = (
{
layerId = "84C8819D-02E3-4D9D-80EE-F3CA29327F71";
shapes = (
{
closed = 1;
nodes = (
(32,0,l),
(96,357,l),
(31,357,l),
(57,500,l),
(121,500,l),
(126,530,ls),
(153,676,o),
(242,726,o),
(359,726,cs),
(418,726,l),
(392,580,l),
(359,580,ls),
(320,580,o),
(306,566,o),
(298,532,c),
(292,500,l),
(385,500,l),
(360,357,l),
(267,357,l),
(205,0,l)
);
}
);
width = 379;
},
{
layerId = "44586365-17B2-4B09-91E8-CEE5E00BC966";
shapes = (
{
closed = 1;
nodes = (
(44,0,l),
(119,425,l),
(45,425,l),
(60,500,l),
(133,500,l),
(147,584,ls),
(164,683,o),
(225,726,o),
(318,726,cs),
(368,726,l),
(355,650,l),
(318,650,ls),
(268,650,o),
(246,632,o),
(236,582,c),
(222,500,l),
(344,500,l),
(330,425,l),
(209,425,l),
(133,0,l)
);
}
);
width = 325;
},
{
layerId = "EC825F25-5E21-4444-B100-FC828A5BE381";
shapes = (
{
closed = 1;
nodes = (
(48,0,l),
(128,452,l),
(50,452,l),
(60,500,l),
(137,500,l),
(155,606,ls),
(168,686,o),
(218,726,o),
(301,726,cs),
(348,726,l),
(340,678,l),
(301,678,ls),
(246,678,o),
(222,658,o),
(211,602,c),
(193,500,l),
(327,500,l),
(318,452,l),
(185,452,l),
(104,0,l)
);
}
);
width = 303;
},
{
layerId = "6381F42F-F1FF-4F15-8745-0EB25D66EBC4";
name = "#instance";
shapes = (
{
closed = 1;
nodes = (
(44,0,l),
(119,425,l),
(45,425,l),
(60,500,l),
(133,500,l),
(147,584,ls),
(164,683,o),
(225,726,o),
(318,726,cs),
(368,726,l),
(355,650,l),
(318,650,ls),
(268,650,o),
(246,632,o),
(236,582,c),
(222,500,l),
(344,500,l),
(330,425,l),
(209,425,l),
(133,0,l)
);
}
);
width = 325;
}
);
unicode = 102;
}
{
glyphname = g;
layers = (
{
layerId = "006414F6-AB32-4F37-AE27-2ADC4DCE78FB";
shapes = (
{
closed = 1;
nodes = (
(132,-234,o),
(-3,-181,o),
(10,-22,c),
(182,-22,l),
(178,-64,o),
(219,-85,o),
(275,-85,cs),
(330,-85,o),
(391,-55,o),
(404,21,cs),
(413,74,l),
(377,33,o),
(323,4,o),
(250,4,cs),
(124,4,o),
(40,99,o),
(40,218,cs),
(40,380,o),
(170,512,o),
(329,512,cs),
(393,512,o),
(452,487,o),
(479,448,c),
(505,500,l),
(660,500,l),
(578,32,ls),
(543,-160,o),
(395,-234,o),
(254,-234,cs)
);
},
{
closed = 1;
nodes = (
(386,152,o),
(446,207,o),
(446,274,cs),
(446,322,o),
(410,362,o),
(347,362,cs),
(275,362,o),
(218,308,o),
(218,242,cs),
(218,195,o),
(251,152,o),
(315,152,cs)
);
}
);
width = 672;
},
{
layerId = "797178CA-EA28-4B78-93E8-321876F1BDF3";
shapes = (
{
closed = 1;
nodes = (
(102,-234,o),
(5,-165,o),
(5,-42,c),
(94,-42,l),
(101,-113,o),
(157,-156,o),
(243,-156,cs),
(338,-156,o),
(426,-94,o),
(447,27,cs),
(458,100,l),
(417,43,o),
(345,-9,o),
(248,-9,cs),
(123,-9,o),
(37,85,o),
(37,208,cs),
(37,374,o),
(165,512,o),
(334,512,cs),
(421,512,o),
(489,469,o),
(514,412,c),
(545,500,l),
(619,500,l),
(534,21,l),
(507,-137,o),
(386,-234,o),
(232,-234,cs)
);
},
{
closed = 1;
nodes = (
(390,68,o),
(486,170,o),
(486,290,cs),
(486,377,o),
(421,435,o),
(335,435,cs),
(213,435,o),
(129,335,o),
(129,216,cs),
(129,128,o),
(187,68,o),
(275,68,cs)
);
}
);
width = 636;
},
{
layerId = "9F3B9F63-BB4B-4875-904D-0FA4124C677C";
shapes = (
{
closed = 1;
nodes = (
(89,-234,o),
(8,-158,o),
(3,-50,c),
(58,-50,l),
(69,-132,o),
(132,-185,o),
(229,-185,cs),
(341,-185,o),
(439,-110,o),
(463,30,cs),
(476,110,l),
(433,47,o),
(353,-14,o),
(246,-14,cs),
(122,-14,o),
(35,80,o),
(35,204,cs),
(35,372,o),
(162,512,o),
(335,512,cs),
(432,512,o),
(503,462,o),
(528,398,c),
(560,500,l),
(602,500,l),
(516,17,l),
(492,-128,o),
(382,-234,o),
(222,-234,cs)
);
},
{
closed = 1;
nodes = (
(391,34,o),
(501,155,o),
(501,297,cs),
(501,399,o),
(425,464,o),
(329,464,cs),
(187,464,o),
(93,346,o),
(93,206,cs),
(93,101,o),
(161,34,o),
(259,34,cs)
);
}
);
width = 621;
}
);
leftKerningGroup = g;
unicode = 103;
}
{
glyphname = h;
layers = (
{
layerId = "84C8819D-02E3-4D9D-80EE-F3CA29327F71";
shapes = (
{
closed = 1;
nodes = (
(371,0,l),
(416,257,ls),
(428,326,o),
(412,368,o),
(347,368,cs),
(290,368,o),
(243,328,o),
(231,259,c),
(186,0,l),
(13,0,l),
(140,726,l),
(313,726,l),
(261,432,l),
(301,480,o),
(360,512,o),
(437,512,cs),
(567,512,o),
(618,424,o),
(591,272,cs),
(542,0,l)
);
}
);
width = 637;
},
{
layerId = "44586365-17B2-4B09-91E8-CEE5E00BC966";
shapes = (
{
closed = 1;
nodes = (
(382,0,l),
(432,282,ls),
(450,385,o),
(415,436,o),
(333,436,cs),
(248,436,o),
(174,374,o),
(154,260,cs),
(108,0,l),
(18,0,l),
(145,726,l),
(235,726,l),
(180,415,l),
(224,476,o),
(292,512,o),
(368,512,cs),
(486,512,o),
(550,441,o),
(523,291,cs),
(471,0,l)
);
}
);
width = 566;
},
{
layerId = "EC825F25-5E21-4444-B100-FC828A5BE381";
shapes = (
{
closed = 1;
nodes = (
(386,0,l),
(438,292,ls),
(458,409,o),
(416,463,o),
(327,463,cs),
(230,463,o),
(146,392,o),
(122,261,c),
(76,0,l),
(20,0,l),
(147,726,l),
(203,726,l),
(147,408,l),
(192,474,o),
(264,512,o),
(340,512,cs),
(453,512,o),
(522,448,o),
(495,298,cs),
(442,0,l)
);
}
);
width = 537;
}
);
rightKerningGroup = h;
unicode = 104;
}
{
glyphname = i;
layers = (
{
layerId = "79854D6D-25E7-4737-919A-271E0ABD7EDC";
shapes = (
{
closed = 1;
nodes = (
(89,545,o),
(47,584,o),
(47,635,cs),
(47,688,o),
(89,726,o),
(149,726,cs),
(211,726,o),
(252,688,o),
(252,635,cs),
(252,584,o),
(211,545,o),
(149,545,cs)
);
},
{
closed = 1;
nodes = (
(63,0,l),
(63,500,l),
(235,500,l),
(235,0,l)
);
}
);
width = 297;
},
{
layerId = "B1C61474-62B7-484B-9764-E73F45C0DC6D";
shapes = (
{
closed = 1;
nodes = (
(88,608,o),
(62,633,o),
(62,667,cs),
(62,702,o),
(88,726,o),
(122,726,cs),
(156,726,o),
(183,702,o),
(183,667,cs),
(183,633,o),
(156,608,o),
(122,608,cs)
);
},
{
closed = 1;
nodes = (
(78,0,l),
(78,500,l),
(166,500,l),
(166,0,l)
);
}
);
width = 243;
},
{
layerId = "617CD1A0-F923-462F-B4E4-BD0161ABA38E";
shapes = (
{
closed = 1;
nodes = (
(88,633,o),
(68,653,o),
(68,680,cs),
(68,708,o),
(88,726,o),
(111,726,cs),
(134,726,o),
(155,708,o),
(155,680,cs),
(155,653,o),
(134,633,o),
(111,633,cs)
);
},
{
closed = 1;
nodes = (
(84,0,l),
(84,500,l),
(139,500,l),
(139,0,l)
);
}
);
width = 222;
}
);
unicode = 105;
}
{
glyphname = j;
layers = (
{
layerId = "88E046F8-FFD6-404C-A200-1EAAA281430D";
name = "#instance";
shapes = (
{
closed = 1;
nodes = (
(162,634,o),
(136,660,o),
(136,680,qs),
(136,701,o),
(162,726,o),
(180,726,qs),
(197,726,o),
(223,701,o),
(223,680,qs),
(223,660,o),
(197,634,o),
(180,634,qs)
);
},
{
closed = 1;
nodes = (
(-123,-222,l),
(-114,-174,l),
(-78,-174,ls),
(-36,-174,o),
(6,-140,o),
(13,-98,qs),
(119,500,l),
(174,500,l),
(69,-102,ls),
(64,-132,o),
(41,-177,o),
(4,-207,o),
(-47,-222,o),
(-78,-222,qs)
);
}
);
width = 211;
},
{
layerId = "2916D4A4-8684-4E16-97E6-1E1555060A99";
shapes = (
{
closed = 1;
nodes = (
(157,539,o),
(101,594,o),
(101,632,qs),
(101,671,o),
(157,726,o),
(204,726,qs),
(249,726,o),
(306,671,o),
(306,632,qs),
(306,594,o),
(249,539,o),
(204,539,qs)
);
},
{
closed = 1;
nodes = (
(-128,-222,l),
(-102,-76,l),
(-60,-76,ls),
(-31,-76,o),
(-5,-53,o),
(0,-28,qs),
(93,500,l),
(265,500,l),
(172,-26,ls),
(162,-81,o),
(120,-156,o),
(60,-202,o),
(-16,-222,o),
(-60,-222,qs)
);
}
);
width = 284;
},
{
layerId = "C58D79E9-5C27-47CF-BCFD-A6E10D98D405";
shapes = (
{
closed = 1;
nodes = (
(161,607,o),
(126,640,o),
(126,666,qs),
(126,692,o),
(161,726,o),
(187,726,qs),
(213,726,o),
(247,692,o),
(247,666,qs),
(247,640,o),
(213,607,o),
(187,607,qs)
);
},
{
closed = 1;
nodes = (
(-124,-222,l),
(-110,-146,l),
(-72,-146,ls),
(-34,-146,o),
(3,-115,o),
(10,-78,qs),
(112,500,l),
(200,500,l),
(99,-80,ls),
(93,-117,o),
(64,-170,o),
(20,-205,o),
(-37,-222,o),
(-72,-222,qs)
);
}
);
width = 232;
},
{
layerId = "13CE2B3A-5842-4154-B805-A41E50C98059";
shapes = (
{
closed = 1;
nodes = (
(162,634,o),
(136,660,o),
(136,680,qs),
(136,701,o),
(162,726,o),
(180,726,qs),
(197,726,o),
(223,701,o),
(223,680,qs),
(223,660,o),
(197,634,o),
(180,634,qs)
);
},
{
closed = 1;
nodes = (
(-123,-222,l),
(-114,-174,l),
(-78,-174,ls),
(-36,-174,o),
(6,-140,o),
(13,-98,qs),
(119,500,l),
(174,500,l),
(69,-102,ls),
(64,-132,o),
(41,-177,o),
(4,-207,o),
(-47,-222,o),
(-78,-222,qs)
);
}
);
width = 211;
}
);
unicode = 106;
}
{
glyphname = k;
layers = (
{
layerId = "6381F42F-F1FF-4F15-8745-0EB25D66EBC4";
name = "#instance";
shapes = (
{
closed = 1;
nodes = (
(17,0,l),
(106,0,l),
(235,726,l),
(146,726,l)
);
},
{
closed = 1;
nodes = (
(120,146,l),
(514,500,l),
(401,500,l),
(140,260,l)
);
},
{
closed = 1;
nodes = (
(201,248,l),
(348,0,l),
(452,0,l),
(265,304,l)
);
}
);
width = 508;
},
{
layerId = "84C8819D-02E3-4D9D-80EE-F3CA29327F71";
shapes = (
{
closed = 1;
nodes = (
(12,0,l),
(185,0,l),
(314,726,l),
(141,726,l)
);
},
{
closed = 1;
nodes = (
(193,95,l),
(638,500,l),
(431,500,l),
(229,303,l)
);
},
{
closed = 1;
nodes = (
(270,187,l),
(382,0,l),
(584,0,l),
(389,292,l)
);
}
);
width = 632;
},
{
layerId = "44586365-17B2-4B09-91E8-CEE5E00BC966";
shapes = (
{
closed = 1;
nodes = (
(17,0,l),
(106,0,l),
(235,726,l),
(146,726,l)
);
},
{
closed = 1;
nodes = (
(120,146,l),
(514,500,l),
(401,500,l),
(140,260,l)
);
},
{
closed = 1;
nodes = (
(201,248,l),
(348,0,l),
(452,0,l),
(265,304,l)
);
}
);
width = 508;
},
{
layerId = "EC825F25-5E21-4444-B100-FC828A5BE381";
shapes = (
{
closed = 1;
nodes = (
(19,0,l),
(75,0,l),
(204,726,l),
(148,726,l)
);
},
{
closed = 1;
nodes = (
(91,167,l),
(464,500,l),
(389,500,l),
(104,243,l)
);
},
{
closed = 1;
nodes = (
(173,272,l),
(334,0,l),
(399,0,l),
(216,309,l)
);
}
);
width = 458;
}
);
rightKerningGroup = k;
unicode = 107;
}
{
glyphname = l;
layers = (
{
layerId = "006414F6-AB32-4F37-AE27-2ADC4DCE78FB";
shapes = (
{
closed = 1;
nodes = (
(12,0,l),
(141,726,l),
(314,726,l),
(185,0,l)
);
}
);
width = 286;
},
{
layerId = "797178CA-EA28-4B78-93E8-321876F1BDF3";
shapes = (
{
closed = 1;
nodes = (
(17,0,l),
(146,726,l),
(236,726,l),
(107,0,l)
);
}
);
width = 213;
},
{
layerId = "9F3B9F63-BB4B-4875-904D-0FA4124C677C";
shapes = (
{
closed = 1;
nodes = (
(19,0,l),
(148,726,l),
(204,726,l),
(75,0,l)
);
}
);
width = 184;
}
);
unicode = 108;
}
{
glyphname = m;
layers = (
{
layerId = "2916D4A4-8684-4E16-97E6-1E1555060A99";
shapes = (
{
closed = 1;
nodes = (
(700,0,l),
(745,257,ls),
(754,309,o),
(720,368,o),
(676,368,qs),
(657,368,o),
(625,355,o),
(601,329,o),
(583,293,o),
(577,270,q),
(528,0,l),
(357,0,l),
(402,257,ls),
(411,309,o),
(380,368,o),
(335,368,qs),
(314,368,o),
(280,353,o),
(253,324,o),
(236,283,o),
(231,257,qs),
(186,0,l),
(13,0,l),
(101,500,l),
(251,500,l),
(255,439,l),
(283,472,o),
(360,512,o),
(412,512,qs),
(469,512,o),
(544,471,o),
(565,429,q),
(599,467,o),
(689,512,o),
(744,512,qs),
(797,512,o),
(873,480,o),
(917,418,o),
(930,329,o),
(919,272,q),
(871,0,l)
);
}
);
width = 966;
},
{
layerId = "C58D79E9-5C27-47CF-BCFD-A6E10D98D405";
shapes = (
{
closed = 1;
nodes = (
(698,0,l),
(747,282,ls),
(761,360,o),
(711,436,o),
(657,436,qs),
(631,436,o),
(582,415,o),
(539,375,o),
(506,316,o),
(496,277,q),
(447,0,l),
(358,0,l),
(407,282,ls),
(421,360,o),
(373,436,o),
(319,436,qs),
(291,436,o),
(238,413,o),
(193,368,o),
(160,301,o),
(152,258,qs),
(107,0,l),
(18,0,l),
(106,500,l),
(185,500,l),
(178,417,l),
(207,462,o),
(293,512,o),
(345,512,qs),
(400,512,o),
(480,464,o),
(495,410,q),
(527,459,o),
(627,512,o),
(680,512,qs),
(722,512,o),
(789,485,o),
(832,431,o),
(847,348,o),
(838,291,q),
(786,0,l)
);
}
);
width = 881;
},
{
layerId = "13CE2B3A-5842-4154-B805-A41E50C98059";
shapes = (
{
closed = 1;
nodes = (
(697,0,l),
(748,292,ls),
(763,380,o),
(708,463,o),
(650,463,qs),
(621,463,o),
(564,439,o),
(515,393,o),
(475,325,o),
(464,280,q),
(414,0,l),
(358,0,l),
(409,292,ls),
(425,380,o),
(370,463,o),
(312,463,qs),
(282,463,o),
(221,437,o),
(169,385,o),
(130,309,o),
(121,259,qs),
(76,0,l),
(20,0,l),
(108,500,l),
(158,500,l),
(147,408,l),
(177,458,o),
(266,512,o),
(318,512,qs),
(373,512,o),
(454,461,o),
(467,403,q),
(499,456,o),
(603,512,o),
(655,512,qs),
(693,512,o),
(756,488,o),
(798,436,o),
(815,355,o),
(806,298,q),
(752,0,l)
);
}
);
width = 847;
}
);
leftKerningGroup = m;
rightKerningGroup = h;
unicode = 109;
}
{
glyphname = n;
layers = (
{
layerId = "006414F6-AB32-4F37-AE27-2ADC4DCE78FB";
shapes = (
{
closed = 1;
nodes = (
(371,0,l),
(416,257,ls),
(419,272,o),
(420,283,o),
(420,294,cs),
(420,342,o),
(399,368,o),
(347,368,cs),
(290,368,o),
(243,326,o),
(231,257,cs),
(186,0,l),
(13,0,l),
(101,500,l),
(251,500,l),
(256,426,l),
(295,478,o),
(353,512,o),
(433,512,cs),
(541,512,o),
(598,451,o),
(598,342,cs),
(598,321,o),
(595,297,o),
(591,272,cs),
(542,0,l)
);
}
);
width = 637;
},
{
layerId = "797178CA-EA28-4B78-93E8-321876F1BDF3";
shapes = (
{
closed = 1;
nodes = (
(382,0,l),
(432,282,ls),
(435,301,o),
(437,316,o),
(437,330,cs),
(437,401,o),
(400,436,o),
(333,436,cs),
(250,436,o),
(178,376,o),
(155,268,c),
(108,0,l),
(18,0,l),
(106,500,l),
(186,500,l),
(178,412,l),
(220,475,o),
(290,512,o),
(367,512,cs),
(468,512,o),
(528,456,o),
(528,351,cs),
(528,331,o),
(527,313,o),
(523,291,cs),
(471,0,l)
);
}
);
width = 566;
},
{
layerId = "9F3B9F63-BB4B-4875-904D-0FA4124C677C";
shapes = (
{
closed = 1;
nodes = (
(386,0,l),
(438,292,l),
(441,312,o),
(443,329,o),
(443,344,cs),
(443,424,o),
(400,463,o),
(327,463,cs),
(233,463,o),
(151,396,o),
(124,272,c),
(76,0,l),
(20,0,l),
(108,500,l),
(160,500,l),
(146,406,l),
(190,474,o),
(264,512,o),
(340,512,cs),
(438,512,o),
(500,458,o),
(500,354,cs),
(500,335,o),
(499,319,o),
(495,298,cs),
(442,0,l)
);
}
);
width = 537;
}
);
leftKerningGroup = m;
rightKerningGroup = h;
unicode = 110;
}
{
glyphname = o;
layers = (
{
layerId = "6381F42F-F1FF-4F15-8745-0EB25D66EBC4";
name = "#instance";
shapes = (
{
closed = 1;
nodes = (
(125,-12,o),
(37,81,o),
(37,207,cs),
(37,381,o),
(168,512,o),
(333,512,cs),
(459,512,o),
(548,424,o),
(548,296,cs),
(548,123,o),
(416,-12,o),
(251,-12,cs)
);
},
{
closed = 1;
nodes = (
(372,64,o),
(456,162,o),
(456,290,cs),
(456,383,o),
(394,436,o),
(323,436,cs),
(213,436,o),
(129,338,o),
(129,210,cs),
(129,117,o),
(191,64,o),
(262,64,cs)
);
}
);
width = 584;
},
{
layerId = "84C8819D-02E3-4D9D-80EE-F3CA29327F71";
shapes = (
{
closed = 1;
nodes = (
(130,-12,o),
(40,86,o),
(40,215,cs),
(40,382,o),
(171,512,o),
(343,512,cs),
(480,512,o),
(574,418,o),
(574,285,cs),
(574,119,o),
(441,-12,o),
(267,-12,cs)
);
},
{
closed = 1;
nodes = (
(351,137,o),
(396,198,o),
(396,278,cs),
(396,332,o),
(366,363,o),
(325,363,cs),
(263,363,o),
(217,302,o),
(217,222,cs),
(217,168,o),
(248,137,o),
(289,137,cs)
);
}
);
width = 614;
},
{
layerId = "44586365-17B2-4B09-91E8-CEE5E00BC966";
shapes = (
{
closed = 1;
nodes = (
(125,-12,o),
(37,81,o),
(37,207,cs),
(37,381,o),
(168,512,o),
(333,512,cs),
(459,512,o),
(548,424,o),
(548,296,cs),
(548,123,o),
(416,-12,o),
(251,-12,cs)
);
},
{
closed = 1;
nodes = (
(372,64,o),
(456,162,o),
(456,290,cs),
(456,383,o),
(394,436,o),
(323,436,cs),
(213,436,o),
(129,338,o),
(129,210,cs),
(129,117,o),
(191,64,o),
(262,64,cs)
);
}
);
width = 584;
},
{
layerId = "EC825F25-5E21-4444-B100-FC828A5BE381";
shapes = (
{
closed = 1;
nodes = (
(123,-12,o),
(35,79,o),
(35,204,cs),
(35,381,o),
(166,512,o),
(328,512,cs),
(450,512,o),
(537,427,o),
(537,301,cs),
(537,124,o),
(405,-12,o),
(244,-12,cs)
);
},
{
closed = 1;
nodes = (
(380,35,o),
(480,148,o),
(480,295,cs),
(480,404,o),
(405,465,o),
(321,465,cs),
(193,465,o),
(93,352,o),
(93,205,cs),
(93,96,o),
(167,35,o),
(251,35,cs)
);
}
);
width = 572;
}
);
leftKerningGroup = a2;
rightKerningGroup = b;
unicode = 111;
}
{
glyphname = p;
layers = (
{
layerId = "2916D4A4-8684-4E16-97E6-1E1555060A99";
shapes = (
{
closed = 1;
nodes = (
(-25,-222,l),
(101,500,l),
(252,500,l),
(262,440,l),
(291,474,o),
(370,512,o),
(422,512,qs),
(466,512,o),
(540,479,o),
(594,420,o),
(624,341,o),
(624,294,qs),
(624,232,o),
(580,121,o),
(502,37,o),
(396,-12,o),
(334,-12,qs),
(309,-12,o),
(267,-3,o),
(232,13,o),
(204,38,o),
(194,53,q),
(147,-222,l)
);
},
{
closed = 1;
nodes = (
(344,138,o),
(391,158,o),
(426,192,o),
(446,238,o),
(446,264,qs),
(446,284,o),
(432,319,o),
(406,346,o),
(369,362,o),
(346,362,qs),
(319,362,o),
(272,342,o),
(238,308,o),
(219,260,o),
(219,233,qs),
(219,193,o),
(272,138,o),
(317,138,qs)
);
}
);
width = 662;
},
{
layerId = "C58D79E9-5C27-47CF-BCFD-A6E10D98D405";
shapes = (
{
closed = 1;
nodes = (
(-21,-222,l),
(106,500,l),
(188,500,l),
(182,418,l),
(213,458,o),
(304,512,o),
(371,512,qs),
(419,512,o),
(495,479,o),
(549,422,o),
(577,343,o),
(577,298,qs),
(577,232,o),
(533,119,o),
(456,36,o),
(350,-12,o),
(288,-12,qs),
(258,-12,o),
(205,4,o),
(162,30,o),
(131,65,o),
(122,83,q),
(67,-222,l)
);
},
{
closed = 1;
nodes = (
(334,65,o),
(405,98,o),
(456,157,o),
(485,237,o),
(485,284,qs),
(485,317,o),
(466,372,o),
(430,412,o),
(378,435,o),
(346,435,qs),
(304,435,o),
(232,400,o),
(179,340,o),
(150,259,o),
(150,212,qs),
(150,146,o),
(227,65,o),
(292,65,qs)
);
}
);
width = 613;
},
{
layerId = "13CE2B3A-5842-4154-B805-A41E50C98059";
shapes = (
{
closed = 1;
nodes = (
(-20,-222,l),
(108,500,l),
(162,500,l),
(149,409,l),
(181,452,o),
(277,512,o),
(350,512,qs),
(400,512,o),
(477,479,o),
(530,422,o),
(558,344,o),
(558,299,qs),
(558,232,o),
(514,118,o),
(437,35,o),
(331,-12,o),
(269,-12,qs),
(237,-12,o),
(180,7,o),
(134,37,o),
(101,76,o),
(93,95,q),
(35,-222,l)
);
},
{
closed = 1;
nodes = (
(329,36,o),
(409,74,o),
(468,143,o),
(500,237,o),
(500,292,qs),
(500,330,o),
(479,393,o),
(439,439,o),
(382,464,o),
(346,464,qs),
(298,464,o),
(216,424,o),
(156,353,o),
(122,258,o),
(122,203,qs),
(122,127,o),
(209,36,o),
(281,36,qs)
);
}
);
width = 593;
}
);
rightKerningGroup = b;
unicode = 112;
}
{
glyphname = q;
layers = (
{
layerId = "84C8819D-02E3-4D9D-80EE-F3CA29327F71";
shapes = (
{
closed = 1;
nodes = (
(350,-222,l),
(397,60,l),
(362,20,o),
(311,-12,o),
(234,-12,cs),
(116,-12,o),
(39,83,o),
(39,210,cs),
(39,380,o),
(164,512,o),
(320,512,cs),
(399,512,o),
(443,482,o),
(466,447,c),
(496,500,l),
(647,500,l),
(522,-222,l)
);
},
{
closed = 1;
nodes = (
(382,138,o),
(441,202,o),
(441,271,cs),
(441,324,o),
(404,362,o),
(345,362,cs),
(272,362,o),
(218,303,o),
(218,233,cs),
(218,180,o),
(250,138,o),
(310,138,cs)
);
}
);
width = 662;
},
{
layerId = "44586365-17B2-4B09-91E8-CEE5E00BC966";
shapes = (
{
closed = 1;
nodes = (
(379,-222,l),
(431,82,l),
(392,34,o),
(334,-12,o),
(242,-12,cs),
(113,-12,o),
(37,87,o),
(37,209,cs),
(37,385,o),
(162,512,o),
(322,512,cs),
(410,512,o),
(464,475,o),
(491,418,c),
(515,500,l),
(595,500,l),
(468,-222,l)
);
},
{
closed = 1;
nodes = (
(381,65,o),
(463,168,o),
(463,292,cs),
(463,379,o),
(411,435,o),
(326,435,cs),
(213,435,o),
(129,341,o),
(129,217,cs),
(129,131,o),
(181,65,o),
(268,65,cs)
);
}
);
width = 613;
},
{
layerId = "EC825F25-5E21-4444-B100-FC828A5BE381";
shapes = (
{
closed = 1;
nodes = (
(391,-222,l),
(445,91,l),
(404,39,o),
(343,-12,o),
(245,-12,cs),
(112,-12,o),
(36,89,o),
(36,209,cs),
(36,387,o),
(161,512,o),
(323,512,cs),
(414,512,o),
(473,472,o),
(501,406,c),
(522,500,l),
(574,500,l),
(447,-222,l)
);
},
{
closed = 1;
nodes = (
(380,36,o),
(472,154,o),
(472,300,cs),
(472,401,o),
(414,464,o),
(318,464,cs),
(189,464,o),
(93,356,o),
(93,211,cs),
(93,111,o),
(154,36,o),
(251,36,cs)
);
}
);
width = 594;
},
{
layerId = "6381F42F-F1FF-4F15-8745-0EB25D66EBC4";
name = "#instance";
shapes = (
{
closed = 1;
nodes = (
(379,-222,l),
(431,82,l),
(392,34,o),
(334,-12,o),
(242,-12,cs),
(113,-12,o),
(37,87,o),
(37,209,cs),
(37,385,o),
(162,512,o),
(322,512,cs),
(410,512,o),
(464,475,o),
(491,418,c),
(515,500,l),
(595,500,l),
(468,-222,l)
);
},
{
closed = 1;
nodes = (
(381,65,o),
(463,168,o),
(463,292,cs),
(463,379,o),
(411,435,o),
(326,435,cs),
(213,435,o),
(129,341,o),
(129,217,cs),
(129,131,o),
(181,65,o),
(268,65,cs)
);
}
);
width = 613;
}
);
leftKerningGroup = a2;
unicode = 113;
}
{
glyphname = r;
layers = (
{
layerId = "006414F6-AB32-4F37-AE27-2ADC4DCE78FB";
shapes = (
{
closed = 1;
nodes = (
(13,0,l),
(101,500,l),
(253,500,l),
(255,408,l),
(304,470,o),
(375,512,o),
(453,512,c),
(420,330,l),
(373,330,ls),
(291,330,o),
(239,301,o),
(222,205,cs),
(186,0,l)
);
}
);
width = 428;
},
{
layerId = "797178CA-EA28-4B78-93E8-321876F1BDF3";
shapes = (
{
closed = 1;
nodes = (
(18,0,l),
(106,500,l),
(187,500,l),
(179,410,l),
(224,474,o),
(295,512,o),
(385,512,c),
(368,419,l),
(344,419,ls),
(255,419,o),
(174,381,o),
(155,266,cs),
(108,0,l)
);
}
);
width = 360;
},
{
layerId = "9F3B9F63-BB4B-4875-904D-0FA4124C677C";
shapes = (
{
closed = 1;
nodes = (
(20,0,l),
(108,500,l),
(160,500,l),
(148,411,l),
(192,476,o),
(263,512,o),
(357,512,c),
(347,455,l),
(332,455,ls),
(240,455,o),
(148,413,o),
(127,290,cs),
(76,0,l)
);
}
);
width = 333;
}
);
leftKerningGroup = m;
rightKerningGroup = r;
unicode = 114;
}
{
glyphname = s;
layers = (
{
layerId = "84C8819D-02E3-4D9D-80EE-F3CA29327F71";
shapes = (
{
closed = 1;
nodes = (
(91,-12,o),
(6,72,o),
(14,167,c),
(185,167,l),
(185,131,o),
(218,113,o),
(258,113,cs),
(301,113,o),
(321,134,o),
(321,154,cs),
(321,177,o),
(288,183,o),
(251,195,c),
(158,219,o),
(63,253,o),
(63,337,cs),
(63,442,o),
(164,512,o),
(307,512,cs),
(440,512,o),
(514,448,o),
(514,351,c),
(352,351,l),
(347,372,o),
(321,386,o),
(287,386,cs),
(252,386,o),
(230,372,o),
(230,353,cs),
(230,334,o),
(266,325,o),
(318,313,c),
(423,285,o),
(495,256,o),
(495,174,cs),
(495,60,o),
(384,-12,o),
(238,-12,cs)
);
}
);
width = 550;
},
{
layerId = "44586365-17B2-4B09-91E8-CEE5E00BC966";
shapes = (
{
closed = 1;
nodes = (
(87,-12,o),
(11,58,o),
(19,166,c),
(110,166,l),
(108,110,o),
(139,62,o),
(226,62,cs),
(295,62,o),
(341,95,o),
(341,149,cs),
(341,193,o),
(298,208,o),
(234,222,cs),
(158,238,o),
(78,269,o),
(78,353,cs),
(78,443,o),
(162,512,o),
(282,512,cs),
(389,512,o),
(459,457,o),
(455,358,c),
(367,358,l),
(369,407,o),
(334,438,o),
(272,438,cs),
(211,438,o),
(168,406,o),
(168,365,cs),
(168,326,o),
(209,309,o),
(273,295,cs),
(357,276,o),
(433,245,o),
(433,161,cs),
(433,56,o),
(339,-12,o),
(213,-12,cs)
);
}
);
width = 506;
},
{
layerId = "EC825F25-5E21-4444-B100-FC828A5BE381";
shapes = (
{
closed = 1;
nodes = (
(85,-12,o),
(13,53,o),
(21,165,c),
(80,165,l),
(77,101,o),
(107,41,o),
(212,41,cs),
(292,41,o),
(349,79,o),
(349,147,cs),
(349,200,o),
(302,218,o),
(226,233,cs),
(158,246,o),
(83,276,o),
(83,359,cs),
(83,443,o),
(161,512,o),
(271,512,cs),
(368,512,o),
(436,461,o),
(431,361,c),
(372,361,l),
(377,421,o),
(338,459,o),
(266,459,cs),
(194,459,o),
(143,419,o),
(143,370,cs),
(143,323,o),
(186,303,o),
(255,288,cs),
(330,272,o),
(408,241,o),
(408,156,cs),
(408,54,o),
(321,-12,o),
(203,-12,cs)
);
}
);
width = 488;
}
);
leftKerningGroup = s2;
rightKerningGroup = s;
unicode = 115;
}
{
glyphname = t;
layers = (
{
layerId = "6381F42F-F1FF-4F15-8745-0EB25D66EBC4";
name = "#instance";
shapes = (
{
closed = 1;
nodes = (
(203,0,ls),
(118,0,o),
(70,29,o),
(70,111,cs),
(70,124,o),
(71,140,o),
(74,157,cs),
(122,425,l),
(43,425,l),
(57,500,l),
(135,500,l),
(168,621,l),
(246,621,l),
(225,500,l),
(371,500,l),
(357,425,l),
(211,425,l),
(162,158,l),
(161,147,o),
(160,137,o),
(160,129,cs),
(160,88,o),
(181,75,o),
(231,75,cs),
(296,75,l),
(282,0,l)
);
}
);
width = 362;
},
{
layerId = "84C8819D-02E3-4D9D-80EE-F3CA29327F71";
shapes = (
{
closed = 1;
nodes = (
(259,0,ls),
(158,0,o),
(90,37,o),
(90,142,cs),
(90,158,o),
(92,176,o),
(95,196,c),
(124,357,l),
(39,357,l),
(65,500,l),
(149,500,l),
(194,647,l),
(348,647,l),
(322,500,l),
(445,500,l),
(419,357,l),
(296,357,l),
(267,194,ls),
(266,191,o),
(266,185,o),
(266,180,cs),
(266,156,o),
(279,146,o),
(312,146,cs),
(383,146,l),
(357,0,l)
);
}
);
width = 446;
},
{
layerId = "44586365-17B2-4B09-91E8-CEE5E00BC966";
shapes = (
{
closed = 1;
nodes = (
(203,0,ls),
(118,0,o),
(70,29,o),
(70,111,cs),
(70,124,o),
(71,140,o),
(74,157,cs),
(122,425,l),
(43,425,l),
(57,500,l),
(135,500,l),
(168,621,l),
(246,621,l),
(225,500,l),
(371,500,l),
(357,425,l),
(211,425,l),
(162,158,l),
(161,147,o),
(160,137,o),
(160,129,cs),
(160,88,o),
(181,75,o),
(231,75,cs),
(296,75,l),
(282,0,l)
);
}
);
width = 362;
},
{
layerId = "EC825F25-5E21-4444-B100-FC828A5BE381";
shapes = (
{
closed = 1;
nodes = (
(180,0,ls),
(102,0,o),
(62,26,o),
(62,98,cs),
(62,111,o),
(62,126,o),
(65,142,cs),
(120,452,l),
(44,452,l),
(53,500,l),
(129,500,l),
(157,611,l),
(205,611,l),
(185,500,l),
(341,500,l),
(332,452,l),
(176,452,l),
(120,143,l),
(118,129,o),
(117,118,o),
(117,109,cs),
(117,61,o),
(141,47,o),
(198,47,cs),
(261,47,l),
(252,0,l)
);
}
);
width = 328;
}
);
leftKerningGroup = t2;
rightKerningGroup = t;
unicode = 116;
}
{
glyphname = u;
layers = (
{
layerId = "006414F6-AB32-4F37-AE27-2ADC4DCE78FB";
shapes = (
{
closed = 1;
nodes = (
(278,500,l),
(233,243,ls),
(230,228,o),
(229,217,o),
(229,206,cs),
(229,158,o),
(250,132,o),
(302,132,cs),
(359,132,o),
(406,174,o),
(418,243,cs),
(463,500,l),
(636,500,l),
(548,0,l),
(398,0,l),
(393,74,l),
(354,22,o),
(296,-12,o),
(216,-12,cs),
(108,-12,o),
(51,49,o),
(51,158,cs),
(51,179,o),
(54,203,o),
(58,228,cs),
(107,500,l)
);
}
);
width = 637;
},
{
layerId = "797178CA-EA28-4B78-93E8-321876F1BDF3";
shapes = (
{
closed = 1;
nodes = (
(198,500,l),
(148,218,ls),
(145,199,o),
(143,184,o),
(143,170,cs),
(143,99,o),
(180,64,o),
(247,64,cs),
(330,64,o),
(402,124,o),
(425,232,c),
(472,500,l),
(562,500,l),
(474,0,l),
(394,0,l),
(402,88,l),
(360,25,o),
(290,-12,o),
(213,-12,cs),
(112,-12,o),
(52,44,o),
(52,149,cs),
(52,169,o),
(53,187,o),
(57,209,cs),
(109,500,l)
);
}
);
width = 566;
},
{
layerId = "9F3B9F63-BB4B-4875-904D-0FA4124C677C";
shapes = (
{
closed = 1;
nodes = (
(167,500,l),
(115,208,l),
(112,188,o),
(110,171,o),
(110,156,cs),
(110,76,o),
(153,37,o),
(226,37,cs),
(320,37,o),
(402,104,o),
(429,228,c),
(477,500,l),
(533,500,l),
(445,0,l),
(393,0,l),
(407,94,l),
(363,26,o),
(289,-12,o),
(213,-12,cs),
(115,-12,o),
(53,42,o),
(53,146,cs),
(53,165,o),
(54,181,o),
(58,202,cs),
(111,500,l)
);
}
);
width = 537;
}
);
leftKerningGroup = u;
rightKerningGroup = a;
unicode = 117;
}
{
glyphname = v;
layers = (
{
layerId = "006414F6-AB32-4F37-AE27-2ADC4DCE78FB";
shapes = (
{
closed = 1;
nodes = (
(143,0,l),
(54,500,l),
(235,500,l),
(278,161,l),
(442,500,l),
(623,500,l),
(357,0,l)
);
}
);
width = 589;
},
{
layerId = "797178CA-EA28-4B78-93E8-321876F1BDF3";
shapes = (
{
closed = 1;
nodes = (
(164,0,l),
(57,500,l),
(149,500,l),
(232,84,l),
(461,500,l),
(554,500,l),
(270,0,l)
);
}
);
width = 523;
},
{
layerId = "9F3B9F63-BB4B-4875-904D-0FA4124C677C";
shapes = (
{
closed = 1;
nodes = (
(172,0,l),
(58,500,l),
(114,500,l),
(213,53,l),
(468,500,l),
(527,500,l),
(235,0,l)
);
}
);
width = 496;
}
);
unicode = 118;
}
{
glyphname = w;
layers = (
{
layerId = "84C8819D-02E3-4D9D-80EE-F3CA29327F71";
shapes = (
{
closed = 1;
nodes = (
(114,0,l),
(54,500,l),
(224,500,l),
(237,175,l),
(378,500,l),
(568,500,l),
(595,175,l),
(722,500,l),
(891,500,l),
(656,0,l),
(477,0,l),
(444,334,l),
(293,0,l)
);
}
);
width = 857;
},
{
layerId = "44586365-17B2-4B09-91E8-CEE5E00BC966";
shapes = (
{
closed = 1;
nodes = (
(115,0,l),
(57,500,l),
(146,500,l),
(181,114,l),
(366,500,l),
(466,500,l),
(513,114,l),
(685,500,l),
(774,500,l),
(540,0,l),
(450,0,l),
(399,408,l),
(206,0,l)
);
}
);
width = 742;
},
{
layerId = "EC825F25-5E21-4444-B100-FC828A5BE381";
shapes = (
{
closed = 1;
nodes = (
(115,0,l),
(58,500,l),
(114,500,l),
(158,89,l),
(360,500,l),
(424,500,l),
(480,89,l),
(670,500,l),
(727,500,l),
(493,0,l),
(438,0,l),
(381,438,l),
(171,0,l)
);
}
);
width = 696;
}
);
leftKerningGroup = w2;
rightKerningGroup = w;
unicode = 119;
}
{
glyphname = x;
layers = (
{
layerId = "88E046F8-FFD6-404C-A200-1EAAA281430D";
name = "#instance";
shapes = (
{
closed = 1;
nodes = (
(-30,0,l),
(184,253,l),
(62,500,l),
(116,500,l),
(228,274,l),
(416,500,l),
(476,500,l),
(263,247,l),
(383,0,l),
(329,0,l),
(219,226,l),
(28,0,l)
);
}
);
width = 445;
},
{
layerId = "2916D4A4-8684-4E16-97E6-1E1555060A99";
shapes = (
{
closed = 1;
nodes = (
(-33,0,l),
(202,250,l),
(54,500,l),
(240,500,l),
(327,351,l),
(465,500,l),
(650,500,l),
(416,250,l),
(563,0,l),
(377,0,l),
(291,149,l),
(152,0,l)
);
}
);
width = 617;
},
{
layerId = "C58D79E9-5C27-47CF-BCFD-A6E10D98D405";
shapes = (
{
closed = 1;
nodes = (
(-31,0,l),
(189,252,l),
(59,500,l),
(151,500,l),
(256,296,l),
(430,500,l),
(525,500,l),
(306,248,l),
(434,0,l),
(342,0,l),
(239,204,l),
(63,0,l)
);
}
);
width = 494;
},
{
layerId = "13CE2B3A-5842-4154-B805-A41E50C98059";
shapes = (
{
closed = 1;
nodes = (
(-30,0,l),
(184,253,l),
(62,500,l),
(116,500,l),
(228,274,l),
(416,500,l),
(476,500,l),
(263,247,l),
(383,0,l),
(329,0,l),
(219,226,l),
(28,0,l)
);
}
);
width = 445;
}
);
unicode = 120;
}
{
glyphname = y;
layers = (
{
layerId = "006414F6-AB32-4F37-AE27-2ADC4DCE78FB";
shapes = (
{
closed = 1;
nodes = (
(39,-222,l),
(190,19,l),
(158,19,l),
(52,500,l),
(240,500,l),
(300,185,l),
(473,500,l),
(658,500,l),
(223,-222,l)
);
}
);
width = 622;
},
{
layerId = "797178CA-EA28-4B78-93E8-321876F1BDF3";
shapes = (
{
closed = 1;
nodes = (
(34,-222,l),
(205,47,l),
(176,47,l),
(57,500,l),
(150,500,l),
(248,114,l),
(488,500,l),
(581,500,l),
(128,-222,l)
);
}
);
width = 548;
},
{
layerId = "9F3B9F63-BB4B-4875-904D-0FA4124C677C";
shapes = (
{
closed = 1;
nodes = (
(31,-222,l),
(210,58,l),
(182,58,l),
(58,500,l),
(114,500,l),
(227,86,l),
(494,500,l),
(549,500,l),
(89,-222,l)
);
}
);
width = 518;
}
);
leftKerningGroup = y2;
rightKerningGroup = y;
unicode = 121;
}
{
glyphname = z;
layers = (
{
layerId = "79854D6D-25E7-4737-919A-271E0ABD7EDC";
shapes = (
{
closed = 1;
nodes = (
(30,0,l),
(30,137,l),
(264,358,l),
(32,358,l),
(32,500,l),
(462,500,l),
(462,363,l),
(223,142,l),
(467,142,l),
(467,0,l)
);
}
);
width = 509;
},
{
layerId = "B1C61474-62B7-484B-9764-E73F45C0DC6D";
shapes = (
{
closed = 1;
nodes = (
(35,0,l),
(35,72,l),
(312,427,l),
(39,427,l),
(39,500,l),
(411,500,l),
(411,428,l),
(134,73,l),
(416,73,l),
(416,0,l)
);
}
);
width = 459;
},
{
layerId = "617CD1A0-F923-462F-B4E4-BD0161ABA38E";
shapes = (
{
closed = 1;
nodes = (
(37,0,l),
(37,46,l),
(331,454,l),
(42,454,l),
(42,500,l),
(391,500,l),
(391,454,l),
(99,46,l),
(396,46,l),
(396,0,l)
);
}
);
width = 439;
}
);
leftKerningGroup = z;
unicode = 122;
}
{
glyphname = braceleft;
layers = (
{
layerId = "2916D4A4-8684-4E16-97E6-1E1555060A99";
shapes = (
{
closed = 1;
nodes = (
(272,-194,ls),
(197,-194,o),
(109,-123,o),
(109,-54,qs),
(109,-23,o),
(127,40,o),
(149,99,o),
(167,155,o),
(167,180,qs),
(167,206,o),
(129,239,o),
(84,241,q),
(108,377,l),
(147,379,o),
(192,402,o),
(216,441,o),
(222,497,o),
(222,531,q),
(221,549,l),
(221,606,o),
(247,702,o),
(303,772,o),
(389,811,o),
(450,811,qs),
(522,811,l),
(497,671,l),
(458,671,ls),
(443,671,o),
(419,665,o),
(402,651,o),
(391,630,o),
(388,615,qs),
(382,579,o),
(384,497,o),
(375,445,qs),
(371,420,o),
(350,375,o),
(318,340,o),
(273,316,o),
(244,310,q),
(244,308,l),
(292,298,o),
(330,243,o),
(330,205,qs),
(330,175,o),
(314,120,o),
(295,68,o),
(279,19,o),
(279,-5,qs),
(279,-34,o),
(306,-54,o),
(330,-54,qs),
(369,-54,l),
(344,-194,l)
);
}
);
width = 488;
},
{
layerId = "C58D79E9-5C27-47CF-BCFD-A6E10D98D405";
shapes = (
{
closed = 1;
nodes = (
(243,-154,ls),
(183,-154,o),
(113,-98,o),
(113,-39,qs),
(113,-7,o),
(132,57,o),
(155,119,o),
(174,178,o),
(174,206,qs),
(174,237,o),
(136,283,o),
(88,294,q),
(100,365,l),
(135,371,o),
(184,398,o),
(215,443,o),
(229,508,o),
(229,553,qs),
(229,593,ls),
(229,643,o),
(251,723,o),
(297,780,o),
(366,811,o),
(414,811,qs),
(467,811,l),
(453,736,l),
(416,736,ls),
(398,736,o),
(362,727,o),
(333,700,o),
(315,649,o),
(314,607,q),
(312,590,o),
(313,557,o),
(312,537,q),
(312,487,o),
(290,415,o),
(253,365,o),
(201,337,o),
(170,330,q),
(170,328,l),
(218,317,o),
(260,259,o),
(260,220,qs),
(260,186,o),
(242,121,o),
(219,60,o),
(201,5,o),
(201,-18,qs),
(201,-54,o),
(242,-79,o),
(272,-79,qs),
(310,-79,l),
(298,-154,l)
);
}
);
width = 414;
},
{
layerId = "13CE2B3A-5842-4154-B805-A41E50C98059";
shapes = (
{
closed = 1;
nodes = (
(232,-138,ls),
(178,-138,o),
(115,-87,o),
(115,-33,qs),
(115,0,o),
(134,64,o),
(158,127,o),
(177,188,o),
(177,217,qs),
(177,249,o),
(140,301,o),
(89,315,q),
(97,360,l),
(131,368,o),
(181,396,o),
(215,444,o),
(232,513,o),
(232,562,qs),
(232,610,ls),
(232,657,o),
(253,731,o),
(294,783,o),
(357,811,o),
(399,811,qs),
(445,811,l),
(436,762,l),
(399,762,ls),
(379,762,o),
(338,752,o),
(305,719,o),
(284,657,o),
(284,604,q),
(285,595,o),
(285,581,o),
(287,574,q),
(288,514,o),
(266,430,o),
(226,375,o),
(172,345,o),
(141,338,q),
(141,336,l),
(189,324,o),
(232,266,o),
(232,226,qs),
(232,191,o),
(213,121,o),
(189,56,o),
(170,-1,o),
(170,-23,qs),
(170,-62,o),
(217,-89,o),
(249,-89,qs),
(287,-89,l),
(279,-138,l)
);
}
);
width = 384;
}
);
unicode = 123;
}
{
glyphname = bar;
layers = (
{
layerId = "2916D4A4-8684-4E16-97E6-1E1555060A99";
shapes = (
{
closed = 1;
nodes = (
(-5,-100,l),
(140,720,l),
(311,720,l),
(166,-100,l)
);
}
);
width = 284;
},
{
layerId = "C58D79E9-5C27-47CF-BCFD-A6E10D98D405";
shapes = (
{
closed = 1;
nodes = (
(5,-100,l),
(150,720,l),
(238,720,l),
(93,-100,l)
);
}
);
width = 221;
},
{
layerId = "13CE2B3A-5842-4154-B805-A41E50C98059";
shapes = (
{
closed = 1;
nodes = (
(9,-100,l),
(154,720,l),
(209,720,l),
(64,-100,l)
);
}
);
width = 196;
}
);
unicode = 124;
}
{
glyphname = asciitilde;
layers = (
{
layerId = "2916D4A4-8684-4E16-97E6-1E1555060A99";
shapes = (
{
closed = 1;
nodes = (
(364,208,o),
(316,229,o),
(275,253,o),
(238,274,o),
(216,274,qs),
(190,274,o),
(152,241,o),
(141,208,q),
(15,208,l),
(55,324,o),
(178,425,o),
(253,425,qs),
(286,425,o),
(335,404,o),
(375,380,o),
(412,359,o),
(434,359,qs),
(460,359,o),
(497,390,o),
(508,425,q),
(635,425,l),
(597,310,o),
(471,208,o),
(397,208,qs)
);
}
);
width = 625;
},
{
layerId = "C58D79E9-5C27-47CF-BCFD-A6E10D98D405";
shapes = (
{
closed = 1;
nodes = (
(306,247,o),
(265,268,o),
(231,292,o),
(198,313,o),
(176,313,qs),
(150,313,o),
(108,277,o),
(97,248,q),
(31,248,l),
(58,322,o),
(141,393,o),
(196,393,qs),
(225,393,o),
(265,372,o),
(299,348,o),
(332,327,o),
(354,327,qs),
(380,327,o),
(422,361,o),
(433,392,q),
(499,392,l),
(474,319,o),
(388,247,o),
(334,247,qs)
);
}
);
width = 503;
},
{
layerId = "13CE2B3A-5842-4154-B805-A41E50C98059";
shapes = (
{
closed = 1;
nodes = (
(281,263,o),
(245,284,o),
(213,308,o),
(181,329,o),
(159,329,qs),
(133,329,o),
(90,292,o),
(79,264,q),
(37,264,l),
(59,322,o),
(127,380,o),
(173,380,qs),
(200,380,o),
(237,359,o),
(268,335,o),
(300,314,o),
(322,314,qs),
(348,314,o),
(392,350,o),
(402,379,q),
(444,379,l),
(424,322,o),
(354,263,o),
(308,263,qs)
);
}
);
width = 454;
}
);
unicode = 126;
}
{
glyphname = cent;
layers = (
{
layerId = "006414F6-AB32-4F37-AE27-2ADC4DCE78FB";
shapes = (
{
closed = 1;
nodes = (
(172,-85,l),
(187,-2,l),
(92,25,o),
(38,99,o),
(38,203,cs),
(38,343,o),
(133,463,o),
(274,498,c),
(292,597,l),
(446,597,l),
(429,500,l),
(524,477,o),
(582,406,o),
(581,298,c),
(399,298,l),
(398,337,o),
(372,362,o),
(331,362,cs),
(266,362,o),
(214,296,o),
(214,219,cs),
(214,168,o),
(241,134,o),
(290,134,cs),
(334,134,o),
(367,159,o),
(382,198,c),
(564,198,l),
(527,93,o),
(444,20,o),
(341,-3,c),
(326,-85,l)
);
}
);
width = 614;
},
{
layerId = "797178CA-EA28-4B78-93E8-321876F1BDF3";
shapes = (
{
closed = 1;
nodes = (
(185,-101,l),
(201,-8,l),
(101,9,o),
(36,88,o),
(36,199,cs),
(36,362,o),
(146,485,o),
(291,504,c),
(308,599,l),
(393,599,l),
(376,504,l),
(474,490,o),
(531,427,o),
(533,332,c),
(443,332,l),
(442,398,o),
(388,433,o),
(322,433,cs),
(215,433,o),
(128,339,o),
(128,208,cs),
(128,117,o),
(184,63,o),
(257,63,cs),
(324,63,o),
(387,96,o),
(413,164,c),
(503,164,l),
(470,72,o),
(388,6,o),
(286,-9,c),
(270,-101,l)
);
}
);
width = 557;
},
{
layerId = "9F3B9F63-BB4B-4875-904D-0FA4124C677C";
shapes = (
{
closed = 1;
nodes = (
(190,-107,l),
(206,-10,l),
(105,3,o),
(35,83,o),
(35,197,cs),
(35,369,o),
(151,494,o),
(298,507,c),
(314,600,l),
(372,600,l),
(355,506,l),
(454,495,o),
(511,435,o),
(514,346,c),
(460,346,l),
(460,423,o),
(394,461,o),
(319,461,cs),
(194,461,o),
(93,356,o),
(93,204,cs),
(93,96,o),
(161,34,o),
(244,34,cs),
(320,34,o),
(395,71,o),
(426,150,c),
(479,150,l),
(447,64,o),
(366,0,o),
(264,-11,c),
(247,-107,l)
);
}
);
width = 534;
}
);
unicode = 162;
}
{
glyphname = sterling;
layers = (
{
layerId = "006414F6-AB32-4F37-AE27-2ADC4DCE78FB";
shapes = (
{
closed = 1;
nodes = (
(13,0,l),
(29,91,l),
(72,125,o),
(102,165,o),
(120,208,cs),
(131,233,o),
(137,260,o),
(140,287,c),
(31,287,l),
(51,402,l),
(130,402,l),
(128,416,o),
(127,431,o),
(127,447,cs),
(127,602,o),
(241,712,o),
(403,712,cs),
(547,712,o),
(622,633,o),
(622,525,cs),
(622,512,o),
(621,499,o),
(619,485,c),
(463,485,l),
(464,492,o),
(464,496,o),
(464,503,cs),
(464,543,o),
(434,572,o),
(387,572,cs),
(316,572,o),
(288,519,o),
(288,466,cs),
(288,445,o),
(291,425,o),
(295,402,c),
(478,402,l),
(458,287,l),
(302,287,l),
(295,252,o),
(281,218,o),
(261,189,cs),
(246,168,o),
(228,149,o),
(207,134,c),
(554,134,l),
(531,0,l)
);
}
);
width = 625;
},
{
layerId = "797178CA-EA28-4B78-93E8-321876F1BDF3";
shapes = (
{
closed = 1;
nodes = (
(32,0,l),
(42,51,l),
(105,111,o),
(146,167,o),
(151,250,c),
(155,269,o),
(156,289,o),
(154,309,c),
(41,309,l),
(52,371,l),
(146,371,l),
(140,397,o),
(136,425,o),
(136,456,cs),
(136,608,o),
(239,712,o),
(386,712,cs),
(513,712,o),
(577,637,o),
(577,538,cs),
(577,528,o),
(576,518,o),
(575,506,c),
(494,506,l),
(495,514,o),
(495,522,o),
(495,530,cs),
(495,593,o),
(456,638,o),
(380,638,cs),
(277,638,o),
(218,563,o),
(218,462,cs),
(218,431,o),
(223,401,o),
(229,371,c),
(422,371,l),
(412,309,l),
(237,309,l),
(237,286,o),
(235,264,o),
(229,244,c),
(225,174,o),
(187,120,o),
(133,73,c),
(498,73,l),
(485,0,l)
);
}
);
width = 581;
},
{
layerId = "9F3B9F63-BB4B-4875-904D-0FA4124C677C";
shapes = (
{
closed = 1;
nodes = (
(40,0,l),
(47,35,l),
(118,106,o),
(164,168,o),
(164,267,cs),
(164,284,o),
(163,301,o),
(160,318,c),
(45,318,l),
(52,358,l),
(152,358,l),
(145,390,o),
(140,422,o),
(140,459,cs),
(140,610,o),
(238,712,o),
(379,712,cs),
(500,712,o),
(559,638,o),
(559,543,cs),
(559,534,o),
(558,525,o),
(557,514,c),
(506,514,l),
(507,523,o),
(508,532,o),
(508,541,cs),
(508,613,o),
(465,665,o),
(377,665,cs),
(262,665,o),
(190,581,o),
(190,460,cs),
(190,425,o),
(196,391,o),
(203,358,c),
(400,358,l),
(394,318,l),
(211,318,l),
(214,299,o),
(216,282,o),
(216,266,cs),
(216,177,o),
(171,108,o),
(104,48,c),
(475,48,l),
(467,0,l)
);
}
);
width = 564;
}
);
unicode = 163;
}
{
glyphname = currency;
layers = (
{
layerId = "79854D6D-25E7-4737-919A-271E0ABD7EDC";
shapes = (
{
closed = 1;
nodes = (
(252,116,o),
(219,122,o),
(190,134,c),
(126,70,l),
(60,137,l),
(115,192,l),
(94,221,o),
(82,257,o),
(82,298,cs),
(82,339,o),
(93,375,o),
(116,405,c),
(60,461,l),
(126,528,l),
(193,461,l),
(223,472,o),
(255,478,o),
(290,478,cs),
(325,478,o),
(357,473,o),
(385,462,c),
(451,528,l),
(517,461,l),
(463,407,l),
(486,378,o),
(498,341,o),
(498,298,cs),
(498,255,o),
(486,220,o),
(463,191,c),
(517,137,l),
(451,70,l),
(387,134,l),
(358,122,o),
(326,116,o),
(289,116,cs)
);
},
{
closed = 1;
nodes = (
(328,216,o),
(363,241,o),
(363,297,cs),
(363,354,o),
(328,379,o),
(289,379,cs),
(250,379,o),
(216,354,o),
(216,297,cs),
(216,241,o),
(250,216,o),
(289,216,cs)
);
}
);
width = 577;
},
{
layerId = "B1C61474-62B7-484B-9764-E73F45C0DC6D";
shapes = (
{
closed = 1;
nodes = (
(227,121,o),
(193,131,o),
(164,152,c),
(104,91,l),
(65,131,l),
(124,189,l),
(103,219,o),
(92,255,o),
(92,297,cs),
(92,340,o),
(104,377,o),
(125,406,c),
(65,466,l),
(104,505,l),
(167,442,l),
(195,463,o),
(229,473,o),
(268,473,cs),
(306,473,o),
(340,463,o),
(369,443,c),
(430,505,l),
(469,466,l),
(410,406,l),
(432,377,o),
(444,340,o),
(444,297,cs),
(444,254,o),
(432,219,o),
(410,190,c),
(469,131,l),
(430,91,l),
(369,153,l),
(340,131,o),
(307,121,o),
(267,121,cs)
);
},
{
closed = 1;
nodes = (
(312,187,o),
(362,218,o),
(362,297,cs),
(362,374,o),
(312,408,o),
(267,408,cs),
(219,408,o),
(173,374,o),
(173,297,cs),
(173,218,o),
(219,187,o),
(267,187,cs)
);
}
);
width = 534;
},
{
layerId = "617CD1A0-F923-462F-B4E4-BD0161ABA38E";
shapes = (
{
closed = 1;
nodes = (
(217,123,o),
(182,135,o),
(154,159,c),
(95,100,l),
(67,128,l),
(127,188,l),
(106,218,o),
(96,254,o),
(96,297,cs),
(96,341,o),
(108,378,o),
(129,407,c),
(67,468,l),
(95,496,l),
(156,435,l),
(184,459,o),
(218,471,o),
(259,471,cs),
(298,471,o),
(333,459,o),
(362,435,c),
(422,496,l),
(450,468,l),
(389,406,l),
(410,377,o),
(422,340,o),
(422,297,cs),
(422,254,o),
(411,218,o),
(389,189,c),
(450,128,l),
(422,100,l),
(362,160,l),
(333,135,o),
(299,123,o),
(258,123,cs)
);
},
{
closed = 1;
nodes = (
(306,176,o),
(362,209,o),
(362,297,cs),
(362,382,o),
(306,419,o),
(258,419,cs),
(206,419,o),
(156,382,o),
(156,297,cs),
(156,209,o),
(206,176,o),
(258,176,cs)
);
}
);
width = 517;
}
);
unicode = 164;
}
{
glyphname = yen;
layers = (
{
layerId = "006414F6-AB32-4F37-AE27-2ADC4DCE78FB";
shapes = (
{
closed = 1;
nodes = (
(213,0,l),
(237,134,l),
(37,134,l),
(57,248,l),
(249,248,l),
(249,248,l),
(228,309,l),
(68,310,l),
(88,425,l),
(189,425,l),
(94,700,l),
(289,700,l),
(369,390,l),
(558,700,l),
(750,700,l),
(560,425,l),
(659,425,l),
(639,310,l),
(479,309,l),
(437,248,l),
(437,248,l),
(628,248,l),
(608,134,l),
(408,134,l),
(384,0,l)
);
}
);
width = 684;
},
{
layerId = "797178CA-EA28-4B78-93E8-321876F1BDF3";
shapes = (
{
closed = 1;
nodes = (
(206,0,l),
(236,165,l),
(36,165,l),
(46,229,l),
(245,229,l),
(252,269,l),
(235,318,l),
(62,319,l),
(74,381,l),
(213,381,l),
(101,700,l),
(200,700,l),
(312,346,l),
(547,700,l),
(647,700,l),
(424,381,l),
(562,381,l),
(550,319,l),
(378,318,l),
(345,269,l),
(338,229,l),
(534,229,l),
(524,165,l),
(324,165,l),
(294,0,l)
);
}
);
width = 588;
},
{
layerId = "9F3B9F63-BB4B-4875-904D-0FA4124C677C";
shapes = (
{
closed = 1;
nodes = (
(203,0,l),
(235,178,l),
(35,178,l),
(42,222,l),
(243,222,l),
(253,278,l),
(238,321,l),
(60,322,l),
(68,364,l),
(222,364,l),
(104,700,l),
(165,700,l),
(289,328,l),
(542,700,l),
(606,700,l),
(369,364,l),
(523,364,l),
(515,322,l),
(338,321,l),
(308,278,l),
(298,222,l),
(497,222,l),
(490,178,l),
(290,178,l),
(258,0,l)
);
}
);
width = 549;
}
);
unicode = 165;
}
{
glyphname = brokenbar;
layers = (
{
layerId = "2916D4A4-8684-4E16-97E6-1E1555060A99";
shapes = (
{
closed = 1;
nodes = (
(83,400,l),
(140,720,l),
(311,720,l),
(254,400,l)
);
},
{
closed = 1;
nodes = (
(-5,-100,l),
(52,220,l),
(223,220,l),
(166,-100,l)
);
}
);
width = 284;
},
{
layerId = "C58D79E9-5C27-47CF-BCFD-A6E10D98D405";
shapes = (
{
closed = 1;
nodes = (
(92,388,l),
(150,720,l),
(238,720,l),
(180,388,l)
);
},
{
closed = 1;
nodes = (
(5,-100,l),
(63,232,l),
(152,232,l),
(93,-100,l)
);
}
);
width = 221;
},
{
layerId = "13CE2B3A-5842-4154-B805-A41E50C98059";
shapes = (
{
closed = 1;
nodes = (
(95,383,l),
(154,720,l),
(209,720,l),
(150,383,l)
);
},
{
closed = 1;
nodes = (
(9,-100,l),
(68,237,l),
(123,237,l),
(64,-100,l)
);
}
);
width = 196;
}
);
unicode = 166;
}
{
glyphname = section;
layers = (
{
layerId = "84C8819D-02E3-4D9D-80EE-F3CA29327F71";
shapes = (
{
closed = 1;
nodes = (
(84,-232,o),
(-14,-155,o),
(2,-22,c),
(187,-22,l),
(183,-62,o),
(209,-88,o),
(248,-89,cs),
(295,-90,o),
(327,-62,o),
(327,-25,cs),
(327,19,o),
(273,28,o),
(206,52,cs),
(116,84,o),
(36,142,o),
(36,240,cs),
(36,304,o),
(68,360,o),
(120,407,c),
(111,424,o),
(106,444,o),
(106,467,cs),
(106,608,o),
(221,712,o),
(386,712,cs),
(534,712,o),
(632,635,o),
(616,502,c),
(431,502,l),
(435,542,o),
(409,568,o),
(370,569,cs),
(325,570,o),
(292,544,o),
(292,505,cs),
(292,461,o),
(347,452,o),
(412,428,c),
(505,396,o),
(582,336,o),
(582,240,cs),
(582,176,o),
(551,120,o),
(499,73,c),
(508,56,o),
(512,33,o),
(512,13,cs),
(512,-128,o),
(397,-232,o),
(232,-232,cs)
);
},
{
closed = 1;
nodes = (
(386,176,o),
(394,194,o),
(394,211,cs),
(394,259,o),
(313,296,o),
(275,305,c),
(265,309,o),
(253,309,o),
(245,317,c),
(232,304,o),
(224,284,o),
(224,269,cs),
(224,234,o),
(268,206,o),
(311,187,cs),
(335,177,o),
(358,168,o),
(374,163,c)
);
}
);
width = 624;
},
{
layerId = "44586365-17B2-4B09-91E8-CEE5E00BC966";
shapes = (
{
closed = 1;
nodes = (
(79,-232,o),
(-3,-151,o),
(16,-37,c),
(108,-37,l),
(99,-96,o),
(130,-157,o),
(221,-157,cs),
(306,-157,o),
(369,-101,o),
(369,-26,cs),
(369,43,o),
(294,57,o),
(192,93,cs),
(110,123,o),
(47,172,o),
(47,261,cs),
(47,327,o),
(77,382,o),
(131,427,c),
(122,444,o),
(117,464,o),
(117,486,cs),
(117,614,o),
(220,712,o),
(367,712,cs),
(500,712,o),
(583,631,o),
(565,517,c),
(473,517,l),
(484,576,o),
(448,637,o),
(359,637,cs),
(275,637,o),
(211,582,o),
(211,506,cs),
(211,435,o),
(290,423,o),
(388,387,cs),
(469,359,o),
(534,309,o),
(534,219,cs),
(534,153,o),
(504,97,o),
(450,53,c),
(463,29,o),
(466,2,o),
(461,-32,cs),
(446,-149,o),
(354,-232,o),
(214,-232,cs)
);
},
{
closed = 1;
nodes = (
(422,130,o),
(440,165,o),
(440,205,cs),
(440,293,o),
(336,311,o),
(252,341,c),
(224,350,o),
(204,360,o),
(186,373,c),
(163,353,o),
(141,319,o),
(141,275,cs),
(141,194,o),
(225,177,o),
(319,143,cs),
(353,130,o),
(371,122,o),
(395,107,c)
);
}
);
width = 583;
},
{
layerId = "EC825F25-5E21-4444-B100-FC828A5BE381";
shapes = (
{
closed = 1;
nodes = (
(77,-232,o),
(2,-150,o),
(21,-43,c),
(76,-43,l),
(65,-109,o),
(99,-184,o),
(210,-184,cs),
(310,-184,o),
(386,-117,o),
(386,-27,cs),
(386,52,o),
(302,69,o),
(187,109,c),
(107,138,o),
(51,184,o),
(51,269,cs),
(51,336,o),
(80,391,o),
(135,435,c),
(126,452,o),
(121,472,o),
(121,493,cs),
(121,617,o),
(219,712,o),
(359,712,cs),
(487,712,o),
(564,630,o),
(545,523,c),
(490,523,l),
(504,589,o),
(463,664,o),
(355,664,cs),
(255,664,o),
(179,597,o),
(179,507,cs),
(179,424,o),
(267,411,o),
(379,371,cs),
(455,344,o),
(515,298,o),
(515,211,cs),
(515,144,o),
(485,88,o),
(430,45,c),
(445,18,o),
(448,-11,o),
(441,-50,cs),
(420,-157,o),
(337,-232,o),
(207,-232,cs)
);
},
{
closed = 1;
nodes = (
(436,112,o),
(458,154,o),
(458,203,cs),
(458,307,o),
(345,317,o),
(243,355,c),
(208,367,o),
(184,381,o),
(163,396,c),
(135,373,o),
(108,333,o),
(108,277,cs),
(108,178,o),
(208,165,o),
(322,125,cs),
(360,111,o),
(376,103,o),
(403,84,c)
);
}
);
width = 567;
}
);
unicode = 167;
}
{
glyphname = dieresis;
layers = (
{
layerId = "006414F6-AB32-4F37-AE27-2ADC4DCE78FB";
shapes = (
{
closed = 1;
nodes = (
(305,558,o),
(273,590,o),
(273,631,cs),
(273,674,o),
(305,705,o),
(346,705,cs),
(389,705,o),
(420,674,o),
(420,631,cs),
(420,590,o),
(389,558,o),
(346,558,cs)
);
},
{
closed = 1;
nodes = (
(105,558,o),
(73,590,o),
(73,631,cs),
(73,674,o),
(105,705,o),
(146,705,cs),
(189,705,o),
(220,674,o),
(220,631,cs),
(220,590,o),
(189,558,o),
(146,558,cs)
);
}
);
width = 358;
},
{
layerId = "797178CA-EA28-4B78-93E8-321876F1BDF3";
shapes = (
{
closed = 1;
nodes = (
(275,570,o),
(252,593,o),
(252,621,cs),
(252,650,o),
(275,672,o),
(303,672,cs),
(332,672,o),
(353,650,o),
(353,621,cs),
(353,593,o),
(332,570,o),
(303,570,cs)
);
},
{
closed = 1;
nodes = (
(113,570,o),
(90,593,o),
(90,621,cs),
(90,650,o),
(113,672,o),
(141,672,cs),
(169,672,o),
(192,650,o),
(192,621,cs),
(192,593,o),
(169,570,o),
(141,570,cs)
);
}
);
width = 311;
},
{
layerId = "9F3B9F63-BB4B-4875-904D-0FA4124C677C";
shapes = (
{
closed = 1;
nodes = (
(262,575,o),
(243,594,o),
(243,617,cs),
(243,640,o),
(262,659,o),
(285,659,cs),
(308,659,o),
(326,640,o),
(326,617,cs),
(326,594,o),
(308,575,o),
(285,575,cs)
);
},
{
closed = 1;
nodes = (
(115,575,o),
(96,594,o),
(96,617,cs),
(96,640,o),
(115,659,o),
(138,659,cs),
(161,659,o),
(180,640,o),
(180,617,cs),
(180,594,o),
(161,575,o),
(138,575,cs)
);
}
);
width = 292;
}
);
unicode = 168;
}
{
glyphname = copyright;
layers = (
{
layerId = "2916D4A4-8684-4E16-97E6-1E1555060A99";
shapes = (
{
closed = 1;
nodes = (
(263,-7,o),
(154,37,o),
(116,77,qs),
(77,116,o),
(36,224,o),
(36,288,qs),
(36,378,o),
(101,532,o),
(158,589,qs),
(215,646,o),
(368,712,o),
(459,712,qs),
(528,712,o),
(637,668,o),
(676,629,qs),
(714,590,o),
(755,482,o),
(755,418,qs),
(755,328,o),
(690,174,o),
(633,117,qs),
(576,59,o),
(423,-7,o),
(332,-7,qs)
);
},
{
closed = 1;
nodes = (
(421,48,o),
(551,104,o),
(597,154,qs),
(643,204,o),
(694,337,o),
(694,415,qs),
(694,469,o),
(661,558,o),
(630,590,qs),
(599,622,o),
(508,657,o),
(450,657,qs),
(371,657,o),
(242,602,o),
(195,553,qs),
(148,504,o),
(98,371,o),
(98,293,qs),
(98,239,o),
(130,149,o),
(162,117,qs),
(194,84,o),
(284,48,o),
(342,48,qs)
);
},
{
closed = 1;
nodes = (
(315,128,o),
(246,155,o),
(222,180,q),
(197,204,o),
(170,271,o),
(170,313,qs),
(170,370,o),
(211,467,o),
(247,503,qs),
(282,538,o),
(379,578,o),
(436,578,qs),
(517,578,o),
(614,492,o),
(616,414,q),
(469,414,l),
(466,436,o),
(438,463,o),
(411,463,qs),
(385,463,o),
(347,437,o),
(334,417,qs),
(321,396,o),
(309,345,o),
(309,319,qs),
(309,281,o),
(343,243,o),
(372,243,qs),
(401,243,o),
(437,271,o),
(448,292,q),
(594,292,l),
(580,255,o),
(532,194,o),
(501,173,qs),
(470,151,o),
(396,128,o),
(357,128,qs)
);
}
);
width = 767;
},
{
layerId = "C58D79E9-5C27-47CF-BCFD-A6E10D98D405";
shapes = (
{
closed = 1;
nodes = (
(271,-5,o),
(163,39,o),
(125,78,qs),
(87,117,o),
(47,224,o),
(47,287,qs),
(47,375,o),
(111,526,o),
(168,583,qs),
(224,640,o),
(375,705,o),
(463,705,qs),
(531,705,o),
(639,662,o),
(677,623,qs),
(715,584,o),
(754,479,o),
(754,416,qs),
(754,328,o),
(692,175,o),
(635,118,qs),
(579,60,o),
(427,-5,o),
(339,-5,qs)
);
},
{
closed = 1;
nodes = (
(427,32,o),
(563,91,o),
(612,143,qs),
(660,194,o),
(713,331,o),
(713,411,qs),
(713,468,o),
(679,561,o),
(647,596,qs),
(614,631,o),
(519,668,o),
(458,668,qs),
(377,668,o),
(241,610,o),
(192,559,qs),
(143,508,o),
(89,370,o),
(89,289,qs),
(89,233,o),
(123,140,o),
(156,105,qs),
(188,70,o),
(284,32,o),
(346,32,qs)
);
},
{
closed = 1;
nodes = (
(320,119,o),
(255,144,o),
(231,167,qs),
(206,190,o),
(179,257,o),
(179,301,qs),
(179,358,o),
(219,460,o),
(254,499,qs),
(289,537,o),
(385,583,o),
(442,583,qs),
(517,583,o),
(614,504,o),
(620,430,q),
(540,430,l),
(535,475,o),
(475,519,o),
(430,519,qs),
(390,519,o),
(327,483,o),
(304,453,qs),
(281,424,o),
(257,349,o),
(257,307,qs),
(257,244,o),
(320,182,o),
(371,182,qs),
(418,182,o),
(490,228,o),
(512,271,q),
(592,271,l),
(576,236,o),
(528,180,o),
(498,160,qs),
(467,140,o),
(397,119,o),
(360,119,qs)
);
}
);
width = 778;
},
{
layerId = "13CE2B3A-5842-4154-B805-A41E50C98059";
shapes = (
{
closed = 1;
nodes = (
(275,-4,o),
(167,40,o),
(129,79,qs),
(91,117,o),
(51,224,o),
(51,287,qs),
(51,375,o),
(115,524,o),
(171,581,qs),
(227,638,o),
(377,702,o),
(465,702,qs),
(532,702,o),
(639,659,o),
(677,621,qs),
(715,582,o),
(754,478,o),
(754,415,qs),
(754,327,o),
(692,175,o),
(636,118,qs),
(580,61,o),
(430,-4,o),
(342,-4,qs)
);
},
{
closed = 1;
nodes = (
(429,26,o),
(567,86,o),
(617,138,qs),
(667,189,o),
(721,329,o),
(721,410,qs),
(721,467,o),
(686,563,o),
(653,598,qs),
(620,633,o),
(524,673,o),
(461,673,qs),
(379,673,o),
(241,613,o),
(191,561,qs),
(141,509,o),
(85,369,o),
(85,288,qs),
(85,231,o),
(120,135,o),
(153,100,qs),
(186,65,o),
(284,26,o),
(347,26,qs)
);
},
{
closed = 1;
nodes = (
(323,115,o),
(258,139,o),
(234,162,qs),
(210,185,o),
(183,251,o),
(183,296,qs),
(183,353,o),
(222,457,o),
(257,497,qs),
(292,537,o),
(387,585,o),
(444,585,qs),
(517,585,o),
(614,508,o),
(621,436,q),
(568,436,l),
(562,490,o),
(489,541,o),
(438,541,qs),
(393,541,o),
(318,501,o),
(292,468,qs),
(265,435,o),
(236,350,o),
(236,302,qs),
(236,230,o),
(312,158,o),
(370,158,qs),
(424,158,o),
(512,211,o),
(538,263,q),
(591,263,l),
(575,229,o),
(526,175,o),
(496,155,qs),
(466,135,o),
(397,115,o),
(361,115,qs)
);
}
);
width = 783;
}
);
unicode = 169;
}
{
glyphname = ordfeminine;
layers = (
{
layerId = "2916D4A4-8684-4E16-97E6-1E1555060A99";
shapes = (
{
closed = 1;
nodes = (
(136,349,o),
(58,423,o),
(58,489,qs),
(58,534,o),
(89,613,o),
(116,644,qs),
(143,675,o),
(217,711,o),
(260,711,qs),
(305,711,o),
(356,679,o),
(368,650,q),
(388,706,l),
(506,706,l),
(445,354,l),
(326,354,l),
(326,409,l),
(303,381,o),
(242,349,o),
(197,349,qs)
);
},
{
closed = 1;
nodes = (
(274,450,o),
(306,463,o),
(320,475,qs),
(334,487,o),
(349,523,o),
(349,547,qs),
(349,578,o),
(311,609,o),
(285,609,qs),
(269,609,o),
(237,596,o),
(223,584,qs),
(209,572,o),
(193,536,o),
(193,512,qs),
(193,481,o),
(231,450,o),
(257,450,qs)
);
}
);
width = 457;
},
{
layerId = "C58D79E9-5C27-47CF-BCFD-A6E10D98D405";
shapes = (
{
closed = 1;
nodes = (
(140,350,o),
(67,427,o),
(67,493,qs),
(67,538,o),
(97,617,o),
(124,647,qs),
(151,676,o),
(223,712,o),
(266,712,qs),
(317,712,o),
(377,667,o),
(385,629,q),
(405,706,l),
(469,706,l),
(408,355,l),
(345,355,l),
(351,432,l),
(328,395,o),
(254,350,o),
(203,350,qs)
);
},
{
closed = 1;
nodes = (
(262,405,o),
(312,431,o),
(331,452,qs),
(351,473,o),
(370,529,o),
(370,559,qs),
(370,607,o),
(318,657,o),
(276,657,qs),
(247,657,o),
(196,632,o),
(178,611,qs),
(159,590,o),
(138,534,o),
(138,502,qs),
(138,456,o),
(191,405,o),
(231,405,qs)
);
}
);
width = 434;
},
{
layerId = "13CE2B3A-5842-4154-B805-A41E50C98059";
shapes = (
{
closed = 1;
nodes = (
(142,350,o),
(70,429,o),
(70,495,qs),
(70,540,o),
(100,618,o),
(127,648,qs),
(154,677,o),
(226,712,o),
(268,712,qs),
(322,712,o),
(385,663,o),
(392,621,q),
(412,706,l),
(454,706,l),
(393,356,l),
(352,356,l),
(361,441,l),
(339,401,o),
(259,350,o),
(205,350,qs)
);
},
{
closed = 1;
nodes = (
(257,387,o),
(315,418,o),
(336,443,qs),
(357,467,o),
(379,531,o),
(379,564,qs),
(379,618,o),
(320,676,o),
(272,676,qs),
(238,676,o),
(180,646,o),
(160,622,qs),
(139,597,o),
(116,533,o),
(116,498,qs),
(116,446,o),
(175,387,o),
(221,387,qs)
);
}
);
width = 425;
}
);
unicode = 170;
}
{
glyphname = guillemotleft;
layers = (
{
layerId = "006414F6-AB32-4F37-AE27-2ADC4DCE78FB";
shapes = (
{
closed = 1;
nodes = (
(320,120,l),
(267,295,l),
(382,470,l),
(540,470,l),
(422,295,l),
(478,120,l)
);
},
{
closed = 1;
nodes = (
(95,120,l),
(42,295,l),
(157,470,l),
(315,470,l),
(197,295,l),
(253,120,l)
);
}
);
width = 545;
},
{
layerId = "797178CA-EA28-4B78-93E8-321876F1BDF3";
shapes = (
{
closed = 1;
nodes = (
(286,120,l),
(221,295,l),
(348,470,l),
(434,470,l),
(304,295,l),
(373,120,l)
);
},
{
closed = 1;
nodes = (
(106,120,l),
(41,295,l),
(168,470,l),
(254,470,l),
(124,295,l),
(194,120,l)
);
}
);
width = 443;
},
{
layerId = "9F3B9F63-BB4B-4875-904D-0FA4124C677C";
shapes = (
{
closed = 1;
nodes = (
(272,120,l),
(202,295,l),
(334,470,l),
(392,470,l),
(257,295,l),
(331,120,l)
);
},
{
closed = 1;
nodes = (
(110,120,l),
(40,295,l),
(172,470,l),
(230,470,l),
(95,295,l),
(170,120,l)
);
}
);
width = 402;
}
);
leftKerningGroup = guillemotleft;
unicode = 171;
}
{
glyphname = logicalnot;
layers = (
{
layerId = "2916D4A4-8684-4E16-97E6-1E1555060A99";
shapes = (
{
closed = 1;
nodes = (
(473,180,l),
(496,312,l),
(52,312,l),
(75,442,l),
(690,442,l),
(644,180,l)
);
}
);
width = 716;
},
{
layerId = "C58D79E9-5C27-47CF-BCFD-A6E10D98D405";
shapes = (
{
closed = 1;
nodes = (
(517,221,l),
(542,362,l),
(58,362,l),
(70,432,l),
(642,432,l),
(605,221,l)
);
}
);
width = 660;
},
{
layerId = "13CE2B3A-5842-4154-B805-A41E50C98059";
shapes = (
{
closed = 1;
nodes = (
(535,237,l),
(561,382,l),
(60,382,l),
(68,428,l),
(623,428,l),
(589,237,l)
);
}
);
width = 637;
}
);
unicode = 172;
}
{
glyphname = registered;
layers = (
{
layerId = "2916D4A4-8684-4E16-97E6-1E1555060A99";
shapes = (
{
closed = 1;
nodes = (
(204,280,o),
(130,312,o),
(82,369,o),
(64,449,o),
(72,496,qs),
(80,544,o),
(126,623,o),
(195,680,o),
(281,712,o),
(328,712,qs),
(376,712,o),
(450,680,o),
(498,623,o),
(516,544,o),
(507,496,qs),
(498,449,o),
(452,369,o),
(385,312,o),
(300,280,o),
(252,280,qs)
);
},
{
closed = 1;
nodes = (
(297,336,o),
(359,359,o),
(407,401,o),
(440,460,o),
(446,496,qs),
(452,532,o),
(441,591,o),
(407,633,o),
(354,656,o),
(318,656,qs),
(282,656,o),
(220,633,o),
(171,591,o),
(139,532,o),
(133,496,qs),
(127,460,o),
(139,401,o),
(172,359,o),
(225,336,o),
(261,336,qs)
);
},
{
closed = 1;
nodes = (
(296,393,l),
(268,467,l),
(267,467,l),
(254,393,l),
(180,393,l),
(218,605,l),
(329,605,ls),
(364,605,o),
(399,568,o),
(394,536,qs),
(390,514,o),
(365,483,o),
(344,475,q),
(380,393,l)
);
},
{
closed = 1;
nodes = (
(275,518,l),
(299,518,ls),
(307,518,o),
(315,524,o),
(316,531,qs),
(317,537,o),
(311,543,o),
(304,543,qs),
(279,543,l)
);
}
);
width = 502;
},
{
layerId = "C58D79E9-5C27-47CF-BCFD-A6E10D98D405";
shapes = (
{
closed = 1;
nodes = (
(205,306,o),
(137,336,o),
(94,390,o),
(78,464,o),
(85,508,qs),
(92,552,o),
(135,627,o),
(199,681,o),
(279,712,o),
(322,712,qs),
(366,712,o),
(435,681,o),
(479,627,o),
(495,552,o),
(487,508,qs),
(478,464,o),
(435,390,o),
(373,336,o),
(294,306,o),
(250,306,qs)
);
},
{
closed = 1;
nodes = (
(293,342,o),
(357,367,o),
(407,411,o),
(441,472,o),
(447,508,qs),
(453,544,o),
(441,605,o),
(406,649,o),
(351,674,o),
(315,674,qs),
(278,674,o),
(214,649,o),
(164,605,o),
(131,544,o),
(125,508,qs),
(119,472,o),
(131,411,o),
(165,367,o),
(219,342,o),
(256,342,qs)
);
},
{
closed = 1;
nodes = (
(307,403,l),
(270,486,l),
(251,486,l),
(236,403,l),
(188,403,l),
(226,617,l),
(321,617,ls),
(355,617,o),
(388,583,o),
(383,552,qs),
(378,526,o),
(347,494,o),
(322,489,q),
(364,404,l)
);
},
{
closed = 1;
nodes = (
(257,525,l),
(299,525,ls),
(313,525,o),
(330,537,o),
(332,550,q),
(335,562,o),
(320,574,o),
(308,574,qs),
(266,574,l)
);
}
);
width = 489;
},
{
layerId = "13CE2B3A-5842-4154-B805-A41E50C98059";
shapes = (
{
closed = 1;
nodes = (
(206,316,o),
(140,346,o),
(98,398,o),
(83,471,o),
(90,513,qs),
(97,555,o),
(139,628,o),
(200,682,o),
(277,712,o),
(319,712,qs),
(362,712,o),
(429,682,o),
(471,628,o),
(487,555,o),
(479,513,qs),
(471,471,o),
(429,398,o),
(368,346,o),
(292,316,o),
(249,316,qs)
);
},
{
closed = 1;
nodes = (
(291,345,o),
(356,370,o),
(407,415,o),
(441,477,o),
(447,513,qs),
(453,549,o),
(441,611,o),
(406,656,o),
(351,681,o),
(314,681,qs),
(277,681,o),
(212,656,o),
(162,611,o),
(128,549,o),
(122,513,qs),
(116,477,o),
(128,415,o),
(162,370,o),
(217,345,o),
(254,345,qs)
);
},
{
closed = 1;
nodes = (
(312,407,l),
(271,493,l),
(244,493,l),
(229,407,l),
(191,407,l),
(229,622,l),
(318,622,ls),
(351,622,o),
(383,588,o),
(378,558,qs),
(373,532,o),
(339,499,o),
(313,495,q),
(357,408,l)
);
},
{
closed = 1;
nodes = (
(250,528,l),
(299,528,ls),
(315,528,o),
(337,542,o),
(339,557,qs),
(342,572,o),
(324,586,o),
(310,586,qs),
(261,586,l)
);
}
);
width = 484;
}
);
unicode = 174;
}
{
glyphname = macron;
layers = (
{
layerId = "2916D4A4-8684-4E16-97E6-1E1555060A99";
shapes = (
{
closed = 1;
nodes = (
(60,566,l),
(81,684,l),
(481,684,l),
(460,566,l)
);
}
);
width = 408;
},
{
layerId = "C58D79E9-5C27-47CF-BCFD-A6E10D98D405";
shapes = (
{
closed = 1;
nodes = (
(75,591,l),
(86,656,l),
(436,656,l),
(425,591,l)
);
}
);
width = 379;
},
{
layerId = "13CE2B3A-5842-4154-B805-A41E50C98059";
shapes = (
{
closed = 1;
nodes = (
(80,601,l),
(88,645,l),
(418,645,l),
(411,601,l)
);
}
);
width = 367;
}
);
unicode = 175;
}
{
glyphname = degree;
layers = (
{
layerId = "84C8819D-02E3-4D9D-80EE-F3CA29327F71";
shapes = (
{
closed = 1;
nodes = (
(160,408,o),
(88,467,o),
(88,559,cs),
(88,653,o),
(160,712,o),
(241,712,cs),
(321,712,o),
(393,653,o),
(393,559,cs),
(393,467,o),
(321,408,o),
(240,408,cs)
);
},
{
closed = 1;
nodes = (
(263,509,o),
(288,525,o),
(288,560,cs),
(288,595,o),
(264,611,o),
(241,611,cs),
(218,611,o),
(193,595,o),
(193,560,cs),
(193,525,o),
(217,509,o),
(240,509,cs)
);
}
);
width = 371;
},
{
layerId = "44586365-17B2-4B09-91E8-CEE5E00BC966";
shapes = (
{
closed = 1;
nodes = (
(154,442,o),
(92,495,o),
(92,576,cs),
(92,659,o),
(154,712,o),
(226,712,cs),
(297,712,o),
(358,659,o),
(358,576,cs),
(358,495,o),
(297,442,o),
(225,442,cs)
);
},
{
closed = 1;
nodes = (
(257,507,o),
(291,530,o),
(291,577,cs),
(291,625,o),
(258,648,o),
(226,648,cs),
(194,648,o),
(159,625,o),
(159,577,cs),
(159,530,o),
(193,507,o),
(225,507,cs)
);
}
);
width = 335;
},
{
layerId = "EC825F25-5E21-4444-B100-FC828A5BE381";
shapes = (
{
closed = 1;
nodes = (
(151,456,o),
(94,506,o),
(94,583,cs),
(94,662,o),
(151,712,o),
(220,712,cs),
(288,712,o),
(344,662,o),
(344,583,cs),
(344,506,o),
(287,456,o),
(219,456,cs)
);
},
{
closed = 1;
nodes = (
(254,506,o),
(292,532,o),
(292,584,cs),
(292,637,o),
(255,663,o),
(220,663,cs),
(184,663,o),
(146,637,o),
(146,584,cs),
(146,532,o),
(183,506,o),
(219,506,cs)
);
}
);
width = 320;
}
);
unicode = 176;
}
{
glyphname = plusminus;
layers = (
{
layerId = "84C8819D-02E3-4D9D-80EE-F3CA29327F71";
shapes = (
{
closed = 1;
nodes = (
(227,183,l),
(247,297,l),
(63,297,l),
(88,439,l),
(273,439,l),
(293,553,l),
(435,553,l),
(415,439,l),
(598,439,l),
(573,297,l),
(389,297,l),
(369,183,l)
);
},
{
closed = 1;
nodes = (
(11,0,l),
(38,151,l),
(548,151,l),
(521,0,l)
);
}
);
width = 619;
},
{
layerId = "44586365-17B2-4B09-91E8-CEE5E00BC966";
shapes = (
{
closed = 1;
nodes = (
(234,128,l),
(258,268,l),
(60,268,l),
(74,343,l),
(272,343,l),
(297,482,l),
(376,482,l),
(351,343,l),
(550,343,l),
(537,268,l),
(338,268,l),
(313,128,l)
);
},
{
closed = 1;
nodes = (
(13,0,l),
(27,77,l),
(503,77,l),
(490,0,l)
);
}
);
width = 590;
},
{
layerId = "EC825F25-5E21-4444-B100-FC828A5BE381";
shapes = (
{
closed = 1;
nodes = (
(237,106,l),
(263,256,l),
(59,256,l),
(68,304,l),
(271,304,l),
(298,453,l),
(352,453,l),
(325,304,l),
(531,304,l),
(522,256,l),
(317,256,l),
(290,106,l)
);
},
{
closed = 1;
nodes = (
(14,0,l),
(22,47,l),
(485,47,l),
(477,0,l)
);
}
);
width = 578;
}
);
unicode = 177;
}
{
glyphname = twosuperior;
layers = (
{
layerId = "2916D4A4-8684-4E16-97E6-1E1555060A99";
shapes = (
{
closed = 1;
nodes = (
(44,352,l),
(61,448,l),
(197,522,ls),
(228,539,o),
(261,575,o),
(265,594,q),
(267,608,o),
(258,622,o),
(245,622,qs),
(231,622,o),
(214,604,o),
(209,586,q),
(81,586,l),
(94,643,o),
(196,714,o),
(274,714,qs),
(313,714,o),
(365,695,o),
(396,663,o),
(406,623,o),
(403,603,qs),
(396,566,o),
(332,512,o),
(263,482,qs),
(197,452,l),
(371,452,l),
(353,352,l)
);
}
);
width = 371;
},
{
layerId = "C58D79E9-5C27-47CF-BCFD-A6E10D98D405";
shapes = (
{
closed = 1;
nodes = (
(39,352,l),
(48,402,l),
(178,493,l),
(210,517,o),
(258,567,o),
(264,600,qs),
(269,629,o),
(244,657,o),
(221,657,qs),
(195,657,o),
(160,628,o),
(152,599,q),
(81,599,l),
(93,646,o),
(170,710,o),
(233,710,qs),
(263,710,o),
(306,693,o),
(332,664,o),
(341,625,o),
(337,603,qs),
(329,561,o),
(271,501,o),
(217,466,qs),
(129,408,l),
(307,408,l),
(297,352,l)
);
}
);
width = 318;
},
{
layerId = "13CE2B3A-5842-4154-B805-A41E50C98059";
shapes = (
{
closed = 1;
nodes = (
(37,352,l),
(43,384,l),
(170,482,ls),
(203,508,o),
(257,564,o),
(263,602,q),
(270,637,o),
(238,671,o),
(211,671,qs),
(179,671,o),
(139,638,o),
(129,604,q),
(81,604,l),
(92,647,o),
(160,708,o),
(217,708,qs),
(243,708,o),
(282,692,o),
(306,664,o),
(316,626,o),
(311,603,qs),
(303,560,o),
(247,496,o),
(198,460,qs),
(102,391,l),
(282,391,l),
(275,352,l)
);
}
);
width = 297;
}
);
unicode = 178;
}
{
glyphname = threesuperior;
layers = (
{
layerId = "84C8819D-02E3-4D9D-80EE-F3CA29327F71";
shapes = (
{
closed = 1;
nodes = (
(77,348,o),
(34,395,o),
(42,470,c),
(174,470,l),
(172,449,o),
(181,439,o),
(202,439,cs),
(221,439,o),
(235,448,o),
(239,471,cs),
(243,494,o),
(232,505,o),
(205,505,cs),
(172,505,l),
(181,561,l),
(209,561,ls),
(235,561,o),
(250,572,o),
(254,594,cs),
(257,613,o),
(249,623,o),
(229,623,cs),
(210,623,o),
(198,613,o),
(191,592,c),
(69,592,l),
(82,656,o),
(143,714,o),
(258,714,cs),
(351,714,o),
(405,669,o),
(394,609,cs),
(387,566,o),
(356,542,o),
(312,533,c),
(311,530,l),
(358,517,o),
(379,490,o),
(372,449,cs),
(361,386,o),
(290,348,o),
(194,348,cs)
);
}
);
width = 362;
},
{
layerId = "44586365-17B2-4B09-91E8-CEE5E00BC966";
shapes = (
{
closed = 1;
nodes = (
(85,347,o),
(42,384,o),
(49,454,c),
(118,454,l),
(117,414,o),
(139,400,o),
(174,400,cs),
(213,400,o),
(241,419,o),
(247,453,cs),
(253,488,o),
(229,507,o),
(190,507,cs),
(144,507,l),
(152,550,l),
(196,550,ls),
(234,550,o),
(264,569,o),
(270,604,cs),
(276,636,o),
(257,657,o),
(220,657,cs),
(181,657,o),
(159,639,o),
(146,610,c),
(80,610,l),
(96,667,o),
(150,710,o),
(234,710,cs),
(307,710,o),
(355,667,o),
(345,608,cs),
(338,567,o),
(308,540,o),
(267,529,c),
(266,526,l),
(303,515,o),
(327,487,o),
(319,444,cs),
(310,391,o),
(251,347,o),
(167,347,cs)
);
}
);
width = 317;
},
{
layerId = "EC825F25-5E21-4444-B100-FC828A5BE381";
shapes = (
{
closed = 1;
nodes = (
(88,347,o),
(45,380,o),
(52,448,c),
(96,448,l),
(95,400,o),
(122,384,o),
(163,384,cs),
(210,384,o),
(243,407,o),
(250,446,cs),
(257,486,o),
(228,508,o),
(184,508,cs),
(133,508,l),
(140,545,l),
(191,545,ls),
(234,545,o),
(269,568,o),
(276,608,c),
(284,645,o),
(260,670,o),
(216,670,cs),
(169,670,o),
(143,649,o),
(128,617,c),
(84,617,l),
(101,672,o),
(153,708,o),
(224,708,cs),
(290,708,o),
(335,666,o),
(325,608,cs),
(318,567,o),
(289,539,o),
(249,527,c),
(248,525,l),
(281,514,o),
(306,486,o),
(298,442,cs),
(289,393,o),
(236,347,o),
(156,347,cs)
);
}
);
width = 299;
}
);
unicode = 179;
}
{
glyphname = acute;
layers = (
{
layerId = "2916D4A4-8684-4E16-97E6-1E1555060A99";
shapes = (
{
closed = 1;
nodes = (
(54,534,l),
(75,652,l),
(337,768,l),
(314,635,l)
);
}
);
width = 250;
},
{
layerId = "C58D79E9-5C27-47CF-BCFD-A6E10D98D405";
shapes = (
{
closed = 1;
nodes = (
(66,538,l),
(78,603,l),
(312,729,l),
(298,653,l)
);
}
);
width = 241;
},
{
layerId = "13CE2B3A-5842-4154-B805-A41E50C98059";
shapes = (
{
closed = 1;
nodes = (
(70,539,l),
(78,583,l),
(301,713,l),
(291,660,l)
);
}
);
width = 237;
}
);
unicode = 180;
}
{
glyphname = mu;
layers = (
{
layerId = "2916D4A4-8684-4E16-97E6-1E1555060A99";
shapes = (
{
closed = 1;
nodes = (
(-27,-222,l),
(102,500,l),
(274,500,l),
(229,243,ls),
(227,232,o),
(225,214,o),
(225,206,qs),
(225,170,o),
(259,132,o),
(298,132,qs),
(341,132,o),
(405,191,o),
(414,243,qs),
(460,500,l),
(632,500,l),
(544,0,l),
(394,0,l),
(389,74,l),
(360,35,o),
(273,-12,o),
(213,-12,qs),
(205,-12,o),
(191,-11,o),
(183,-10,q),
(145,-222,l)
);
}
);
width = 645;
},
{
layerId = "C58D79E9-5C27-47CF-BCFD-A6E10D98D405";
shapes = (
{
closed = 1;
nodes = (
(-22,-222,l),
(106,500,l),
(195,500,l),
(145,219,ls),
(143,205,o),
(141,181,o),
(141,170,qs),
(141,116,o),
(193,64,o),
(245,64,qs),
(308,64,o),
(406,150,o),
(423,232,q),
(470,500,l),
(558,500,l),
(471,0,l),
(391,0,l),
(400,90,l),
(368,42,o),
(269,-12,o),
(211,-12,qs),
(179,-12,o),
(129,4,o),
(110,21,q),
(66,-222,l)
);
}
);
width = 577;
},
{
layerId = "13CE2B3A-5842-4154-B805-A41E50C98059";
shapes = (
{
closed = 1;
nodes = (
(-20,-222,l),
(108,500,l),
(163,500,l),
(112,209,ls),
(110,195,o),
(107,167,o),
(107,156,qs),
(107,96,o),
(167,37,o),
(224,37,qs),
(294,37,o),
(406,134,o),
(426,228,q),
(474,500,l),
(529,500,l),
(442,0,l),
(390,0,l),
(404,96,l),
(372,44,o),
(267,-12,o),
(210,-12,qs),
(168,-12,o),
(104,11,o),
(81,34,q),
(35,-222,l)
);
}
);
width = 550;
}
);
rightKerningGroup = a;
unicode = 181;
}
{
glyphname = paragraph;
layers = (
{
layerId = "2916D4A4-8684-4E16-97E6-1E1555060A99";
shapes = (
{
closed = 1;
nodes = (
(224,-100,l),
(289,271,l),
(266,271,ls),
(211,271,o),
(134,304,o),
(110,331,q),
(85,357,o),
(62,425,o),
(62,459,qs),
(62,516,o),
(104,605,o),
(141,636,qs),
(178,667,o),
(281,700,o),
(342,700,qs),
(709,700,l),
(568,-100,l),
(427,-100,l),
(545,570,l),
(483,570,l),
(365,-100,l)
);
}
);
width = 685;
},
{
layerId = "C58D79E9-5C27-47CF-BCFD-A6E10D98D405";
shapes = (
{
closed = 1;
nodes = (
(218,-100,l),
(288,294,l),
(277,294,ls),
(223,294,o),
(147,324,o),
(121,350,qs),
(96,375,o),
(72,440,o),
(72,475,qs),
(72,531,o),
(113,613,o),
(149,642,qs),
(185,671,o),
(287,700,o),
(348,700,qs),
(595,700,l),
(454,-100,l),
(376,-100,l),
(505,631,l),
(424,631,l),
(295,-100,l)
);
}
);
width = 581;
},
{
layerId = "13CE2B3A-5842-4154-B805-A41E50C98059";
shapes = (
{
closed = 1;
nodes = (
(215,-100,l),
(287,303,l),
(281,303,ls),
(227,303,o),
(152,333,o),
(126,358,qs),
(100,382,o),
(76,447,o),
(76,482,qs),
(76,536,o),
(116,617,o),
(152,645,qs),
(188,672,o),
(289,700,o),
(350,700,qs),
(549,700,l),
(408,-100,l),
(356,-100,l),
(489,655,l),
(400,655,l),
(267,-100,l)
);
}
);
width = 539;
}
);
unicode = 182;
}
{
glyphname = periodcentered;
layers = (
{
layerId = "2916D4A4-8684-4E16-97E6-1E1555060A99";
shapes = (
{
closed = 1;
nodes = (
(103,222,o),
(47,276,o),
(47,314,qs),
(47,354,o),
(103,408,o),
(149,408,qs),
(194,408,o),
(250,354,o),
(250,314,qs),
(250,276,o),
(194,222,o),
(149,222,qs)
);
}
);
width = 274;
},
{
layerId = "C58D79E9-5C27-47CF-BCFD-A6E10D98D405";
shapes = (
{
closed = 1;
nodes = (
(84,282,o),
(50,315,o),
(50,341,qs),
(50,366,o),
(84,400,o),
(110,400,qs),
(136,400,o),
(170,366,o),
(170,341,qs),
(170,315,o),
(136,282,o),
(110,282,qs)
);
}
);
width = 186;
},
{
layerId = "13CE2B3A-5842-4154-B805-A41E50C98059";
shapes = (
{
closed = 1;
nodes = (
(76,306,o),
(51,332,o),
(51,352,qs),
(51,371,o),
(76,397,o),
(94,397,qs),
(111,397,o),
(137,371,o),
(137,352,qs),
(137,332,o),
(111,306,o),
(94,306,qs)
);
}
);
width = 151;
}
);
unicode = 183;
}
{
glyphname = cedilla;
layers = (
{
layerId = "79854D6D-25E7-4737-919A-271E0ABD7EDC";
shapes = (
{
closed = 1;
nodes = (
(10,-267,l),
(10,-173,l),
(141,-173,ls),
(166,-173,o),
(181,-167,o),
(181,-147,cs),
(181,-128,o),
(166,-122,o),
(141,-122,cs),
(70,-122,l),
(70,7,l),
(173,7,l),
(173,-37,l),
(233,-37,o),
(303,-67,o),
(303,-151,cs),
(303,-234,o),
(233,-267,o),
(164,-267,cs)
);
}
);
width = 313;
},
{
layerId = "B1C61474-62B7-484B-9764-E73F45C0DC6D";
shapes = (
{
closed = 1;
nodes = (
(21,-260,l),
(21,-204,l),
(115,-204,ls),
(162,-204,o),
(182,-189,o),
(182,-158,cs),
(182,-129,o),
(162,-114,o),
(115,-114,cs),
(65,-114,l),
(65,7,l),
(124,7,l),
(124,-62,l),
(199,-60,o),
(252,-92,o),
(252,-158,cs),
(252,-223,o),
(202,-260,o),
(131,-260,cs)
);
}
);
width = 274;
},
{
layerId = "617CD1A0-F923-462F-B4E4-BD0161ABA38E";
shapes = (
{
closed = 1;
nodes = (
(26,-257,l),
(26,-217,l),
(105,-217,ls),
(160,-217,o),
(182,-198,o),
(182,-162,cs),
(182,-129,o),
(160,-111,o),
(105,-111,cs),
(63,-111,l),
(63,7,l),
(104,7,l),
(104,-72,l),
(185,-69,o),
(232,-102,o),
(232,-161,cs),
(232,-218,o),
(189,-257,o),
(118,-257,cs)
);
}
);
width = 258;
}
);
unicode = 184;
}
{
glyphname = onesuperior;
layers = (
{
layerId = "84C8819D-02E3-4D9D-80EE-F3CA29327F71";
shapes = (
{
closed = 1;
nodes = (
(97,352,l),
(138,585,l),
(64,571,l),
(78,650,l),
(219,704,l),
(288,704,l),
(226,352,l)
);
}
);
width = 249;
},
{
layerId = "44586365-17B2-4B09-91E8-CEE5E00BC966";
shapes = (
{
closed = 1;
nodes = (
(99,352,l),
(149,636,l),
(79,618,l),
(87,661,l),
(186,704,l),
(231,704,l),
(169,352,l)
);
}
);
width = 192;
},
{
layerId = "EC825F25-5E21-4444-B100-FC828A5BE381";
shapes = (
{
closed = 1;
nodes = (
(100,352,l),
(153,656,l),
(85,637,l),
(90,666,l),
(173,704,l),
(208,704,l),
(146,352,l)
);
}
);
width = 169;
}
);
unicode = 185;
}
{
glyphname = ordmasculine;
layers = (
{
layerId = "2916D4A4-8684-4E16-97E6-1E1555060A99";
shapes = (
{
closed = 1;
nodes = (
(152,350,o),
(59,432,o),
(59,498,qs),
(59,546,o),
(96,623,o),
(129,652,qs),
(161,681,o),
(247,712,o),
(296,712,qs),
(378,712,o),
(472,632,o),
(472,566,qs),
(472,518,o),
(434,440,o),
(402,411,qs),
(370,382,o),
(283,350,o),
(234,350,qs)
);
},
{
closed = 1;
nodes = (
(272,448,o),
(305,466,o),
(317,481,qs),
(328,495,o),
(340,532,o),
(340,550,qs),
(340,583,o),
(304,615,o),
(279,615,qs),
(258,615,o),
(225,597,o),
(214,582,qs),
(203,567,o),
(191,530,o),
(191,511,qs),
(191,479,o),
(225,448,o),
(251,448,qs)
);
}
);
width = 446;
},
{
layerId = "C58D79E9-5C27-47CF-BCFD-A6E10D98D405";
shapes = (
{
closed = 1;
nodes = (
(151,349,o),
(66,428,o),
(66,494,qs),
(66,540,o),
(100,619,o),
(130,648,q),
(159,678,o),
(237,712,o),
(283,712,qs),
(354,712,o),
(441,633,o),
(441,567,qs),
(441,521,o),
(406,442,o),
(377,412,qs),
(348,383,o),
(268,349,o),
(222,349,qs)
);
},
{
closed = 1;
nodes = (
(263,403,o),
(313,429,o),
(331,451,qs),
(349,473,o),
(368,530,o),
(368,561,qs),
(368,609,o),
(314,659,o),
(274,659,qs),
(242,659,o),
(193,632,o),
(175,609,qs),
(157,586,o),
(137,530,o),
(137,500,qs),
(137,452,o),
(189,403,o),
(231,403,qs)
);
}
);
width = 420;
},
{
layerId = "13CE2B3A-5842-4154-B805-A41E50C98059";
shapes = (
{
closed = 1;
nodes = (
(151,348,o),
(69,426,o),
(69,492,qs),
(69,537,o),
(101,617,o),
(130,647,qs),
(159,677,o),
(233,712,o),
(278,712,qs),
(344,712,o),
(428,634,o),
(428,567,qs),
(428,522,o),
(396,443,o),
(367,413,qs),
(338,383,o),
(262,348,o),
(217,348,qs)
);
},
{
closed = 1;
nodes = (
(258,385,o),
(316,414,o),
(337,439,qs),
(357,464,o),
(379,529,o),
(379,566,qs),
(379,620,o),
(318,676,o),
(272,676,qs),
(237,676,o),
(180,646,o),
(160,620,qs),
(139,594,o),
(116,530,o),
(116,496,qs),
(116,441,o),
(175,385,o),
(223,385,qs)
);
}
);
width = 409;
}
);
unicode = 186;
}
{
glyphname = guillemotright;
layers = (
{
layerId = "2916D4A4-8684-4E16-97E6-1E1555060A99";
shapes = (
{
closed = 1;
nodes = (
(246,120,l),
(364,295,l),
(308,470,l),
(466,470,l),
(519,295,l),
(404,120,l)
);
},
{
closed = 1;
nodes = (
(21,120,l),
(139,295,l),
(83,470,l),
(241,470,l),
(294,295,l),
(179,120,l)
);
}
);
width = 545;
},
{
layerId = "C58D79E9-5C27-47CF-BCFD-A6E10D98D405";
shapes = (
{
closed = 1;
nodes = (
(204,120,l),
(334,295,l),
(266,470,l),
(352,470,l),
(418,295,l),
(290,120,l)
);
},
{
closed = 1;
nodes = (
(24,120,l),
(154,295,l),
(86,470,l),
(172,470,l),
(238,295,l),
(110,120,l)
);
}
);
width = 442;
},
{
layerId = "13CE2B3A-5842-4154-B805-A41E50C98059";
shapes = (
{
closed = 1;
nodes = (
(187,120,l),
(322,295,l),
(249,470,l),
(307,470,l),
(377,295,l),
(245,120,l)
);
},
{
closed = 1;
nodes = (
(25,120,l),
(160,295,l),
(87,470,l),
(145,470,l),
(215,295,l),
(83,120,l)
);
}
);
width = 401;
}
);
unicode = 187;
}
{
glyphname = onequarter;
layers = (
{
layerId = "84C8819D-02E3-4D9D-80EE-F3CA29327F71";
shapes = (
{
closed = 1;
nodes = (
(117,352,l),
(158,585,l),
(84,571,l),
(98,650,l),
(239,704,l),
(308,704,l),
(246,352,l)
);
},
{
closed = 1;
nodes = (
(31,0,l),
(539,700,l),
(703,700,l),
(196,0,l)
);
},
{
closed = 1;
nodes = (
(530,0,l),
(542,62,l),
(347,62,l),
(358,130,l),
(543,352,l),
(722,352,l),
(684,135,l),
(723,135,l),
(711,62,l),
(671,62,l),
(659,0,l)
);
},
{
closed = 1;
nodes = (
(483,138,l),
(561,138,l),
(583,267,l)
);
}
);
width = 774;
},
{
layerId = "44586365-17B2-4B09-91E8-CEE5E00BC966";
shapes = (
{
closed = 1;
nodes = (
(118,352,l),
(167,636,l),
(98,618,l),
(105,661,l),
(205,704,l),
(249,704,l),
(187,352,l)
);
},
{
closed = 1;
nodes = (
(8,0,l),
(503,700,l),
(586,700,l),
(93,0,l)
);
},
{
closed = 1;
nodes = (
(423,0,l),
(436,69,l),
(253,69,l),
(261,110,l),
(464,353,l),
(556,353,l),
(513,114,l),
(561,114,l),
(554,69,l),
(505,69,l),
(493,0,l)
);
},
{
closed = 1;
nodes = (
(332,115,l),
(445,115,l),
(477,291,l)
);
}
);
width = 621;
},
{
layerId = "EC825F25-5E21-4444-B100-FC828A5BE381";
shapes = (
{
closed = 1;
nodes = (
(118,352,l),
(171,656,l),
(103,637,l),
(108,666,l),
(191,704,l),
(226,704,l),
(164,352,l)
);
},
{
closed = 1;
nodes = (
(-1,0,l),
(488,700,l),
(539,700,l),
(52,0,l)
);
},
{
closed = 1;
nodes = (
(380,0,l),
(393,72,l),
(216,72,l),
(222,102,l),
(432,354,l),
(489,354,l),
(445,106,l),
(496,106,l),
(491,72,l),
(439,72,l),
(426,0,l)
);
},
{
closed = 1;
nodes = (
(271,106,l),
(399,106,l),
(434,300,l)
);
}
);
width = 560;
}
);
unicode = 188;
}
{
glyphname = onehalf;
layers = (
{
layerId = "2916D4A4-8684-4E16-97E6-1E1555060A99";
shapes = (
{
closed = 1;
nodes = (
(117,352,l),
(158,585,l),
(84,571,l),
(98,650,l),
(239,704,l),
(308,704,l),
(246,352,l)
);
},
{
closed = 1;
nodes = (
(31,0,l),
(538,700,l),
(703,700,l),
(196,0,l)
);
},
{
closed = 1;
nodes = (
(453,-1,l),
(470,95,l),
(606,169,ls),
(637,186,o),
(670,222,o),
(674,241,q),
(676,255,o),
(667,269,o),
(654,269,qs),
(640,269,o),
(623,251,o),
(618,233,q),
(490,233,l),
(503,290,o),
(605,361,o),
(683,361,qs),
(722,361,o),
(774,342,o),
(805,310,o),
(815,270,o),
(812,250,qs),
(805,213,o),
(741,159,o),
(672,129,qs),
(606,99,l),
(780,99,l),
(762,-1,l)
);
}
);
width = 809;
},
{
layerId = "C58D79E9-5C27-47CF-BCFD-A6E10D98D405";
shapes = (
{
closed = 1;
nodes = (
(118,352,l),
(167,636,l),
(98,618,l),
(105,661,l),
(205,704,l),
(249,704,l),
(187,352,l)
);
},
{
closed = 1;
nodes = (
(1,0,l),
(489,700,l),
(574,700,l),
(85,0,l)
);
},
{
closed = 1;
nodes = (
(382,-1,l),
(391,49,l),
(520,140,l),
(552,164,o),
(601,214,o),
(606,247,qs),
(611,276,o),
(586,304,o),
(563,304,qs),
(537,304,o),
(502,275,o),
(494,246,q),
(424,246,l),
(435,293,o),
(513,357,o),
(576,357,qs),
(605,357,o),
(648,340,o),
(675,311,o),
(684,272,o),
(680,250,qs),
(672,208,o),
(614,148,o),
(559,113,q),
(472,55,l),
(650,55,l),
(640,-1,l)
);
}
);
width = 666;
},
{
layerId = "13CE2B3A-5842-4154-B805-A41E50C98059";
shapes = (
{
closed = 1;
nodes = (
(118,352,l),
(171,656,l),
(103,637,l),
(108,666,l),
(191,704,l),
(226,704,l),
(164,352,l)
);
},
{
closed = 1;
nodes = (
(-11,0,l),
(469,700,l),
(522,700,l),
(41,0,l)
);
},
{
closed = 1;
nodes = (
(353,-1,l),
(359,31,l),
(486,129,ls),
(519,155,o),
(573,211,o),
(579,249,q),
(586,284,o),
(554,318,o),
(527,318,qs),
(495,318,o),
(455,285,o),
(445,251,q),
(397,251,l),
(408,294,o),
(476,355,o),
(533,355,qs),
(559,355,o),
(598,339,o),
(622,311,o),
(632,273,o),
(627,250,qs),
(619,207,o),
(563,143,o),
(514,107,qs),
(418,38,l),
(598,38,l),
(591,-1,l)
);
}
);
width = 609;
}
);
unicode = 189;
}
{
glyphname = threequarters;
layers = (
{
layerId = "84C8819D-02E3-4D9D-80EE-F3CA29327F71";
shapes = (
{
closed = 1;
nodes = (
(112,348,o),
(69,395,o),
(77,470,c),
(209,470,l),
(207,449,o),
(216,439,o),
(237,439,cs),
(256,439,o),
(270,448,o),
(274,471,cs),
(278,494,o),
(267,505,o),
(240,505,cs),
(207,505,l),
(216,561,l),
(244,561,ls),
(270,561,o),
(285,572,o),
(289,594,cs),
(292,613,o),
(284,623,o),
(264,623,cs),
(245,623,o),
(233,613,o),
(226,592,c),
(104,592,l),
(117,656,o),
(178,714,o),
(293,714,cs),
(386,714,o),
(440,669,o),
(429,609,cs),
(422,566,o),
(391,542,o),
(347,533,c),
(346,530,l),
(393,517,o),
(414,490,o),
(407,449,cs),
(396,386,o),
(325,348,o),
(229,348,cs)
);
},
{
closed = 1;
nodes = (
(147,0,l),
(653,700,l),
(818,700,l),
(311,0,l)
);
},
{
closed = 1;
nodes = (
(646,0,l),
(657,62,l),
(461,62,l),
(473,130,l),
(648,352,l),
(837,352,l),
(798,135,l),
(838,135,l),
(825,62,l),
(786,62,l),
(774,0,l)
);
},
{
closed = 1;
nodes = (
(597,135,l),
(675,135,l),
(701,277,l)
);
}
);
width = 888;
},
{
layerId = "44586365-17B2-4B09-91E8-CEE5E00BC966";
shapes = (
{
closed = 1;
nodes = (
(104,347,o),
(61,384,o),
(68,454,c),
(138,454,l),
(136,414,o),
(158,400,o),
(193,400,cs),
(232,400,o),
(260,419,o),
(266,453,cs),
(272,488,o),
(248,507,o),
(209,507,cs),
(163,507,l),
(171,550,l),
(215,550,ls),
(254,550,o),
(283,569,o),
(289,604,c),
(296,636,o),
(276,657,o),
(239,657,cs),
(200,657,o),
(178,639,o),
(165,610,c),
(99,610,l),
(115,667,o),
(169,710,o),
(253,710,cs),
(327,710,o),
(374,667,o),
(364,608,cs),
(357,567,o),
(327,540,o),
(286,529,c),
(285,526,l),
(322,515,o),
(346,487,o),
(338,444,cs),
(329,391,o),
(271,347,o),
(186,347,cs)
);
},
{
closed = 1;
nodes = (
(81,0,l),
(583,700,l),
(667,700,l),
(165,0,l)
);
},
{
closed = 1;
nodes = (
(483,0,l),
(496,69,l),
(312,69,l),
(320,110,l),
(521,353,l),
(615,353,l),
(573,114,l),
(621,114,l),
(613,69,l),
(565,69,l),
(552,0,l)
);
},
{
closed = 1;
nodes = (
(391,114,l),
(504,114,l),
(537,293,l)
);
}
);
width = 680;
},
{
layerId = "EC825F25-5E21-4444-B100-FC828A5BE381";
shapes = (
{
closed = 1;
nodes = (
(101,347,o),
(58,380,o),
(65,448,c),
(109,448,l),
(108,400,o),
(135,384,o),
(176,384,cs),
(223,384,o),
(256,407,o),
(263,446,cs),
(270,486,o),
(241,508,o),
(197,508,cs),
(146,508,l),
(153,545,l),
(204,545,ls),
(247,545,o),
(282,568,o),
(289,608,c),
(297,645,o),
(273,670,o),
(229,670,cs),
(182,670,o),
(156,649,o),
(141,617,c),
(97,617,l),
(114,672,o),
(166,708,o),
(237,708,cs),
(303,708,o),
(348,666,o),
(338,608,cs),
(331,567,o),
(302,539,o),
(262,527,c),
(261,525,l),
(294,514,o),
(319,486,o),
(311,442,cs),
(302,393,o),
(249,347,o),
(169,347,cs)
);
},
{
closed = 1;
nodes = (
(54,0,l),
(555,700,l),
(606,700,l),
(106,0,l)
);
},
{
closed = 1;
nodes = (
(418,0,l),
(431,72,l),
(253,72,l),
(259,102,l),
(470,354,l),
(526,354,l),
(483,106,l),
(534,106,l),
(528,72,l),
(476,72,l),
(463,0,l)
);
},
{
closed = 1;
nodes = (
(308,106,l),
(436,106,l),
(472,299,l)
);
}
);
width = 597;
}
);
unicode = 190;
}
{
glyphname = Acircumflex;
layers = (
{
layerId = "2916D4A4-8684-4E16-97E6-1E1555060A99";
shapes = (
{
closed = 1;
nodes = (
(-34,0,l),
(342,700,l),
(543,700,l),
(672,0,l),
(491,0,l),
(468,144,l),
(219,144,l),
(145,0,l)
);
},
{
closed = 1;
nodes = (
(448,274,l),
(410,513,l),
(286,274,l)
);
},
{
closed = 1;
nodes = (
(291,736,l),
(312,854,l),
(482,938,l),
(622,854,l),
(601,736,l),
(462,823,l)
);
}
);
width = 726;
},
{
layerId = "C58D79E9-5C27-47CF-BCFD-A6E10D98D405";
shapes = (
{
closed = 1;
nodes = (
(-23,0,l),
(359,700,l),
(454,700,l),
(587,0,l),
(495,0,l),
(463,178,l),
(167,178,l),
(72,0,l)
);
},
{
closed = 1;
nodes = (
(452,248,l),
(388,595,l),
(203,248,l)
);
},
{
closed = 1;
nodes = (
(278,757,l),
(290,825,l),
(443,907,l),
(566,825,l),
(554,757,l),
(431,841,l)
);
}
);
width = 652;
},
{
layerId = "13CE2B3A-5842-4154-B805-A41E50C98059";
shapes = (
{
closed = 1;
nodes = (
(-18,0,l),
(366,700,l),
(418,700,l),
(553,0,l),
(497,0,l),
(461,192,l),
(146,192,l),
(43,0,l)
);
},
{
closed = 1;
nodes = (
(453,237,l),
(379,628,l),
(170,237,l)
);
},
{
closed = 1;
nodes = (
(273,765,l),
(281,813,l),
(427,894,l),
(543,813,l),
(535,765,l),
(419,848,l)
);
}
);
width = 623;
}
);
leftKerningGroup = A2;
rightKerningGroup = A;
unicode = 194;
}
{
glyphname = Aring;
layers = (
{
layerId = "2916D4A4-8684-4E16-97E6-1E1555060A99";
shapes = (
{
closed = 1;
nodes = (
(-34,0,l),
(342,700,l),
(543,700,l),
(672,0,l),
(491,0,l),
(468,144,l),
(219,144,l),
(145,0,l)
);
},
{
closed = 1;
nodes = (
(448,274,l),
(410,513,l),
(286,274,l)
);
},
{
closed = 1;
nodes = (
(417,741,o),
(346,805,o),
(346,862,qs),
(346,919,o),
(417,983,o),
(468,983,qs),
(494,983,o),
(538,966,o),
(572,935,o),
(591,890,o),
(591,862,qs),
(591,834,o),
(572,789,o),
(538,758,o),
(494,741,o),
(468,741,qs)
);
},
{
closed = 1;
nodes = (
(488,813,o),
(516,840,o),
(516,862,qs),
(516,885,o),
(488,911,o),
(468,911,qs),
(448,911,o),
(421,885,o),
(421,862,qs),
(421,840,o),
(448,813,o),
(468,813,qs)
);
}
);
width = 726;
},
{
layerId = "C58D79E9-5C27-47CF-BCFD-A6E10D98D405";
shapes = (
{
closed = 1;
nodes = (
(-23,0,l),
(359,700,l),
(454,700,l),
(587,0,l),
(495,0,l),
(463,178,l),
(167,178,l),
(72,0,l)
);
},
{
closed = 1;
nodes = (
(452,248,l),
(388,595,l),
(203,248,l)
);
},
{
closed = 1;
nodes = (
(393,760,o),
(331,815,o),
(331,863,qs),
(331,912,o),
(393,967,o),
(437,967,qs),
(459,967,o),
(497,953,o),
(526,926,o),
(542,887,o),
(542,863,qs),
(542,839,o),
(526,801,o),
(497,774,o),
(459,760,o),
(437,760,qs)
);
},
{
closed = 1;
nodes = (
(461,805,o),
(494,836,o),
(494,863,qs),
(494,892,o),
(461,922,o),
(437,922,qs),
(413,922,o),
(380,892,o),
(380,863,qs),
(380,836,o),
(413,805,o),
(437,805,qs)
);
}
);
width = 652;
},
{
layerId = "13CE2B3A-5842-4154-B805-A41E50C98059";
shapes = (
{
closed = 1;
nodes = (
(-18,0,l),
(366,700,l),
(418,700,l),
(553,0,l),
(497,0,l),
(461,192,l),
(146,192,l),
(43,0,l)
);
},
{
closed = 1;
nodes = (
(453,237,l),
(379,628,l),
(170,237,l)
);
},
{
closed = 1;
nodes = (
(384,767,o),
(325,819,o),
(325,864,qs),
(325,909,o),
(384,961,o),
(424,961,qs),
(445,961,o),
(481,948,o),
(508,922,o),
(523,887,o),
(523,864,qs),
(523,842,o),
(508,806,o),
(481,780,o),
(445,767,o),
(424,767,qs)
);
},
{
closed = 1;
nodes = (
(450,802,o),
(485,835,o),
(485,864,qs),
(485,894,o),
(450,927,o),
(424,927,qs),
(399,927,o),
(364,894,o),
(364,864,qs),
(364,835,o),
(399,802,o),
(424,802,qs)
);
}
);
width = 623;
}
);
leftKerningGroup = A2;
rightKerningGroup = A;
unicode = 197;
}
{
glyphname = AE;
layers = (
{
layerId = "79854D6D-25E7-4737-919A-271E0ABD7EDC";
shapes = (
{
closed = 1;
nodes = (
(16,0,l),
(375,700,l),
(916,700,l),
(916,565,l),
(663,565,l),
(663,423,l),
(886,423,l),
(886,293,l),
(663,293,l),
(663,135,l),
(916,135,l),
(916,0,l),
(492,0,l),
(492,118,l),
(261,118,l),
(201,0,l)
);
},
{
closed = 1;
nodes = (
(492,248,l),
(492,573,l),
(327,248,l)
);
}
);
width = 966;
},
{
layerId = "B1C61474-62B7-484B-9764-E73F45C0DC6D";
shapes = (
{
closed = 1;
nodes = (
(29,0,l),
(426,700,l),
(857,700,l),
(857,630,l),
(569,630,l),
(569,388,l),
(827,388,l),
(827,319,l),
(569,319,l),
(569,70,l),
(857,70,l),
(857,0,l),
(481,0,l),
(481,157,l),
(215,157,l),
(125,0,l)
);
},
{
closed = 1;
nodes = (
(481,227,l),
(481,628,l),
(253,227,l)
);
}
);
width = 913;
},
{
layerId = "617CD1A0-F923-462F-B4E4-BD0161ABA38E";
shapes = (
{
closed = 1;
nodes = (
(34,0,l),
(447,700,l),
(833,700,l),
(833,656,l),
(532,656,l),
(532,374,l),
(803,374,l),
(803,329,l),
(532,329,l),
(532,44,l),
(833,44,l),
(833,0,l),
(477,0,l),
(477,173,l),
(197,173,l),
(95,0,l)
);
},
{
closed = 1;
nodes = (
(477,218,l),
(477,650,l),
(223,218,l)
);
}
);
width = 892;
}
);
leftKerningGroup = AE;
unicode = 198;
}
{
glyphname = Ecircumflex;
layers = (
{
layerId = "84C8819D-02E3-4D9D-80EE-F3CA29327F71";
shapes = (
{
closed = 1;
nodes = (
(12,0,l),
(136,700,l),
(596,700,l),
(572,565,l),
(283,565,l),
(258,421,l),
(517,421,l),
(494,292,l),
(235,292,l),
(207,135,l),
(496,135,l),
(472,0,l)
);
},
{
closed = 1;
nodes = (
(228,736,l),
(249,854,l),
(419,938,l),
(559,854,l),
(538,736,l),
(399,823,l)
);
}
);
width = 566;
},
{
layerId = "44586365-17B2-4B09-91E8-CEE5E00BC966";
shapes = (
{
closed = 1;
nodes = (
(27,0,l),
(150,700,l),
(537,700,l),
(528,656,l),
(197,656,l),
(148,374,l),
(448,374,l),
(442,329,l),
(140,329,l),
(90,44,l),
(421,44,l),
(413,0,l)
);
},
{
closed = 1;
nodes = (
(224,765,l),
(232,813,l),
(378,894,l),
(494,813,l),
(486,765,l),
(370,848,l)
);
}
);
width = 529;
},
{
layerId = "EC825F25-5E21-4444-B100-FC828A5BE381";
shapes = (
{
closed = 1;
nodes = (
(27,0,l),
(150,700,l),
(537,700,l),
(528,656,l),
(197,656,l),
(148,374,l),
(448,374,l),
(442,329,l),
(140,329,l),
(90,44,l),
(421,44,l),
(413,0,l)
);
},
{
closed = 1;
nodes = (
(221,765,l),
(229,813,l),
(375,894,l),
(491,813,l),
(483,765,l),
(367,848,l)
);
}
);
width = 514;
}
);
unicode = 202;
}
{
glyphname = Eth;
layers = (
{
layerId = "2916D4A4-8684-4E16-97E6-1E1555060A99";
shapes = (
{
closed = 1;
nodes = (
(13,0,l),
(62,280,l),
(-3,280,l),
(23,422,l),
(87,422,l),
(136,700,l),
(399,700,ls),
(477,700,o),
(592,658,o),
(667,582,o),
(704,476,o),
(704,413,qs),
(704,322,o),
(642,170,o),
(529,61,o),
(372,0,o),
(276,0,qs)
);
},
{
closed = 1;
nodes = (
(259,422,l),
(409,422,l),
(384,280,l),
(233,280,l),
(210,148,l),
(291,148,ls),
(348,148,o),
(437,183,o),
(497,247,o),
(528,340,o),
(528,398,qs),
(528,479,o),
(444,554,o),
(363,554,qs),
(282,554,l)
);
}
);
width = 717;
},
{
layerId = "C58D79E9-5C27-47CF-BCFD-A6E10D98D405";
shapes = (
{
closed = 1;
nodes = (
(23,0,l),
(78,309,l),
(7,309,l),
(21,388,l),
(92,388,l),
(146,700,l),
(364,700,ls),
(443,700,o),
(559,663,o),
(634,591,o),
(670,485,o),
(670,417,qs),
(670,324,o),
(610,171,o),
(498,61,o),
(339,0,o),
(241,0,qs)
);
},
{
closed = 1;
nodes = (
(180,388,l),
(392,388,l),
(379,309,l),
(166,309,l),
(125,74,l),
(251,74,ls),
(329,74,o),
(451,121,o),
(535,209,o),
(580,333,o),
(580,410,qs),
(580,517,o),
(471,626,o),
(349,626,qs),
(222,626,l)
);
}
);
width = 702;
},
{
layerId = "13CE2B3A-5842-4154-B805-A41E50C98059";
shapes = (
{
closed = 1;
nodes = (
(27,0,l),
(84,321,l),
(10,321,l),
(19,375,l),
(93,375,l),
(150,700,l),
(349,700,ls),
(429,700,o),
(544,665,o),
(620,594,o),
(656,489,o),
(656,419,qs),
(656,326,o),
(596,171,o),
(485,61,o),
(325,0,o),
(226,0,qs)
);
},
{
closed = 1;
nodes = (
(148,375,l),
(385,375,l),
(376,321,l),
(138,321,l),
(90,45,l),
(235,45,ls),
(321,45,o),
(456,97,o),
(550,194,o),
(600,331,o),
(600,415,qs),
(600,532,o),
(482,655,o),
(343,655,qs),
(197,655,l)
);
}
);
width = 696;
}
);
rightKerningGroup = D;
unicode = 208;
}
{
glyphname = Ocircumflex;
layers = (
{
layerId = "84C8819D-02E3-4D9D-80EE-F3CA29327F71";
shapes = (
{
closed = 1;
nodes = (
(182,-12,o),
(52,118,o),
(52,294,cs),
(52,527,o),
(237,712,o),
(474,712,cs),
(655,712,o),
(785,582,o),
(785,406,cs),
(785,173,o),
(600,-12,o),
(363,-12,cs)
);
},
{
closed = 1;
nodes = (
(507,143,o),
(609,250,o),
(609,390,cs),
(609,490,o),
(562,557,o),
(455,557,cs),
(330,557,o),
(228,450,o),
(228,310,cs),
(228,210,o),
(282,143,o),
(382,143,cs)
);
},
{
closed = 1;
nodes = (
(332,736,l),
(353,854,l),
(523,938,l),
(663,854,l),
(642,736,l),
(503,823,l)
);
}
);
width = 801;
},
{
layerId = "44586365-17B2-4B09-91E8-CEE5E00BC966";
shapes = (
{
closed = 1;
nodes = (
(169,-12,o),
(53,111,o),
(53,284,cs),
(53,521,o),
(244,712,o),
(470,712,cs),
(641,712,o),
(755,591,o),
(755,419,cs),
(755,179,o),
(566,-12,o),
(339,-12,cs)
);
},
{
closed = 1;
nodes = (
(541,35,o),
(698,205,o),
(698,418,cs),
(698,572,o),
(596,664,o),
(460,664,cs),
(267,664,o),
(111,496,o),
(111,285,cs),
(111,132,o),
(212,35,o),
(349,35,cs)
);
},
{
closed = 1;
nodes = (
(343,765,l),
(351,813,l),
(497,894,l),
(613,813,l),
(605,765,l),
(489,848,l)
);
}
);
width = 781;
},
{
layerId = "EC825F25-5E21-4444-B100-FC828A5BE381";
shapes = (
{
closed = 1;
nodes = (
(169,-12,o),
(53,111,o),
(53,284,cs),
(53,521,o),
(244,712,o),
(470,712,cs),
(641,712,o),
(755,591,o),
(755,419,cs),
(755,179,o),
(566,-12,o),
(339,-12,cs)
);
},
{
closed = 1;
nodes = (
(541,35,o),
(698,205,o),
(698,418,cs),
(698,572,o),
(596,664,o),
(460,664,cs),
(267,664,o),
(111,496,o),
(111,285,cs),
(111,132,o),
(212,35,o),
(349,35,cs)
);
},
{
closed = 1;
nodes = (
(346,765,l),
(354,813,l),
(500,894,l),
(616,813,l),
(608,765,l),
(492,848,l)
);
}
);
width = 773;
}
);
leftKerningGroup = C2;
rightKerningGroup = D;
unicode = 212;
}
{
glyphname = multiply;
layers = (
{
layerId = "84C8819D-02E3-4D9D-80EE-F3CA29327F71";
shapes = (
{
closed = 1;
nodes = (
(113,73,l),
(31,173,l),
(167,289,l),
(72,405,l),
(190,505,l),
(285,389,l),
(422,505,l),
(504,405,l),
(367,289,l),
(463,173,l),
(345,73,l),
(250,189,l)
);
}
);
width = 520;
},
{
layerId = "44586365-17B2-4B09-91E8-CEE5E00BC966";
shapes = (
{
closed = 1;
nodes = (
(82,104,l),
(39,157,l),
(195,290,l),
(89,419,l),
(150,470,l),
(256,341,l),
(415,477,l),
(458,425,l),
(299,289,l),
(405,161,l),
(344,110,l),
(239,238,l)
);
}
);
width = 482;
},
{
layerId = "EC825F25-5E21-4444-B100-FC828A5BE381";
shapes = (
{
closed = 1;
nodes = (
(70,117,l),
(42,150,l),
(206,291,l),
(96,425,l),
(134,456,l),
(245,322,l),
(412,466,l),
(440,433,l),
(272,289,l),
(382,156,l),
(344,125,l),
(234,258,l)
);
}
);
width = 467;
}
);
unicode = 215;
}
{
glyphname = Oslash;
layers = (
{
layerId = "006414F6-AB32-4F37-AE27-2ADC4DCE78FB";
shapes = (
{
closed = 1;
nodes = (
(285,-12,o),
(222,8,o),
(171,44,c),
(126,0,l),
(-28,0,l),
(95,122,l),
(64,170,o),
(46,229,o),
(46,294,cs),
(46,527,o),
(231,712,o),
(468,712,cs),
(536,712,o),
(594,694,o),
(643,663,c),
(680,700,l),
(834,700,l),
(722,589,l),
(758,538,o),
(779,477,o),
(779,406,cs),
(779,173,o),
(594,-12,o),
(357,-12,cs)
);
},
{
closed = 1;
nodes = (
(522,543,l),
(501,552,o),
(477,557,o),
(449,557,cs),
(324,557,o),
(222,450,o),
(222,310,cs),
(222,289,o),
(224,270,o),
(229,254,c)
);
},
{
closed = 1;
nodes = (
(501,143,o),
(603,250,o),
(603,390,cs),
(603,417,o),
(600,441,o),
(593,462,c),
(292,164,l),
(315,150,o),
(343,143,o),
(376,143,cs)
);
}
);
width = 774;
},
{
layerId = "797178CA-EA28-4B78-93E8-321876F1BDF3";
shapes = (
{
closed = 1;
nodes = (
(261,-12,o),
(196,14,o),
(145,60,c),
(80,0,l),
(-13,0,l),
(101,108,l),
(67,157,o),
(49,218,o),
(49,287,cs),
(49,523,o),
(238,712,o),
(467,712,cs),
(547,712,o),
(614,685,o),
(664,640,c),
(728,700,l),
(820,700,l),
(708,593,l),
(741,544,o),
(760,484,o),
(760,415,cs),
(760,177,o),
(572,-12,o),
(342,-12,cs)
);
},
{
closed = 1;
nodes = (
(601,579,l),
(564,615,o),
(513,633,o),
(455,633,cs),
(281,633,o),
(141,483,o),
(141,292,cs),
(141,246,o),
(151,206,o),
(169,174,c)
);
},
{
closed = 1;
nodes = (
(527,66,o),
(669,218,o),
(669,410,cs),
(669,457,o),
(659,495,o),
(641,529,c),
(208,121,l),
(245,86,o),
(296,66,o),
(355,66,cs)
);
}
);
width = 772;
},
{
layerId = "9F3B9F63-BB4B-4875-904D-0FA4124C677C";
shapes = (
{
closed = 1;
nodes = (
(252,-12,o),
(185,16,o),
(134,67,c),
(62,0,l),
(-7,0,l),
(104,103,l),
(68,152,o),
(50,213,o),
(50,284,cs),
(50,521,o),
(241,712,o),
(467,712,cs),
(552,712,o),
(622,682,o),
(673,631,c),
(747,700,l),
(815,700,l),
(702,595,l),
(734,547,o),
(752,487,o),
(752,419,cs),
(752,179,o),
(563,-12,o),
(336,-12,cs)
);
},
{
closed = 1;
nodes = (
(632,593,l),
(589,640,o),
(528,664,o),
(457,664,cs),
(264,664,o),
(108,496,o),
(108,285,cs),
(108,229,o),
(122,181,o),
(145,142,c)
);
},
{
closed = 1;
nodes = (
(538,35,o),
(695,205,o),
(695,418,cs),
(695,473,o),
(683,517,o),
(660,556,c),
(174,104,l),
(217,60,o),
(277,35,o),
(346,35,cs)
);
}
);
width = 771;
}
);
unicode = 216;
}
{
glyphname = Thorn;
layers = (
{
layerId = "2916D4A4-8684-4E16-97E6-1E1555060A99";
shapes = (
{
closed = 1;
nodes = (
(13,0,l),
(136,700,l),
(307,700,l),
(285,575,l),
(401,575,ls),
(458,575,o),
(541,544,o),
(569,518,qs),
(597,491,o),
(624,420,o),
(624,381,qs),
(624,321,o),
(580,227,o),
(539,194,qs),
(498,161,o),
(388,125,o),
(322,125,qs),
(206,125,l),
(184,0,l)
);
},
{
closed = 1;
nodes = (
(230,261,l),
(333,261,ls),
(387,261,o),
(448,320,o),
(448,371,qs),
(448,402,o),
(409,437,o),
(364,437,qs),
(261,437,l)
);
}
);
width = 626;
},
{
layerId = "C58D79E9-5C27-47CF-BCFD-A6E10D98D405";
shapes = (
{
closed = 1;
nodes = (
(23,0,l),
(146,700,l),
(234,700,l),
(209,555,l),
(354,555,ls),
(408,555,o),
(486,529,o),
(512,506,qs),
(537,483,o),
(562,420,o),
(562,382,qs),
(562,328,o),
(522,241,o),
(484,210,qs),
(446,179,o),
(344,146,o),
(281,146,qs),
(137,146,l),
(111,0,l)
);
},
{
closed = 1;
nodes = (
(150,219,l),
(292,219,ls),
(377,219,o),
(470,304,o),
(470,382,qs),
(470,431,o),
(409,482,o),
(339,482,qs),
(197,482,l)
);
}
);
width = 570;
},
{
layerId = "13CE2B3A-5842-4154-B805-A41E50C98059";
shapes = (
{
closed = 1;
nodes = (
(27,0,l),
(150,700,l),
(205,700,l),
(179,547,l),
(335,547,ls),
(389,547,o),
(464,522,o),
(489,501,q),
(513,479,o),
(537,419,o),
(537,383,qs),
(537,331,o),
(498,246,o),
(462,216,qs),
(426,186,o),
(326,154,o),
(265,154,qs),
(109,154,l),
(82,0,l)
);
},
{
closed = 1;
nodes = (
(118,202,l),
(276,202,ls),
(373,202,o),
(479,298,o),
(479,386,qs),
(479,443,o),
(410,500,o),
(329,500,qs),
(171,500,l)
);
}
);
width = 547;
}
);
unicode = 222;
}
{
glyphname = germandbls;
layers = (
{
layerId = "2916D4A4-8684-4E16-97E6-1E1555060A99";
shapes = (
{
closed = 1;
nodes = (
(354,-10,o),
(246,90,o),
(251,182,q),
(409,182,l),
(407,151,o),
(441,115,o),
(471,115,qs),
(501,115,o),
(536,142,o),
(536,168,qs),
(536,188,o),
(506,215,o),
(464,231,qs),
(393,257,o),
(327,312,o),
(327,354,qs),
(327,378,o),
(348,416,o),
(380,447,o),
(416,472,o),
(448,498,o),
(469,525,o),
(469,541,qs),
(469,568,o),
(428,595,o),
(389,595,qs),
(334,595,o),
(272,539,o),
(263,490,qs),
(176,0,l),
(5,0,l),
(94,502,ls),
(103,555,o),
(153,641,o),
(234,704,o),
(344,738,o),
(412,738,qs),
(468,738,o),
(555,711,o),
(615,665,o),
(647,605,o),
(647,572,qs),
(647,546,o),
(626,505,o),
(594,472,o),
(557,445,o),
(525,422,o),
(504,402,o),
(504,391,qs),
(504,385,o),
(509,376,o),
(526,364,o),
(560,349,o),
(588,338,qs),
(651,312,o),
(706,246,o),
(706,189,qs),
(706,144,o),
(669,71,o),
(603,19,o),
(512,-10,o),
(458,-10,qs)
);
}
);
width = 744;
},
{
layerId = "C58D79E9-5C27-47CF-BCFD-A6E10D98D405";
shapes = (
{
closed = 1;
nodes = (
(307,-10,o),
(212,88,o),
(220,171,q),
(307,171,l),
(302,119,o),
(354,59,o),
(406,59,qs),
(458,59,o),
(522,116,o),
(522,164,qs),
(522,193,o),
(483,230,o),
(435,247,qs),
(368,272,o),
(307,322,o),
(307,363,qs),
(307,391,o),
(334,431,o),
(373,462,o),
(420,490,o),
(459,520,o),
(486,558,o),
(486,585,qs),
(486,620,o),
(427,664,o),
(370,664,qs),
(295,664,o),
(213,584,o),
(199,515,q),
(108,0,l),
(19,0,l),
(113,523,ls),
(121,570,o),
(163,648,o),
(231,706,o),
(325,738,o),
(383,738,qs),
(431,738,o),
(504,716,o),
(552,678,o),
(577,626,o),
(577,597,qs),
(577,563,o),
(551,514,o),
(511,477,o),
(465,449,o),
(425,424,o),
(399,397,o),
(399,380,qs),
(399,371,o),
(408,355,o),
(430,339,o),
(470,321,o),
(501,310,qs),
(560,288,o),
(613,226,o),
(613,175,qs),
(613,135,o),
(580,68,o),
(522,18,o),
(443,-10,o),
(396,-10,qs)
);
}
);
width = 663;
},
{
layerId = "13CE2B3A-5842-4154-B805-A41E50C98059";
shapes = (
{
closed = 1;
nodes = (
(288,-10,o),
(199,87,o),
(207,166,q),
(266,166,l),
(259,106,o),
(319,37,o),
(380,37,qs),
(441,37,o),
(516,105,o),
(516,162,qs),
(516,195,o),
(473,237,o),
(424,254,qs),
(358,277,o),
(299,326,o),
(299,366,qs),
(299,395,o),
(328,436,o),
(371,468,o),
(421,496,o),
(464,529,o),
(493,571,o),
(493,601,qs),
(493,641,o),
(427,691,o),
(363,691,qs),
(278,691,o),
(189,602,o),
(174,525,q),
(81,0,l),
(25,0,l),
(120,532,ls),
(128,576,o),
(168,651,o),
(231,707,o),
(317,738,o),
(372,738,qs),
(417,738,o),
(484,718,o),
(527,683,o),
(549,635,o),
(549,607,qs),
(549,570,o),
(521,518,o),
(478,479,o),
(428,451,o),
(385,425,o),
(357,396,o),
(357,376,qs),
(357,365,o),
(367,347,o),
(392,329,o),
(434,310,o),
(466,299,qs),
(523,279,o),
(576,218,o),
(576,169,qs),
(576,131,o),
(545,66,o),
(490,18,o),
(415,-10,o),
(371,-10,qs)
);
}
);
width = 631;
}
);
unicode = 223;
}
{
glyphname = acircumflex;
widthMetricsKey = a;
layers = (
{
layerId = "84C8819D-02E3-4D9D-80EE-F3CA29327F71";
shapes = (
{
closed = 1;
nodes = (
(116,-12,o),
(39,83,o),
(39,210,cs),
(39,380,o),
(164,512,o),
(320,512,cs),
(399,512,o),
(443,482,o),
(466,447,c),
(497,500,l),
(647,500,l),
(560,0,l),
(409,0,l),
(397,60,l),
(362,20,o),
(311,-12,o),
(234,-12,cs)
);
},
{
closed = 1;
nodes = (
(382,138,o),
(441,202,o),
(441,271,cs),
(441,324,o),
(404,362,o),
(345,362,cs),
(272,362,o),
(218,303,o),
(218,233,cs),
(218,180,o),
(250,138,o),
(310,138,cs)
);
},
{
closed = 1;
nodes = (
(221,536,l),
(243,655,l),
(414,740,l),
(555,655,l),
(534,536,l),
(394,624,l)
);
}
);
width = 660;
},
{
layerId = "44586365-17B2-4B09-91E8-CEE5E00BC966";
shapes = (
{
closed = 1;
nodes = (
(112,-12,o),
(36,89,o),
(36,209,cs),
(36,387,o),
(161,512,o),
(323,512,cs),
(414,512,o),
(473,472,o),
(501,406,c),
(519,500,l),
(574,500,l),
(485,0,l),
(431,0,l),
(445,91,l),
(404,39,o),
(343,-12,o),
(245,-12,cs)
);
},
{
closed = 1;
nodes = (
(380,36,o),
(472,154,o),
(472,300,cs),
(472,401,o),
(414,464,o),
(318,464,cs),
(189,464,o),
(93,356,o),
(93,211,cs),
(93,111,o),
(154,36,o),
(251,36,cs)
);
},
{
closed = 1;
nodes = (
(216,566,l),
(224,614,l),
(372,696,l),
(489,614,l),
(481,566,l),
(364,649,l)
);
}
);
width = 612;
},
{
layerId = "EC825F25-5E21-4444-B100-FC828A5BE381";
shapes = (
{
closed = 1;
nodes = (
(112,-12,o),
(36,89,o),
(36,209,cs),
(36,387,o),
(161,512,o),
(323,512,cs),
(414,512,o),
(473,472,o),
(501,406,c),
(519,500,l),
(574,500,l),
(485,0,l),
(431,0,l),
(445,91,l),
(404,39,o),
(343,-12,o),
(245,-12,cs)
);
},
{
closed = 1;
nodes = (
(380,36,o),
(472,154,o),
(472,300,cs),
(472,401,o),
(414,464,o),
(318,464,cs),
(189,464,o),
(93,356,o),
(93,211,cs),
(93,111,o),
(154,36,o),
(251,36,cs)
);
},
{
closed = 1;
nodes = (
(212,566,l),
(220,614,l),
(368,696,l),
(485,614,l),
(477,566,l),
(360,649,l)
);
}
);
width = 593;
}
);
leftKerningGroup = a2;
rightKerningGroup = a;
unicode = 226;
}
{
glyphname = atilde;
layers = (
{
layerId = "2916D4A4-8684-4E16-97E6-1E1555060A99";
shapes = (
{
closed = 1;
nodes = (
(190,-12,o),
(118,22,o),
(67,81,o),
(39,162,o),
(39,210,qs),
(39,274,o),
(83,384,o),
(159,465,o),
(262,512,o),
(320,512,qs),
(380,512,o),
(449,473,o),
(466,447,q),
(497,500,l),
(647,500,l),
(560,0,l),
(409,0,l),
(397,60,l),
(384,45,o),
(351,19,o),
(311,-1,o),
(263,-12,o),
(234,-12,qs)
);
},
{
closed = 1;
nodes = (
(337,138,o),
(385,160,o),
(420,197,o),
(441,245,o),
(441,271,qs),
(441,311,o),
(390,362,o),
(345,362,qs),
(318,362,o),
(271,341,o),
(237,306,o),
(218,259,o),
(218,233,qs),
(218,213,o),
(230,178,o),
(253,153,o),
(288,138,o),
(310,138,qs)
);
},
{
closed = 1;
nodes = (
(183,552,l),
(210,632,o),
(294,702,o),
(349,702,qs),
(372,702,o),
(404,688,o),
(418,679,qs),
(433,670,o),
(457,656,o),
(473,656,qs),
(490,656,o),
(517,678,o),
(524,702,q),
(613,702,l),
(586,622,o),
(502,552,o),
(447,552,qs),
(425,552,o),
(392,566,o),
(378,576,q),
(363,584,o),
(339,598,o),
(323,598,qs),
(305,598,o),
(279,575,o),
(271,552,q)
);
}
);
width = 660;
},
{
layerId = "C58D79E9-5C27-47CF-BCFD-A6E10D98D405";
shapes = (
{
closed = 1;
nodes = (
(194,-12,o),
(118,23,o),
(65,83,o),
(37,163,o),
(37,209,qs),
(37,275,o),
(81,386,o),
(158,467,o),
(263,512,o),
(323,512,qs),
(389,512,o),
(471,461,o),
(491,418,q),
(513,500,l),
(595,500,l),
(507,0,l),
(425,0,l),
(432,82,l),
(417,64,o),
(380,30,o),
(333,4,o),
(277,-12,o),
(242,-12,qs)
);
},
{
closed = 1;
nodes = (
(310,65,o),
(382,101,o),
(435,163,o),
(464,246,o),
(464,292,qs),
(464,358,o),
(391,435,o),
(326,435,qs),
(284,435,o),
(211,402,o),
(159,343,o),
(129,264,o),
(129,217,qs),
(129,185,o),
(148,129,o),
(184,88,o),
(236,65,o),
(268,65,qs)
);
},
{
closed = 1;
nodes = (
(212,558,l),
(229,612,o),
(290,662,o),
(328,662,qs),
(349,662,o),
(375,648,o),
(387,640,q),
(397,631,o),
(420,616,o),
(437,616,qs),
(453,616,o),
(482,638,o),
(489,661,q),
(540,661,l),
(524,610,o),
(462,557,o),
(423,557,qs),
(403,557,o),
(376,572,o),
(365,582,q),
(352,590,o),
(330,604,o),
(314,604,qs),
(295,604,o),
(271,581,o),
(264,558,q)
);
}
);
width = 612;
},
{
layerId = "13CE2B3A-5842-4154-B805-A41E50C98059";
shapes = (
{
closed = 1;
nodes = (
(195,-12,o),
(117,23,o),
(64,84,o),
(36,164,o),
(36,209,qs),
(36,276,o),
(80,387,o),
(157,467,o),
(262,512,o),
(323,512,qs),
(392,512,o),
(480,456,o),
(501,406,q),
(519,500,l),
(574,500,l),
(485,0,l),
(431,0,l),
(445,91,l),
(430,72,o),
(391,34,o),
(342,6,o),
(282,-12,o),
(245,-12,qs)
);
},
{
closed = 1;
nodes = (
(299,36,o),
(381,77,o),
(439,149,o),
(472,245,o),
(472,300,qs),
(472,376,o),
(390,464,o),
(318,464,qs),
(270,464,o),
(187,426,o),
(127,358,o),
(93,265,o),
(93,211,qs),
(93,174,o),
(115,109,o),
(156,63,o),
(215,36,o),
(251,36,qs)
);
},
{
closed = 1;
nodes = (
(222,561,l),
(235,604,o),
(286,647,o),
(319,647,qs),
(338,647,o),
(363,632,o),
(373,624,q),
(382,615,o),
(404,600,o),
(422,600,qs),
(437,600,o),
(467,622,o),
(473,645,q),
(510,645,l),
(498,606,o),
(445,559,o),
(412,559,qs),
(393,559,o),
(368,575,o),
(357,584,qs),
(347,592,o),
(325,607,o),
(309,607,qs),
(290,607,o),
(266,584,o),
(260,561,q)
);
}
);
width = 593;
}
);
leftKerningGroup = a2;
rightKerningGroup = a;
unicode = 227;
}
{
glyphname = adieresis;
layers = (
{
layerId = "2916D4A4-8684-4E16-97E6-1E1555060A99";
shapes = (
{
closed = 1;
nodes = (
(190,-12,o),
(118,22,o),
(67,81,o),
(39,162,o),
(39,210,qs),
(39,274,o),
(83,384,o),
(159,465,o),
(262,512,o),
(320,512,qs),
(380,512,o),
(449,473,o),
(466,447,q),
(497,500,l),
(647,500,l),
(560,0,l),
(409,0,l),
(397,60,l),
(384,45,o),
(351,19,o),
(311,-1,o),
(263,-12,o),
(234,-12,qs)
);
},
{
closed = 1;
nodes = (
(337,138,o),
(385,160,o),
(420,197,o),
(441,245,o),
(441,271,qs),
(441,311,o),
(390,362,o),
(345,362,qs),
(318,362,o),
(271,341,o),
(237,306,o),
(218,259,o),
(218,233,qs),
(218,213,o),
(230,178,o),
(253,153,o),
(288,138,o),
(310,138,qs)
);
},
{
closed = 1;
nodes = (
(489,562,o),
(446,605,o),
(446,636,qs),
(446,669,o),
(489,711,o),
(520,711,qs),
(552,711,o),
(594,669,o),
(594,636,qs),
(594,605,o),
(552,562,o),
(520,562,qs)
);
},
{
closed = 1;
nodes = (
(287,562,o),
(245,605,o),
(245,636,qs),
(245,669,o),
(287,711,o),
(318,711,qs),
(351,711,o),
(393,669,o),
(393,636,qs),
(393,605,o),
(351,562,o),
(318,562,qs)
);
}
);
width = 660;
},
{
layerId = "C58D79E9-5C27-47CF-BCFD-A6E10D98D405";
shapes = (
{
closed = 1;
nodes = (
(194,-12,o),
(118,23,o),
(65,83,o),
(37,163,o),
(37,209,qs),
(37,275,o),
(81,386,o),
(158,467,o),
(263,512,o),
(323,512,qs),
(389,512,o),
(471,461,o),
(491,418,q),
(513,500,l),
(595,500,l),
(507,0,l),
(425,0,l),
(432,82,l),
(417,64,o),
(380,30,o),
(333,4,o),
(277,-12,o),
(242,-12,qs)
);
},
{
closed = 1;
nodes = (
(310,65,o),
(382,101,o),
(435,163,o),
(464,246,o),
(464,292,qs),
(464,358,o),
(391,435,o),
(326,435,qs),
(284,435,o),
(211,402,o),
(159,343,o),
(129,264,o),
(129,217,qs),
(129,185,o),
(148,129,o),
(184,88,o),
(236,65,o),
(268,65,qs)
);
},
{
closed = 1;
nodes = (
(434,575,o),
(405,605,o),
(405,626,qs),
(405,648,o),
(434,677,o),
(456,677,qs),
(478,677,o),
(507,648,o),
(507,626,qs),
(507,605,o),
(478,575,o),
(456,575,qs)
);
},
{
closed = 1;
nodes = (
(271,575,o),
(241,605,o),
(241,626,qs),
(241,648,o),
(271,677,o),
(293,677,qs),
(314,677,o),
(343,648,o),
(343,626,qs),
(343,605,o),
(314,575,o),
(293,575,qs)
);
}
);
width = 612;
},
{
layerId = "13CE2B3A-5842-4154-B805-A41E50C98059";
shapes = (
{
closed = 1;
nodes = (
(195,-12,o),
(117,23,o),
(64,84,o),
(36,164,o),
(36,209,qs),
(36,276,o),
(80,387,o),
(157,467,o),
(262,512,o),
(323,512,qs),
(392,512,o),
(480,456,o),
(501,406,q),
(519,500,l),
(574,500,l),
(485,0,l),
(431,0,l),
(445,91,l),
(430,72,o),
(391,34,o),
(342,6,o),
(282,-12,o),
(245,-12,qs)
);
},
{
closed = 1;
nodes = (
(299,36,o),
(381,77,o),
(439,149,o),
(472,245,o),
(472,300,qs),
(472,376,o),
(390,464,o),
(318,464,qs),
(270,464,o),
(187,426,o),
(127,358,o),
(93,265,o),
(93,211,qs),
(93,174,o),
(115,109,o),
(156,63,o),
(215,36,o),
(251,36,qs)
);
},
{
closed = 1;
nodes = (
(412,580,o),
(388,604,o),
(388,622,qs),
(388,639,o),
(412,664,o),
(430,664,qs),
(447,664,o),
(470,639,o),
(470,622,qs),
(470,604,o),
(447,580,o),
(430,580,qs)
);
},
{
closed = 1;
nodes = (
(264,580,o),
(239,604,o),
(239,622,qs),
(239,639,o),
(264,664,o),
(282,664,qs),
(299,664,o),
(323,639,o),
(323,622,qs),
(323,604,o),
(299,580,o),
(282,580,qs)
);
}
);
width = 593;
}
);
leftKerningGroup = a2;
rightKerningGroup = a;
unicode = 228;
}
{
glyphname = aring;
widthMetricsKey = a;
layers = (
{
layerId = "84C8819D-02E3-4D9D-80EE-F3CA29327F71";
shapes = (
{
closed = 1;
nodes = (
(116,-12,o),
(39,83,o),
(39,210,cs),
(39,380,o),
(164,512,o),
(320,512,cs),
(399,512,o),
(443,482,o),
(466,447,c),
(497,500,l),
(647,500,l),
(560,0,l),
(409,0,l),
(397,60,l),
(362,20,o),
(311,-12,o),
(234,-12,cs)
);
},
{
closed = 1;
nodes = (
(382,138,o),
(441,202,o),
(441,271,cs),
(441,324,o),
(404,362,o),
(345,362,cs),
(272,362,o),
(218,303,o),
(218,233,cs),
(218,180,o),
(250,138,o),
(310,138,cs)
);
},
{
closed = 1;
nodes = (
(332,541,o),
(278,588,o),
(278,663,cs),
(278,739,o),
(332,785,o),
(401,785,cs),
(469,785,o),
(525,739,o),
(525,663,cs),
(525,588,o),
(469,541,o),
(401,541,cs)
);
},
{
closed = 1;
nodes = (
(428,614,o),
(449,634,o),
(449,663,cs),
(449,695,o),
(428,713,o),
(401,713,cs),
(373,713,o),
(353,695,o),
(353,663,cs),
(353,634,o),
(373,614,o),
(401,614,cs)
);
}
);
width = 660;
},
{
layerId = "44586365-17B2-4B09-91E8-CEE5E00BC966";
shapes = (
{
closed = 1;
nodes = (
(112,-12,o),
(36,89,o),
(36,209,cs),
(36,387,o),
(161,512,o),
(323,512,cs),
(414,512,o),
(473,472,o),
(501,406,c),
(519,500,l),
(574,500,l),
(485,0,l),
(431,0,l),
(445,91,l),
(404,39,o),
(343,-12,o),
(245,-12,cs)
);
},
{
closed = 1;
nodes = (
(380,36,o),
(472,154,o),
(472,300,cs),
(472,401,o),
(414,464,o),
(318,464,cs),
(189,464,o),
(93,356,o),
(93,211,cs),
(93,111,o),
(154,36,o),
(251,36,cs)
);
},
{
closed = 1;
nodes = (
(315,568,o),
(269,605,o),
(269,665,cs),
(269,726,o),
(315,763,o),
(368,763,cs),
(425,763,o),
(468,726,o),
(468,665,cs),
(468,605,o),
(425,568,o),
(368,568,cs)
);
},
{
closed = 1;
nodes = (
(404,603,o),
(430,626,o),
(430,665,cs),
(430,706,o),
(404,729,o),
(368,729,cs),
(335,729,o),
(308,706,o),
(308,665,cs),
(308,626,o),
(335,603,o),
(368,603,cs)
);
}
);
width = 612;
},
{
layerId = "EC825F25-5E21-4444-B100-FC828A5BE381";
shapes = (
{
closed = 1;
nodes = (
(112,-12,o),
(36,89,o),
(36,209,cs),
(36,387,o),
(161,512,o),
(323,512,cs),
(414,512,o),
(473,472,o),
(501,406,c),
(519,500,l),
(574,500,l),
(485,0,l),
(431,0,l),
(445,91,l),
(404,39,o),
(343,-12,o),
(245,-12,cs)
);
},
{
closed = 1;
nodes = (
(380,36,o),
(472,154,o),
(472,300,cs),
(472,401,o),
(414,464,o),
(318,464,cs),
(189,464,o),
(93,356,o),
(93,211,cs),
(93,111,o),
(154,36,o),
(251,36,cs)
);
},
{
closed = 1;
nodes = (
(312,568,o),
(266,605,o),
(266,665,cs),
(266,726,o),
(312,763,o),
(365,763,cs),
(422,763,o),
(465,726,o),
(465,665,cs),
(465,605,o),
(422,568,o),
(365,568,cs)
);
},
{
closed = 1;
nodes = (
(401,603,o),
(427,626,o),
(427,665,cs),
(427,706,o),
(401,729,o),
(365,729,cs),
(332,729,o),
(305,706,o),
(305,665,cs),
(305,626,o),
(332,603,o),
(365,603,cs)
);
}
);
width = 593;
}
);
leftKerningGroup = a2;
rightKerningGroup = a;
unicode = 229;
}
{
glyphname = ae;
layers = (
{
layerId = "84C8819D-02E3-4D9D-80EE-F3CA29327F71";
shapes = (
{
closed = 1;
nodes = (
(116,-12,o),
(39,83,o),
(39,210,cs),
(39,380,o),
(164,512,o),
(320,512,cs),
(389,512,o),
(433,489,o),
(457,458,c),
(469,500,l),
(601,500,l),
(596,473,l),
(643,498,o),
(698,512,o),
(759,512,cs),
(892,512,o),
(983,430,o),
(983,305,cs),
(983,268,o),
(975,234,o),
(967,207,c),
(606,207,l),
(606,154,o),
(638,127,o),
(690,127,cs),
(725,127,o),
(751,144,o),
(770,165,c),
(948,165,l),
(898,65,o),
(787,-12,o),
(667,-12,cs),
(607,-12,o),
(558,2,o),
(518,29,c),
(513,0,l),
(381,0,l),
(384,46,l),
(349,13,o),
(301,-12,o),
(234,-12,cs)
);
},
{
closed = 1;
nodes = (
(382,138,o),
(441,202,o),
(441,271,cs),
(441,324,o),
(404,362,o),
(345,362,cs),
(272,362,o),
(218,303,o),
(218,233,cs),
(218,180,o),
(250,138,o),
(310,138,cs)
);
},
{
closed = 1;
nodes = (
(811,302,l),
(814,344,o),
(784,375,o),
(737,375,cs),
(690,375,o),
(650,352,o),
(627,302,c)
);
}
);
width = 1013;
},
{
layerId = "44586365-17B2-4B09-91E8-CEE5E00BC966";
shapes = (
{
closed = 1;
nodes = (
(114,-12,o),
(37,87,o),
(37,209,cs),
(37,385,o),
(162,512,o),
(323,512,cs),
(405,512,o),
(458,479,o),
(486,427,c),
(505,500,l),
(579,500,l),
(569,442,l),
(618,487,o),
(682,512,o),
(755,512,cs),
(886,512,o),
(957,427,o),
(957,321,cs),
(957,293,o),
(950,255,o),
(944,230,c),
(546,230,l),
(536,141,o),
(578,62,o),
(677,62,cs),
(745,62,o),
(797,98,o),
(828,150,c),
(916,150,l),
(873,57,o),
(782,-12,o),
(663,-12,cs),
(592,-12,o),
(536,16,o),
(501,65,c),
(490,0,l),
(417,0,l),
(427,77,l),
(388,31,o),
(330,-12,o),
(242,-12,cs)
);
},
{
closed = 1;
nodes = (
(381,65,o),
(464,168,o),
(464,292,cs),
(464,379,o),
(412,435,o),
(326,435,cs),
(213,435,o),
(129,341,o),
(129,217,cs),
(129,131,o),
(182,65,o),
(268,65,cs)
);
},
{
closed = 1;
nodes = (
(868,296,l),
(875,380,o),
(836,438,o),
(743,438,cs),
(664,438,o),
(586,388,o),
(560,296,c)
);
}
);
width = 982;
},
{
layerId = "EC825F25-5E21-4444-B100-FC828A5BE381";
shapes = (
{
closed = 1;
nodes = (
(112,-12,o),
(36,89,o),
(36,209,cs),
(36,387,o),
(161,512,o),
(323,512,cs),
(411,512,o),
(468,475,o),
(497,414,c),
(519,500,l),
(569,500,l),
(557,430,l),
(608,482,o),
(675,512,o),
(753,512,cs),
(883,512,o),
(946,426,o),
(946,328,cs),
(946,303,o),
(939,264,o),
(934,239,c),
(522,239,l),
(507,136,o),
(554,36,o),
(671,36,cs),
(753,36,o),
(815,79,o),
(850,144,c),
(902,144,l),
(862,54,o),
(779,-12,o),
(661,-12,cs),
(585,-12,o),
(526,22,o),
(494,80,c),
(480,0,l),
(431,0,l),
(444,90,l),
(403,38,o),
(341,-12,o),
(245,-12,cs)
);
},
{
closed = 1;
nodes = (
(380,36,o),
(472,154,o),
(472,300,cs),
(472,401,o),
(414,464,o),
(318,464,cs),
(189,464,o),
(93,356,o),
(93,211,cs),
(93,111,o),
(154,36,o),
(251,36,cs)
);
},
{
closed = 1;
nodes = (
(890,294,l),
(899,395,o),
(856,463,o),
(745,463,cs),
(653,463,o),
(560,403,o),
(533,294,c)
);
}
);
width = 969;
}
);
leftKerningGroup = a2;
rightKerningGroup = e;
unicode = 230;
}
{
glyphname = ecircumflex;
layers = (
{
layerId = "2916D4A4-8684-4E16-97E6-1E1555060A99";
shapes = (
{
closed = 1;
nodes = (
(216,-12,o),
(130,18,o),
(70,73,o),
(38,153,o),
(38,203,qs),
(38,265,o),
(84,376,o),
(169,462,o),
(289,512,o),
(362,512,qs),
(412,512,o),
(494,482,o),
(553,428,o),
(586,352,o),
(586,305,qs),
(586,277,o),
(576,227,o),
(570,207,q),
(209,207,l),
(209,187,o),
(221,157,o),
(242,137,o),
(273,127,o),
(292,127,qs),
(319,127,o),
(359,149,o),
(373,165,q),
(550,165,l),
(532,128,o),
(473,63,o),
(400,15,o),
(315,-12,o),
(270,-12,qs)
);
},
{
closed = 1;
nodes = (
(413,302,l),
(415,334,o),
(375,375,o),
(340,375,qs),
(322,375,o),
(290,366,o),
(262,348,o),
(239,321,o),
(230,302,q)
);
},
{
closed = 1;
nodes = (
(208,536,l),
(230,655,l),
(401,740,l),
(542,655,l),
(521,536,l),
(381,624,l)
);
}
);
width = 616;
},
{
layerId = "C58D79E9-5C27-47CF-BCFD-A6E10D98D405";
shapes = (
{
closed = 1;
nodes = (
(195,-12,o),
(119,18,o),
(65,73,o),
(36,151,o),
(36,199,qs),
(36,264,o),
(80,378,o),
(159,463,o),
(269,512,o),
(334,512,qs),
(383,512,o),
(458,482,o),
(509,430,o),
(535,361,o),
(535,321,qs),
(535,300,o),
(527,249,o),
(522,230,q),
(125,230,l),
(121,197,o),
(133,136,o),
(166,89,o),
(219,62,o),
(256,62,qs),
(307,62,o),
(383,111,o),
(406,150,q),
(494,150,l),
(478,115,o),
(429,56,o),
(365,12,o),
(287,-12,o),
(242,-12,qs)
);
},
{
closed = 1;
nodes = (
(447,296,l),
(452,359,o),
(391,438,o),
(322,438,qs),
(292,438,o),
(235,420,o),
(186,384,o),
(148,331,o),
(139,296,q)
);
},
{
closed = 1;
nodes = (
(202,557,l),
(214,626,l),
(368,709,l),
(492,626,l),
(480,557,l),
(357,642,l)
);
}
);
width = 560;
},
{
layerId = "13CE2B3A-5842-4154-B805-A41E50C98059";
shapes = (
{
closed = 1;
nodes = (
(186,-12,o),
(114,18,o),
(63,73,o),
(35,151,o),
(35,198,qs),
(35,264,o),
(79,379,o),
(156,464,o),
(261,512,o),
(323,512,qs),
(372,512,o),
(444,482,o),
(492,431,o),
(515,365,o),
(515,328,qs),
(515,309,o),
(507,258,o),
(503,239,q),
(92,239,l),
(86,200,o),
(98,127,o),
(135,70,o),
(197,36,o),
(241,36,qs),
(303,36,o),
(393,95,o),
(419,144,q),
(472,144,l),
(457,110,o),
(411,53,o),
(350,11,o),
(275,-12,o),
(231,-12,qs)
);
},
{
closed = 1;
nodes = (
(460,294,l),
(467,370,o),
(398,463,o),
(315,463,qs),
(281,463,o),
(213,441,o),
(156,398,o),
(113,335,o),
(103,294,q)
);
},
{
closed = 1;
nodes = (
(200,566,l),
(208,614,l),
(355,696,l),
(472,614,l),
(464,566,l),
(347,649,l)
);
}
);
width = 537;
}
);
leftKerningGroup = a2;
rightKerningGroup = e;
unicode = 234;
}
